<svg width="24" height="28" viewBox="0 0 24 28" fill="none" xmlns="http://www.w3.org/2000/svg">
<path d="M14.5723 16.9805L16.9102 19.9863L19.1074 22.5527L23.3613 27.9141H18.4043L15.4688 24.293L14.0098 22.2188L10.0547 16.9805H14.5723ZM23.7656 13.0781C23.7656 15.7734 23.25 18.1113 22.2188 20.0918C21.1992 22.0605 19.7871 23.5664 17.9824 24.6094C16.1895 25.6406 14.1562 26.1562 11.8828 26.1562C9.60938 26.1562 7.57031 25.6406 5.76562 24.6094C3.97266 23.5664 2.56055 22.0547 1.5293 20.0742C0.509766 18.0938 0 15.7617 0 13.0781C0 10.3594 0.509766 8.01562 1.5293 6.04688C2.56055 4.07812 3.97266 2.57812 5.76562 1.54688C7.57031 0.515625 9.60938 0 11.8828 0C14.1562 0 16.1895 0.515625 17.9824 1.54688C19.7871 2.57812 21.1992 4.07812 22.2188 6.04688C23.25 8.01562 23.7656 10.3594 23.7656 13.0781ZM18.4219 13.0781C18.4219 11.2852 18.1523 9.76172 17.6133 8.50781C17.0859 7.25391 16.3301 6.30469 15.3457 5.66016C14.373 5.00391 13.2188 4.67578 11.8828 4.67578C10.5586 4.67578 9.4043 5.00391 8.41992 5.66016C7.44727 6.30469 6.69141 7.25391 6.15234 8.50781C5.61328 9.76172 5.34375 11.2852 5.34375 13.0781C5.34375 14.8711 5.61328 16.3945 6.15234 17.6484C6.69141 18.9023 7.44727 19.8574 8.41992 20.5137C9.4043 21.1582 10.5586 21.4805 11.8828 21.4805C13.2188 21.4805 14.373 21.1582 15.3457 20.5137C16.3301 19.8574 17.0859 18.9023 17.6133 17.6484C18.1523 16.3945 18.4219 14.8711 18.4219 13.0781Z" fill="#2E2E2E"/>
</svg>
