<svg width="263" height="124" viewBox="0 0 263 124" fill="none" xmlns="http://www.w3.org/2000/svg">
<g clip-path="url(#clip0_226_3340)">
<path d="M261.46 8.34939C262.44 10.7694 262.21 13.0294 260.78 15.1494C260.1 16.1294 259.25 16.9094 258.23 17.4694C257.21 18.0394 256.13 18.2494 255 18.0894C253.26 17.9394 252.17 17.3194 251.72 16.2194C251.27 15.1294 251.3 14.2394 251.83 13.5594C252.28 12.9594 252.91 12.6694 253.7 12.7094C254.49 12.7494 255.12 13.0694 255.57 13.6694C255.87 14.0494 256.06 14.3894 256.14 14.6894C256.21 14.9894 256.44 15.3294 256.82 15.7094C257.42 16.1594 257.97 16.1794 258.46 15.7694C258.95 15.3594 259.38 14.8794 259.76 14.3494C260.97 12.6894 261.16 10.8394 260.33 8.79939C259.8 7.58939 259.1 6.68939 258.23 6.07939C257.36 5.47939 256.46 5.07939 255.51 4.88939C254.56 4.69939 253.68 4.62939 252.85 4.65939C252.02 4.69939 251.38 4.75939 250.92 4.82939C249.56 5.05939 248.13 5.56939 246.62 6.35939C245.11 7.14939 243.52 8.09939 241.86 9.18939C240.2 10.2894 238.5 11.4694 236.76 12.7594C235.02 14.0394 233.29 15.3694 231.55 16.7194L230.64 17.3994C230.49 17.5494 230.34 17.6694 230.19 17.7394C230.04 17.8194 229.89 17.9294 229.74 18.0794C228.53 19.0594 226.95 20.2494 224.98 21.6494C223.02 23.0494 221.02 24.1994 218.98 25.0994V70.8494C218.98 71.6794 219.07 72.3594 219.26 72.8894C219.45 73.4194 220.18 73.6794 221.47 73.6794V75.3794C221.02 75.4594 220.6 75.4894 220.22 75.4894C219.84 75.4894 219.44 75.5094 219.03 75.5494C218.61 75.5894 218.25 75.5294 217.95 75.3794C217.35 75.2294 216.76 74.9794 216.19 74.6394C215.62 74.2994 215.19 73.9394 214.89 73.5594C214.89 73.4894 214.79 73.2994 214.61 72.9894C214.42 72.6894 214.21 72.3094 213.99 71.8594C213.39 73.0694 212.65 74.0894 211.78 74.9194C210.91 75.7494 209.72 76.1694 208.21 76.1694H207.76C206.48 76.1694 205.36 76.0194 204.42 75.7194C203.48 75.4194 202.59 74.9694 201.76 74.3594C200.7 73.6094 199.89 72.7594 199.33 71.8094C198.76 70.8694 198.33 69.9394 198.03 69.0394C197.73 68.0594 197.5 66.9994 197.35 65.8694V41.1794C197.35 40.4994 197.5 39.7494 197.8 38.9094C198.03 38.1594 198.38 37.3394 198.88 36.4794C199.37 35.6094 200.01 34.8194 200.81 34.0994C201.6 33.3794 202.57 32.7794 203.7 32.2894C204.83 31.7994 206.23 31.5494 207.89 31.5494H208.34C209.32 31.5494 210.19 31.7994 210.94 32.2894C211.69 32.7794 212.3 33.4394 212.75 34.2694V26.4594H211.96C207.96 26.4594 205.01 25.3994 203.13 23.2894C201.39 21.3294 200.94 18.7994 201.77 15.6994C202.22 13.8094 203.17 12.2094 204.6 10.8894C206.03 9.56939 207.66 8.18939 209.47 6.75939C209.7 6.60939 209.9 6.43939 210.09 6.24939C210.28 6.05939 210.49 5.88939 210.71 5.73939C211.09 5.43939 211.77 4.88939 212.75 4.09939C213.73 3.30939 215.2 2.15939 217.17 0.649387C217.77 0.119387 218.23 0.0493866 218.53 0.419387C218.83 0.799387 218.98 1.24939 218.98 1.77939V23.7494C220.94 22.8394 222.85 21.7094 224.7 20.3494C226.55 18.9894 228 17.8994 229.06 17.0694C229.29 16.8394 229.55 16.6594 229.85 16.4994L230.76 15.7094C232.57 14.3494 234.36 13.0094 236.14 11.6894C237.91 10.3694 239.65 9.13939 241.35 8.00939C243.05 6.87939 244.69 5.92939 246.28 5.17939C247.87 4.42939 249.34 3.92939 250.7 3.70939C251.53 3.55939 252.47 3.47939 253.53 3.47939C254.59 3.47939 255.68 3.66939 256.81 4.04939C258.92 4.72939 260.47 6.15939 261.45 8.34939H261.46ZM208.34 24.9994C208.94 25.1494 209.62 25.2694 210.38 25.3394C211.13 25.4194 211.93 25.4494 212.76 25.4494V8.57939C212.76 8.42939 212.72 8.23939 212.65 8.00939C212.5 7.62939 212.23 7.32939 211.86 7.09939C211.78 7.09939 211.71 7.05939 211.63 6.98939C211.25 6.98939 210.97 7.04939 210.78 7.15939C210.59 7.26939 210.38 7.40939 210.16 7.55939C208.42 8.91939 206.86 10.2194 205.46 11.4694C204.06 12.7194 203.18 14.2094 202.8 15.9394C202.04 18.6594 202.42 20.8894 203.93 22.6194C204.84 23.7494 206.31 24.5494 208.35 24.9994H208.34ZM212.76 69.2794V37.4594C212.76 37.3094 212.74 37.1994 212.7 37.1194C212.66 37.0494 212.64 36.9694 212.64 36.8894C212.41 35.6794 212 34.7394 211.39 34.0594C210.78 33.4594 210.12 33.0794 209.41 32.9294C208.69 32.7794 208.14 32.6994 207.77 32.6994C207.4 32.6994 206.96 32.7994 206.47 32.9794C205.98 33.1694 205.43 33.5694 204.83 34.1694C204.38 34.7794 204.04 35.3794 203.81 35.9794C203.58 36.5894 203.43 37.0794 203.36 37.4494V68.9294C203.43 69.3094 203.45 69.6494 203.42 69.9494C203.38 70.2494 203.4 70.5894 203.48 70.9694C203.71 72.0994 204.12 73.0094 204.73 73.6894C205.33 74.2994 205.99 74.6694 206.71 74.8194C207.43 74.9694 207.97 75.0494 208.35 75.0494C208.73 75.0494 209.16 74.9794 209.65 74.8194C210.14 74.6694 210.69 74.2894 211.29 73.6894C211.74 73.0894 212.06 72.4594 212.25 71.8194C212.44 71.1794 212.61 70.6694 212.76 70.2894V69.2694V69.2794Z" fill="#F28C28"/>
<path d="M7.18996 104.77C7.09996 104.78 6.98996 104.79 6.86996 104.79C6.86996 104.51 6.85996 104.08 6.82996 103.5C6.79996 102.92 6.72996 102.32 6.59996 101.72C6.46996 101.11 6.28996 100.56 6.04996 100.05C5.80996 99.5405 5.48996 99.2305 5.07996 99.1005C4.79996 99.0205 4.52996 98.9705 4.25996 98.9505C3.98996 98.9305 3.70996 98.9105 3.40996 98.9105V110.32H5.14996C5.37996 110.32 5.52996 110.26 5.61996 110.13C5.70996 110 5.76996 109.85 5.80996 109.67C5.84996 109.49 5.85996 109.32 5.84996 109.14C5.83996 108.96 5.82996 108.82 5.82996 108.72H6.46996C6.46996 108.85 6.46996 109.04 6.44996 109.31C6.43996 109.58 6.41996 109.82 6.38996 110.05C6.33996 110.35 6.30996 110.58 6.30996 110.73C6.30996 110.88 6.31996 111.06 6.34996 111.26C6.34996 111.39 6.34996 111.53 6.36996 111.7C6.37996 111.87 6.39996 112.02 6.42996 112.17C6.44996 112.35 6.46996 112.54 6.46996 112.74H5.85996C5.85996 112.34 5.83996 111.96 5.79996 111.62C5.75996 111.28 5.57996 111.08 5.24996 111.03H3.38996V122.14C3.38996 122.37 3.43996 122.53 3.53996 122.63C3.63996 122.73 3.76996 122.8 3.91996 122.84C4.06996 122.88 4.22996 122.9 4.38996 122.9H4.78996V123.55C4.63996 123.55 4.36996 123.55 3.98996 123.57C3.60996 123.58 3.31996 123.54 3.11996 123.44C2.88996 123.34 2.62996 123.29 2.33996 123.29C2.04996 123.29 1.79996 123.33 1.59996 123.4C1.49996 123.45 1.35996 123.48 1.17996 123.49C0.999961 123.5 0.829961 123.51 0.649961 123.51H-0.0300391V122.94C0.399961 122.94 0.719961 122.85 0.919961 122.66C1.11996 122.47 1.21996 122.24 1.21996 121.96V99.4305C1.21996 99.3805 1.20996 99.3205 1.17996 99.2405C1.12996 99.0605 1.03996 98.9505 0.909961 98.9005C0.859961 98.8805 0.749961 98.8605 0.569961 98.8605H-0.0400391V98.4805H7.46996V104.74C7.33996 104.74 7.23996 104.74 7.14996 104.76L7.18996 104.77Z" fill="#F28C28"/>
<path d="M27.31 123.53H20.18L20.14 123.15H20.88C20.97 123.15 21.04 123.14 21.09 123.11C21.24 123.06 21.34 122.96 21.39 122.81C21.41 122.73 21.43 122.66 21.43 122.58L21.39 99.64C21.39 99.59 21.38 99.53 21.35 99.45C21.3 99.27 21.21 99.16 21.08 99.11C21.03 99.11 20.96 99.11 20.87 99.09C20.78 99.08 20.67 99.07 20.55 99.07H20.13L20.17 98.54C20.3 98.52 20.42 98.5 20.55 98.5H21.5C21.6 98.53 21.76 98.56 21.97 98.61C22.18 98.66 22.39 98.69 22.6 98.69C22.78 98.69 22.93 98.67 23.07 98.61C23.21 98.56 23.38 98.52 23.58 98.5H24.49C24.64 98.5 24.78 98.51 24.91 98.54V99.11C24.38 99.11 24.05 99.14 23.92 99.19C23.69 99.32 23.58 99.54 23.58 99.87V107.15C23.58 109.27 23.58 111.14 23.56 112.74C23.55 114.35 23.54 115.72 23.54 116.85V123.11C23.69 123.11 23.84 123.1 23.99 123.07C24.12 123.05 24.26 123.03 24.43 123.01C24.59 123 24.74 122.97 24.87 122.91C25.25 122.78 25.55 122.52 25.78 122.11C26.01 121.71 26.19 121.24 26.33 120.71C26.47 120.18 26.56 119.6 26.6 118.98C26.64 118.36 26.66 117.79 26.66 117.25H27.3V123.51L27.31 123.53Z" fill="#F28C28"/>
<path d="M47.14 99.6719C47.29 99.9019 47.41 100.202 47.5 100.562C47.59 100.932 47.65 101.262 47.67 101.572V120.232C47.67 120.712 47.58 121.162 47.39 121.582C47.2 122.002 46.94 122.362 46.61 122.682C46.28 123.002 45.9 123.242 45.45 123.422C45.01 123.602 44.55 123.692 44.07 123.692C43.59 123.692 43.18 123.612 42.76 123.462C42.34 123.312 41.96 123.092 41.62 122.802C41.28 122.512 40.99 122.172 40.77 121.782C40.54 121.392 40.42 120.952 40.39 120.472V101.622C40.44 101.272 40.52 100.912 40.62 100.562C40.72 100.282 40.87 99.9819 41.08 99.6519C41.28 99.3219 41.56 99.0319 41.91 98.7819C42.49 98.3819 43.22 98.1719 44.11 98.1719C44.92 98.1719 45.56 98.3219 46.04 98.6319C46.52 98.9319 46.89 99.2919 47.14 99.6919V99.6719ZM45.62 100.582C45.62 100.382 45.6 100.162 45.56 99.9219C45.52 99.6819 45.45 99.4619 45.35 99.2619C45.25 99.0619 45.1 98.8919 44.9 98.7519C44.7 98.6119 44.44 98.5419 44.14 98.5419C43.53 98.5419 43.1 98.7419 42.83 99.1319C42.56 99.5219 42.43 100.012 42.43 100.592V121.072C42.43 121.402 42.47 121.712 42.54 122.002C42.62 122.292 42.75 122.582 42.96 122.852C43.16 123.052 43.34 123.182 43.51 123.232C43.67 123.282 43.82 123.312 43.95 123.312C44.08 123.312 44.26 123.292 44.5 123.232C44.74 123.182 44.96 123.052 45.16 122.852C45.46 122.472 45.61 121.942 45.61 121.262V100.592L45.62 100.582Z" fill="#F28C28"/>
<path d="M73.16 98.6522C73.34 98.5722 73.58 98.5422 73.88 98.5422H74.34V99.1522C73.91 99.1522 73.57 99.1522 73.32 99.1722C73.07 99.1822 72.84 99.4322 72.64 99.9122C72.59 100.092 72.51 100.562 72.41 101.332C72.31 102.102 72.19 103.062 72.07 104.192C71.94 105.332 71.8 106.592 71.65 107.982C71.5 109.372 71.35 110.792 71.19 112.232C70.84 115.592 70.44 119.362 70.01 123.532H68.11C67.98 122.392 67.86 121.182 67.73 119.892C67.6 118.802 67.48 117.562 67.35 116.172C67.22 114.782 67.08 113.352 66.93 111.882C66.75 113.352 66.6 114.782 66.48 116.172C66.35 117.562 66.23 118.802 66.1 119.892C65.97 121.182 65.85 122.392 65.72 123.532H63.86L61.21 100.172C61.16 99.8222 61.06 99.5622 60.93 99.3922C60.79 99.2322 60.57 99.1622 60.27 99.1822V98.5322C60.47 98.5122 60.66 98.4922 60.84 98.4922H61.31C61.47 98.4922 61.62 98.5022 61.75 98.5322C62.15 98.6622 62.46 98.8422 62.68 99.0822C62.89 99.3222 63.06 99.5722 63.19 99.8222C63.32 100.102 63.4 100.402 63.46 100.732L65.58 118.062L66.57 108.622C66.44 107.562 66.33 106.542 66.23 105.572C66.13 104.602 66.03 103.732 65.95 102.972C65.86 102.212 65.78 101.582 65.7 101.072C65.62 100.562 65.56 100.242 65.51 100.082C65.38 99.4522 65.07 99.1522 64.56 99.1722V98.5222C64.69 98.5222 64.86 98.5222 65.09 98.5022C65.32 98.4922 65.53 98.5222 65.73 98.5922C65.96 98.7222 66.21 98.7822 66.49 98.7822C66.77 98.7822 67.01 98.7322 67.21 98.6322C67.39 98.5522 67.63 98.5222 67.93 98.5222H68.39V99.1322C67.96 99.1322 67.72 99.2122 67.67 99.3822C67.62 99.5522 67.62 99.7722 67.67 100.042L69.87 118.052L71.8 99.8122C71.82 99.5622 71.8 99.3922 71.7 99.3022C71.61 99.2122 71.49 99.1522 71.34 99.1322C71.19 99.1122 71.03 99.1122 70.87 99.1322C70.71 99.1622 70.57 99.1722 70.47 99.1722V98.5222C70.6 98.5222 70.78 98.5222 71.02 98.5022C71.26 98.4922 71.48 98.5222 71.68 98.5922C71.91 98.7222 72.16 98.7822 72.44 98.7822C72.72 98.7822 72.96 98.7322 73.16 98.6322V98.6522Z" fill="#F28C28"/>
<path d="M92.3499 117.27V123.53H84.6499V123.15C84.8499 123.18 85.0999 123.18 85.3899 123.15C85.6799 123.13 85.8499 122.95 85.8999 122.62V99.49C85.8999 99.16 85.7699 98.98 85.5199 98.94C85.2699 98.9 84.9799 98.88 84.6499 98.88V98.5H92.0799V104.76C91.9499 104.79 91.7499 104.8 91.4699 104.8C91.4699 104.45 91.4599 103.98 91.4299 103.4C91.3999 102.82 91.3299 102.24 91.2199 101.66C91.1099 101.08 90.9299 100.55 90.6899 100.07C90.4499 99.59 90.1099 99.27 89.6799 99.12C89.3999 99.04 89.1299 98.99 88.8599 98.97C88.5899 98.95 88.3199 98.93 88.0399 98.93V110.31V110.27H89.7499C89.9799 110.27 90.1299 110.21 90.2199 110.08C90.3099 109.95 90.3699 109.81 90.4099 109.64C90.4499 109.48 90.4599 109.3 90.4499 109.13C90.4399 108.95 90.4299 108.81 90.4299 108.71L91.0699 108.75C91.0699 108.88 91.0699 109.07 91.0499 109.34C91.0399 109.61 91.0099 109.84 90.9599 110.04C90.9099 110.37 90.8799 110.6 90.8799 110.74C90.8799 110.88 90.9099 111.05 90.9599 111.25C90.9599 111.38 90.9599 111.52 90.9799 111.67C90.9899 111.82 91.0099 111.97 91.0399 112.12C91.0599 112.3 91.0799 112.49 91.0799 112.69H90.4699C90.4699 112.31 90.4499 111.96 90.4099 111.63C90.3699 111.3 90.1799 111.09 89.8199 110.99H88.0399V123.13C88.4199 123.13 88.7599 123.12 89.0599 123.09C89.3599 123.07 89.6499 123.01 89.9299 122.94C90.3099 122.84 90.6099 122.55 90.8399 122.07C91.0699 121.59 91.2399 121.06 91.3699 120.48C91.4999 119.9 91.5799 119.31 91.6399 118.72C91.6899 118.13 91.7199 117.65 91.7199 117.3H92.3299L92.3499 117.27Z" fill="#F28C28"/>
<path d="M115.93 121.783C115.85 122.113 115.74 122.413 115.59 122.693C115.46 122.923 115.27 123.133 115.02 123.323C114.77 123.513 114.46 123.603 114.11 123.603C113.73 123.603 113.43 123.573 113.2 123.513C112.97 123.453 112.77 123.313 112.59 123.113C112.29 122.763 112.12 122.403 112.1 122.033C112.07 121.663 112.06 121.153 112.06 120.493C112.06 119.833 112.08 119.073 112.12 118.213C112.16 117.353 112.16 116.503 112.14 115.673C112.11 114.843 112.03 114.073 111.89 113.383C111.75 112.683 111.49 112.153 111.11 111.773C110.76 111.423 110.43 111.153 110.12 110.973C109.82 110.793 109.58 110.763 109.4 110.863C109.3 110.913 109.21 110.963 109.13 110.993C109.05 111.033 108.99 111.073 108.94 111.123C108.86 111.173 108.81 111.213 108.79 111.233C108.69 111.283 108.63 111.333 108.6 111.383V122.153C108.6 122.383 108.65 122.543 108.75 122.643C108.85 122.743 108.98 122.813 109.13 122.853C109.28 122.893 109.43 122.903 109.58 122.893C109.73 122.883 109.86 122.873 109.96 122.873V123.513C109.83 123.513 109.58 123.513 109.2 123.533C108.82 123.543 108.53 123.503 108.33 123.403C108.1 123.303 107.84 123.253 107.55 123.253C107.26 123.253 107.01 123.303 106.81 123.403C106.71 123.453 106.57 123.483 106.39 123.493C106.21 123.503 106.04 123.513 105.86 123.513H105.18V122.903C106.01 122.903 106.43 122.653 106.43 122.143V99.4227C106.43 99.3727 106.42 99.3127 106.39 99.2327C106.34 99.0527 106.25 98.9427 106.12 98.8927C106.07 98.8927 106.01 98.8927 105.93 98.8727C105.85 98.8627 105.75 98.8527 105.63 98.8527H105.21V98.4727H110.25C110.71 98.4727 111.14 98.5527 111.56 98.7227C111.98 98.8827 112.34 99.1127 112.66 99.3827C112.98 99.6627 113.24 100.003 113.46 100.403C113.67 100.803 113.79 101.253 113.82 101.733V106.553C113.82 106.603 113.8 106.753 113.76 107.013C113.72 107.263 113.64 107.573 113.51 107.923C113.16 108.913 112.49 109.563 111.5 109.893C111.47 109.893 111.35 109.933 111.12 110.023C110.89 110.113 110.64 110.223 110.36 110.343C110.79 110.423 111.21 110.593 111.61 110.873C112.09 111.203 112.49 111.593 112.8 112.053C113.12 112.513 113.36 112.993 113.54 113.493C113.72 114.003 113.84 114.513 113.92 115.033C114 115.553 114.03 116.033 114.03 116.493V121.953C114.03 122.233 114.09 122.413 114.22 122.503C114.35 122.593 114.45 122.653 114.52 122.673C114.67 122.703 114.8 122.653 114.92 122.543C115.03 122.433 115.13 122.293 115.2 122.143C115.3 121.993 115.39 121.803 115.47 121.573L115.89 121.763L115.93 121.783ZM108.61 110.943C108.81 110.763 109.04 110.623 109.29 110.503C109.54 110.383 109.81 110.273 110.09 110.143C110.19 110.093 110.34 110.033 110.53 109.953C110.72 109.873 110.91 109.743 111.1 109.553C111.29 109.363 111.45 109.083 111.59 108.723C111.73 108.353 111.8 107.853 111.8 107.223V101.153C111.8 100.923 111.79 100.693 111.76 100.473C111.71 100.273 111.65 100.073 111.59 99.8827C111.53 99.6927 111.43 99.5227 111.31 99.3727C111.11 99.1727 110.93 99.0427 110.78 98.9927C110.63 98.9427 110.49 98.9127 110.36 98.9127H108.62V110.933L108.61 110.943Z" fill="#F28C28"/>
<path d="M153.21 122.791C153.51 122.881 153.77 122.921 153.97 122.921V123.571C153.84 123.571 153.62 123.571 153.31 123.591C152.99 123.601 152.73 123.561 152.53 123.461C152.3 123.331 152.04 123.281 151.75 123.291C151.46 123.301 151.21 123.351 151.01 123.421C150.91 123.471 150.79 123.501 150.67 123.511C150.54 123.521 150.42 123.531 150.29 123.531H149.84V122.961C150.29 122.961 150.55 122.871 150.62 122.691C150.68 122.511 150.71 122.291 150.71 122.011V104.261L147.94 123.411C147.94 123.411 147.93 123.451 147.9 123.451H147.86C147.86 123.451 147.82 123.441 147.82 123.411L144.71 104.301V121.781C144.71 122.341 144.9 122.671 145.28 122.771C145.66 122.871 146.08 122.921 146.53 122.921V123.531H146.04C145.91 123.531 145.77 123.531 145.62 123.511C145.47 123.501 145.34 123.471 145.24 123.421C145.04 123.321 144.78 123.271 144.48 123.271C144.18 123.271 143.91 123.331 143.68 123.461C143.48 123.561 143.2 123.601 142.85 123.571C142.5 123.541 142.26 123.531 142.13 123.531V122.891C142.33 122.891 142.54 122.891 142.76 122.911C142.97 122.921 143.16 122.901 143.33 122.831C143.49 122.771 143.63 122.661 143.75 122.511C143.86 122.361 143.92 122.111 143.92 121.751V101.041C143.92 100.281 143.85 99.7809 143.71 99.5209C143.57 99.2709 143.24 99.1409 142.7 99.1409C142.7 99.0909 142.71 98.9909 142.74 98.8409C142.76 98.6909 142.76 98.5709 142.74 98.5009L145.89 98.4609L148.32 115.181L150.79 98.4909H153.86C153.88 98.5409 153.9 98.5909 153.9 98.6409V99.1309C153.39 99.1309 153.08 99.2409 152.95 99.4509C152.82 99.6609 152.76 100.161 152.76 100.951V122.001C152.76 122.431 152.91 122.691 153.22 122.781L153.21 122.791Z" fill="#F28C28"/>
<path d="M176.61 122.812C176.51 122.962 176.39 123.092 176.27 123.192C176.14 123.292 175.98 123.392 175.78 123.472C175.58 123.562 175.32 123.622 175.02 123.642C174.36 123.692 173.84 123.562 173.45 123.262C173.06 122.962 172.86 122.512 172.86 121.932V110.972H169.64V121.972C169.64 122.402 169.75 122.662 169.96 122.752C170.17 122.842 170.37 122.882 170.55 122.882V123.522C170.42 123.522 170.25 123.522 170.02 123.542C169.79 123.552 169.58 123.512 169.38 123.412C169.15 123.312 168.9 123.262 168.62 123.262C168.34 123.262 168.1 123.312 167.9 123.412C167.8 123.462 167.68 123.492 167.56 123.502C167.43 123.512 167.31 123.522 167.18 123.522H166.73V122.912C167.18 122.912 167.44 122.822 167.49 122.642C167.54 122.462 167.57 122.242 167.57 121.962V101.862C167.62 101.512 167.7 101.152 167.8 100.802C167.9 100.502 168.05 100.182 168.25 99.852C168.45 99.522 168.74 99.222 169.12 98.942C169.6 98.562 170.22 98.362 170.98 98.332H171.61C171.82 98.332 172.05 98.362 172.27 98.412C173 98.562 173.62 98.932 174.13 99.532C174.64 100.122 174.91 100.802 174.96 101.562V122.152C174.93 122.302 174.95 122.432 175 122.532C175.05 122.632 175.11 122.732 175.19 122.812C175.27 122.902 175.38 122.962 175.53 122.982C175.81 123.012 176.01 122.932 176.14 122.752C176.22 122.652 176.28 122.552 176.33 122.452L176.63 122.792L176.61 122.812ZM172.86 110.262V100.362C172.83 100.232 172.78 100.062 172.71 99.852C172.63 99.642 172.51 99.432 172.33 99.222C172 98.942 171.65 98.792 171.27 98.772C170.89 98.752 170.5 98.882 170.09 99.192C169.96 99.322 169.86 99.492 169.77 99.702C169.68 99.922 169.64 100.122 169.64 100.332V110.272H172.86V110.262Z" fill="#F28C28"/>
<path d="M199.18 121.783C199.1 122.113 198.99 122.413 198.84 122.693C198.71 122.923 198.52 123.133 198.27 123.323C198.02 123.513 197.71 123.603 197.36 123.603C196.98 123.603 196.68 123.573 196.45 123.513C196.22 123.453 196.02 123.313 195.84 123.113C195.54 122.763 195.37 122.403 195.35 122.033C195.32 121.663 195.31 121.153 195.31 120.493C195.31 119.833 195.33 119.073 195.37 118.213C195.41 117.353 195.41 116.503 195.39 115.673C195.36 114.843 195.28 114.073 195.14 113.383C195 112.683 194.74 112.153 194.36 111.773C194.01 111.423 193.68 111.153 193.37 110.973C193.07 110.793 192.83 110.763 192.65 110.863C192.55 110.913 192.46 110.963 192.38 110.993C192.3 111.033 192.24 111.073 192.19 111.123C192.11 111.173 192.06 111.213 192.04 111.233C191.94 111.283 191.88 111.333 191.85 111.383V122.153C191.85 122.383 191.9 122.543 192 122.643C192.1 122.743 192.23 122.813 192.38 122.853C192.53 122.893 192.68 122.903 192.83 122.893C192.98 122.883 193.11 122.873 193.21 122.873V123.513C193.08 123.513 192.83 123.513 192.45 123.533C192.07 123.543 191.78 123.503 191.58 123.403C191.35 123.303 191.09 123.253 190.8 123.253C190.51 123.253 190.26 123.303 190.06 123.403C189.96 123.453 189.82 123.483 189.64 123.493C189.46 123.503 189.29 123.513 189.11 123.513H188.43V122.903C189.26 122.903 189.68 122.653 189.68 122.143V99.4227C189.68 99.3727 189.67 99.3127 189.64 99.2327C189.59 99.0527 189.5 98.9427 189.37 98.8927C189.32 98.8927 189.26 98.8927 189.18 98.8727C189.1 98.8627 189 98.8527 188.88 98.8527H188.46V98.4727H193.5C193.96 98.4727 194.39 98.5527 194.81 98.7227C195.23 98.8827 195.59 99.1127 195.91 99.3827C196.23 99.6627 196.49 100.003 196.71 100.403C196.92 100.803 197.04 101.253 197.07 101.733V106.553C197.07 106.603 197.05 106.753 197.01 107.013C196.97 107.263 196.89 107.573 196.76 107.923C196.41 108.913 195.74 109.563 194.75 109.893C194.72 109.893 194.6 109.933 194.37 110.023C194.14 110.113 193.89 110.223 193.61 110.343C194.04 110.423 194.46 110.593 194.86 110.873C195.34 111.203 195.74 111.593 196.05 112.053C196.37 112.513 196.61 112.993 196.79 113.493C196.97 114.003 197.09 114.513 197.17 115.033C197.25 115.553 197.28 116.033 197.28 116.493V121.953C197.28 122.233 197.34 122.413 197.47 122.503C197.6 122.593 197.7 122.653 197.77 122.673C197.92 122.703 198.05 122.653 198.17 122.543C198.28 122.433 198.38 122.293 198.45 122.143C198.55 121.993 198.64 121.803 198.72 121.573L199.14 121.763L199.18 121.783ZM191.86 110.943C192.06 110.763 192.29 110.623 192.54 110.503C192.79 110.393 193.06 110.273 193.34 110.143C193.44 110.093 193.59 110.033 193.78 109.953C193.97 109.873 194.16 109.743 194.35 109.553C194.54 109.363 194.7 109.083 194.84 108.723C194.98 108.353 195.05 107.853 195.05 107.223V101.153C195.05 100.923 195.04 100.693 195.01 100.473C194.96 100.273 194.9 100.073 194.84 99.8827C194.78 99.6927 194.68 99.5227 194.56 99.3727C194.36 99.1727 194.18 99.0427 194.03 98.9927C193.88 98.9427 193.74 98.9127 193.61 98.9127H191.87V110.933L191.86 110.943Z" fill="#F28C28"/>
<path d="M215.71 109.002C216.49 111.452 217.21 113.652 217.87 115.602L220.07 122.202C220.17 122.452 220.32 122.602 220.52 122.652C220.67 122.682 220.8 122.632 220.92 122.522C221.03 122.412 221.13 122.292 221.2 122.162C221.3 122.012 221.39 121.822 221.47 121.592L221.89 121.782C221.81 122.112 221.7 122.412 221.55 122.692C221.42 122.922 221.24 123.122 221 123.302C220.76 123.482 220.45 123.572 220.07 123.572C219.69 123.572 219.34 123.522 219.01 123.422C218.68 123.322 218.37 122.952 218.06 122.322C218.03 122.272 217.94 122.002 217.78 121.522C217.62 121.042 217.42 120.452 217.19 119.742C216.96 119.032 216.71 118.262 216.43 117.432C216.15 116.602 215.89 115.812 215.65 115.062C215.41 114.312 215.2 113.662 215.02 113.112C214.84 112.552 214.73 112.192 214.68 112.012L214.26 113.492V121.982C214.26 122.412 214.36 122.672 214.56 122.762C214.76 122.852 214.96 122.892 215.17 122.892V123.462C215.04 123.462 214.87 123.482 214.64 123.522C214.41 123.562 214.2 123.522 213.99 123.432C213.76 123.332 213.51 123.282 213.23 123.282C212.95 123.282 212.71 123.332 212.51 123.432C212.41 123.482 212.29 123.512 212.15 123.522C212.01 123.532 211.88 123.542 211.75 123.542H211.29V122.932C211.72 122.932 211.96 122.842 212.01 122.662C212.06 122.482 212.09 122.262 212.09 121.982V99.4916C212.09 99.4416 212.08 99.3816 212.05 99.3016C212 99.1216 211.91 99.0116 211.78 98.9616C211.73 98.9616 211.66 98.9616 211.57 98.9416C211.48 98.9316 211.37 98.9216 211.25 98.9216H210.83V98.3916C210.96 98.3616 211.1 98.3516 211.25 98.3516H212.2C212.3 98.3816 212.46 98.4116 212.67 98.4616C212.88 98.5116 213.08 98.5416 213.26 98.5416C213.44 98.5416 213.59 98.5216 213.73 98.4616C213.87 98.4116 214.04 98.3716 214.24 98.3516H215.15C215.3 98.3516 215.44 98.3616 215.57 98.3916V98.9616H215.02C214.86 98.9616 214.72 98.9916 214.62 99.0416C214.39 99.1416 214.28 99.3716 214.28 99.7216V110.872L217.47 99.3416C217.49 99.2116 217.47 99.1316 217.39 99.0716C217.31 99.0216 217.22 98.9916 217.11 98.9816C217 98.9716 216.87 98.9716 216.73 98.9816C216.59 98.9916 216.48 99.0016 216.41 99.0016L216.37 98.3916C216.5 98.3916 216.67 98.3916 216.88 98.3716C217.09 98.3616 217.3 98.3916 217.51 98.4616C217.71 98.5616 217.94 98.6116 218.19 98.6116C218.44 98.6116 218.67 98.5716 218.87 98.5016C219.02 98.4216 219.24 98.3916 219.52 98.3916H219.94V98.9616C219.56 98.9616 219.24 98.9716 218.97 99.0016C218.7 99.0316 218.46 99.2416 218.23 99.6416L215.69 109.012L215.71 109.002Z" fill="#F28C28"/>
<path d="M239.75 117.27V123.53H232.05V123.15C232.25 123.18 232.5 123.18 232.79 123.15C233.08 123.13 233.25 122.95 233.3 122.62V99.49C233.3 99.16 233.17 98.98 232.92 98.94C232.67 98.9 232.38 98.88 232.05 98.88V98.5H239.48V104.76C239.35 104.79 239.15 104.8 238.87 104.8C238.87 104.45 238.86 103.98 238.83 103.4C238.8 102.82 238.73 102.24 238.62 101.66C238.51 101.08 238.33 100.55 238.09 100.07C237.85 99.59 237.51 99.27 237.08 99.12C236.8 99.04 236.53 98.99 236.26 98.97C235.99 98.95 235.72 98.93 235.44 98.93V110.31V110.27H237.15C237.38 110.27 237.53 110.21 237.62 110.08C237.71 109.95 237.77 109.81 237.81 109.64C237.85 109.48 237.86 109.3 237.85 109.13C237.84 108.95 237.83 108.81 237.83 108.71L238.47 108.75C238.47 108.88 238.47 109.07 238.45 109.34C238.44 109.61 238.41 109.84 238.36 110.04C238.31 110.37 238.28 110.6 238.28 110.74C238.28 110.88 238.31 111.05 238.36 111.25C238.36 111.38 238.36 111.52 238.38 111.67C238.39 111.82 238.41 111.97 238.44 112.12C238.46 112.3 238.48 112.49 238.48 112.69H237.87C237.87 112.31 237.85 111.96 237.81 111.63C237.77 111.3 237.58 111.09 237.22 110.99H235.44V123.13C235.82 123.13 236.16 123.12 236.46 123.09C236.76 123.07 237.05 123.01 237.33 122.94C237.71 122.84 238.01 122.55 238.24 122.07C238.47 121.59 238.64 121.06 238.77 120.48C238.9 119.9 238.98 119.31 239.04 118.72C239.09 118.13 239.12 117.65 239.12 117.3H239.73L239.75 117.27Z" fill="#F28C28"/>
<path d="M262.32 104.76H261.79C261.81 104 261.77 103.24 261.66 102.47C261.55 101.7 261.41 101.12 261.26 100.74C261.21 100.56 261.07 100.29 260.84 99.92C260.61 99.55 260.33 99.28 260.01 99.1C259.88 99.05 259.74 99.01 259.59 98.99C259.44 98.97 259.29 98.94 259.14 98.91H258.61V104.26C258.61 106.06 258.61 107.9 258.59 109.8C258.58 111.7 258.57 113.66 258.57 115.7V122.13C258.57 122.36 258.63 122.52 258.74 122.62C258.85 122.72 258.99 122.79 259.14 122.83C259.29 122.87 259.45 122.88 259.61 122.87C259.77 122.86 259.91 122.85 260.01 122.85V123.53C259.86 123.53 259.59 123.53 259.21 123.55C258.83 123.56 258.54 123.52 258.34 123.42C258.11 123.29 257.86 123.24 257.58 123.25C257.3 123.26 257.06 123.31 256.86 123.38C256.73 123.43 256.59 123.46 256.42 123.47C256.26 123.48 256.07 123.49 255.87 123.49H255.19V122.92C256.05 122.92 256.48 122.65 256.48 122.12V114.86C256.48 112.75 256.48 110.89 256.46 109.28C256.45 107.67 256.44 106.3 256.44 105.17V98.91H255.91C255.76 98.94 255.61 98.96 255.46 98.99C255.31 99.02 255.18 99.05 255.08 99.1C254.73 99.28 254.44 99.55 254.23 99.92C254.01 100.29 253.87 100.56 253.79 100.74C253.64 101.12 253.51 101.69 253.39 102.47C253.28 103.24 253.24 104.01 253.3 104.76H252.73H252.77H252.66V98.5H262.41V104.76H262.33H262.32Z" fill="#F28C28"/>
<path d="M57.72 41.3491C57.95 41.7991 58.1 42.4291 58.17 43.2191C58.24 44.0091 58.28 44.5591 58.28 44.8591V66.2691C58.13 67.3291 57.9 68.3791 57.6 69.4391C57.3 70.3491 56.84 71.2891 56.24 72.2691C55.64 73.2491 54.8 74.1191 53.75 74.8691C52.99 75.3991 52.13 75.8291 51.15 76.1691C50.17 76.5091 49.04 76.6791 47.75 76.6791H47.41C46.81 76.6791 46.15 76.5991 45.43 76.4491C44.71 76.2991 44.05 76.0291 43.45 75.6591C42.84 75.2791 42.32 74.7891 41.86 74.1891C41.41 73.5891 40.95 72.7591 40.5 71.6991C40.27 72.2291 40.06 72.6391 39.88 72.9491C39.69 73.2491 39.6 73.4391 39.6 73.5191C39.3 73.8991 38.86 74.2591 38.3 74.5991C37.73 74.9391 37.15 75.1891 36.54 75.3391C36.16 75.4091 35.78 75.4491 35.41 75.4491H34.28C33.9 75.4491 33.49 75.4091 33.03 75.3391V73.5291C34.31 73.5291 35.03 73.2891 35.18 72.7891C35.33 72.2991 35.41 71.6391 35.41 70.8091V10.4391C35.56 9.37911 35.79 8.32911 36.09 7.26911C36.39 6.35911 36.84 5.43911 37.45 4.49911C38.05 3.55911 38.88 2.66911 39.94 1.83911C41.45 0.859115 43.04 0.269115 44.7 0.0791146C46.36 -0.110885 47.96 0.0591146 49.51 0.589115C51.06 1.11911 52.47 1.94911 53.76 3.07911C55.04 4.20911 56.03 5.64911 56.7 7.37911C56.85 7.90911 56.98 8.60911 57.1 9.47911C57.21 10.3491 57.27 10.9291 57.27 11.2391V24.5991C57.27 26.7091 56.65 28.7491 55.4 30.7191C54.15 32.6791 52.44 33.9991 50.25 34.6791C50.1 34.7591 49.98 34.7891 49.91 34.7891C49.84 34.7891 49.72 34.8291 49.57 34.8991C52.21 35.1991 54.14 35.9991 55.35 37.2791C56.56 38.5591 57.35 39.9191 57.73 41.3591L57.72 41.3491ZM41.63 37.7291C42.23 37.1991 42.88 36.7491 43.56 36.3691C44.24 35.9891 44.99 35.6191 45.83 35.2391C46.13 35.0891 46.58 34.9191 47.19 34.7291C47.79 34.5391 48.36 34.1591 48.89 33.5991C49.42 33.0291 49.89 32.1991 50.31 31.1091C50.72 30.0191 50.93 28.5191 50.93 26.6391V7.94911C50.93 7.26911 50.87 6.54911 50.76 5.79911C50.65 5.04911 50.44 4.32911 50.14 3.64911C49.84 2.96911 49.4 2.39911 48.84 1.94911C48.27 1.49911 47.54 1.26911 46.63 1.26911C46.25 1.26911 45.7 1.32911 44.99 1.43911C44.27 1.54911 43.61 1.90911 43.01 2.51911C42.1 3.64911 41.65 5.27911 41.65 7.38911V37.7391L41.63 37.7291ZM50.92 74.1991C51.83 73.2891 52.28 71.6691 52.28 69.3291V41.8091C52.13 41.4291 52.01 40.7691 51.94 39.8291C51.86 38.8891 51.45 38.0391 50.69 37.2791C50.08 36.6791 49.54 36.2991 49.05 36.1491C48.56 35.9991 48.12 35.9191 47.75 35.9191C47.3 35.9191 46.88 35.9791 46.5 36.0891C46.12 36.1991 45.63 36.4491 45.03 36.8291C43.97 37.3591 42.99 37.9591 42.09 38.6391C42.01 38.7191 41.94 38.7691 41.86 38.8091C41.78 38.8491 41.71 38.9091 41.63 38.9791V68.9891C41.7 69.8991 41.78 70.6891 41.86 71.3691C41.93 72.0491 42.16 72.6891 42.54 73.2991C42.99 73.9791 43.48 74.4691 44.01 74.7691C45.14 75.4491 46.31 75.7291 47.52 75.6191C48.73 75.5091 49.86 75.0391 50.92 74.1991Z" fill="#F28C28"/>
<path d="M69.69 8.17923C70.34 7.16923 71.39 4.49923 71.93 3.47923C72.45 2.50923 72.74 1.54923 74.03 0.48923C74.63 -0.0407696 75.09 -0.11077 75.39 0.25923C75.69 0.63923 75.84 1.04923 75.84 1.50923V70.9292C75.84 72.2092 76.14 72.9892 76.75 73.2492C77.35 73.5192 77.96 73.6492 78.56 73.6492V75.5792C78.18 75.5792 77.65 75.5992 76.97 75.6392C76.29 75.6792 75.65 75.5492 75.04 75.2392C74.36 74.9392 73.62 74.7892 72.83 74.7892C72.04 74.7892 71.34 74.9392 70.73 75.2392C70.43 75.3892 70.09 75.4892 69.71 75.5192C69.33 75.5592 68.95 75.5792 68.58 75.5792H67.22V73.7692C68.5 73.7692 69.22 73.5092 69.37 72.9792C69.52 72.4492 69.6 71.7692 69.6 70.9392V68.6692L70.15 10.0892C70.15 9.80923 70.02 9.14923 69.76 9.51923" fill="#F28C28"/>
<path d="M102.79 51.46C101.96 51.91 101.2 52.25 100.52 52.48C99.84 52.71 99.42 52.86 99.27 52.93L97.57 53.27C96.97 53.42 96.34 53.59 95.7 53.78C95.06 53.97 94.47 54.18 93.94 54.4L93.26 54.74C92.81 55.04 92.41 55.33 92.07 55.59C91.73 55.86 91.48 56.18 91.33 56.55C91.25 56.63 91.22 56.74 91.22 56.89V67.88C91.22 69.62 91.65 70.99 92.52 72.01C93.39 73.03 94.43 73.61 95.63 73.77C97.97 73.92 99.82 73.34 101.18 72.01C102.54 70.69 103.48 69.2 104.01 67.54C104.08 67.16 104.18 66.77 104.29 66.35C104.4 65.94 104.5 65.54 104.57 65.16C104.64 64.71 104.72 64.25 104.8 63.8C104.95 63.73 105.27 63.71 105.76 63.74C106.25 63.78 106.57 63.8 106.72 63.8C106.64 64.33 106.57 64.9 106.49 65.5C106.34 66.03 106.21 66.61 106.09 67.26C105.98 67.9 105.81 68.53 105.58 69.13C104.75 71.39 103.5 73.15 101.84 74.4C100.18 75.65 98.29 76.27 96.18 76.27H95.73C94.07 76.27 92.67 76.02 91.54 75.53C90.41 75.04 89.44 74.44 88.65 73.72C87.86 73 87.21 72.23 86.73 71.4C86.24 70.57 85.88 69.78 85.65 69.02C85.5 68.79 85.4 68.42 85.37 67.89C85.33 67.36 85.27 66.83 85.2 66.3C85.12 65.7 85.09 65.05 85.09 64.37V42.06C85.24 41 85.47 39.95 85.77 38.89C86.07 38.06 86.52 37.15 87.13 36.17C87.73 35.19 88.56 34.32 89.62 33.56C91.21 32.35 93.21 31.75 95.62 31.75H96.07C97.73 31.75 99.18 32.02 100.43 32.54C101.68 33.07 102.73 33.71 103.6 34.47C104.47 35.23 105.17 36.08 105.7 37.02C106.23 37.96 106.57 38.81 106.72 39.57C107.4 42.21 107.42 44.42 106.78 46.2C106.14 47.97 105.51 49.16 104.91 49.77C104.31 50.38 103.89 50.75 103.66 50.9C103.43 51.05 103.13 51.24 102.75 51.47L102.79 51.46ZM91.24 54.86C91.62 54.33 92.16 53.88 92.88 53.5C93.6 53.12 94.35 52.75 95.14 52.37C95.93 51.99 96.74 51.56 97.57 51.07C98.4 50.58 99.16 49.96 99.84 49.2C100.37 48.52 100.76 47.71 101.03 46.77C101.29 45.83 101.46 44.84 101.54 43.83C101.61 42.81 101.6 41.81 101.48 40.83C101.37 39.85 101.27 38.94 101.2 38.11C101.12 37.73 100.92 37.19 100.58 36.47C100.24 35.75 99.77 35.05 99.16 34.37C98.78 33.92 98.29 33.56 97.69 33.29C97.08 33.03 96.59 32.89 96.22 32.89C95.85 32.89 95.29 32.97 94.58 33.12C93.86 33.27 93.2 33.65 92.6 34.25C91.99 34.93 91.58 35.87 91.35 37.08C91.27 37.38 91.24 37.69 91.24 37.99V54.87V54.86Z" fill="#F28C28"/>
<path d="M133.82 60.9694C133.97 61.8794 134.03 62.9294 133.99 64.1394C133.95 65.3494 133.78 66.5394 133.48 67.7094C133.18 68.8794 132.72 70.0294 132.12 71.1594C131.51 72.2894 130.68 73.2394 129.63 73.9894C128.5 74.8194 127.35 75.4294 126.18 75.7994C125.01 76.1794 123.9 76.3694 122.84 76.3694C121.55 76.3694 120.44 76.1794 119.5 75.7994C118.56 75.4194 117.67 75.0494 116.84 74.6694C116.54 74.5194 116.16 74.3294 115.71 74.0994C115.26 73.8694 114.8 73.8694 114.35 74.0994C114.05 74.2494 113.82 74.5894 113.67 75.1194C113.59 75.3494 113.59 75.5394 113.67 75.6894H112.08L111.97 63.6894H114.12C114.19 64.6694 114.38 65.7894 114.69 67.0294C114.99 68.2794 115.44 69.3094 116.05 70.1394C116.58 70.8994 117.41 71.7994 118.54 72.8594C119.67 73.9194 121.07 74.4794 122.73 74.5594C124.84 74.5594 126.41 73.8194 127.43 72.3494C128.45 70.8794 129.03 69.4194 129.19 67.9894C129.34 66.2494 129.13 64.7594 128.57 63.5194C128 62.2694 127.3 61.1194 126.47 60.0694C126.09 59.6194 125.53 59.0694 124.77 58.4294C124.01 57.7894 123.22 57.1694 122.39 56.5594C121.56 55.9594 120.79 55.4094 120.07 54.9194C119.35 54.4294 118.88 54.1094 118.65 53.9594C117.82 53.3594 116.99 52.7094 116.16 52.0294C115.48 51.4294 114.82 50.7694 114.18 50.0494C113.54 49.3294 113.03 48.5594 112.65 47.7294C112.5 47.3494 112.31 46.6494 112.08 45.6294C111.85 44.6094 111.74 43.4794 111.74 42.2294C111.74 40.9794 111.93 39.6994 112.31 38.3794C112.69 37.0594 113.44 35.8294 114.57 34.6994C116.76 32.5094 119.29 31.4894 122.16 31.6394C123.52 31.7194 124.63 31.8894 125.5 32.1494C126.37 32.4194 127.14 32.7394 127.82 33.1094C128.05 33.2594 128.37 33.4294 128.78 33.6194C129.19 33.8094 129.59 33.7194 129.97 33.3394C130.27 33.0394 130.42 32.6994 130.42 32.3194V31.7494C130.57 31.8294 130.76 31.8594 130.99 31.8594C131.14 31.8594 131.29 31.8794 131.44 31.9194C131.59 31.9594 131.7 31.9794 131.78 31.9794V45.1194H129.63C129.63 43.7594 129.53 42.4194 129.35 41.0994C129.16 39.7794 128.54 38.3294 127.48 36.7394C126.88 35.9094 126.06 35.1194 125.05 34.3594C124.03 33.6094 122.88 33.2694 121.6 33.3394C120.16 33.3394 119.01 33.5494 118.15 33.9594C117.28 34.3794 116.6 34.8894 116.11 35.4894C115.62 36.0994 115.3 36.7194 115.15 37.3594C115 37.9994 114.96 38.5494 115.04 38.9994C115.27 40.3594 115.89 41.6794 116.91 42.9594C117.93 44.2394 119.61 45.6794 121.95 47.2594C122.33 47.4894 122.93 47.8794 123.76 48.4494C124.59 49.0194 125.46 49.6194 126.37 50.2594C127.28 50.8994 128.14 51.5594 128.97 52.2394C129.8 52.9194 130.4 53.5194 130.78 54.0494C131.84 55.5594 132.57 56.7894 132.99 57.7294C133.4 58.6694 133.69 59.7494 133.84 60.9594L133.82 60.9694Z" fill="#F28C28"/>
<path d="M161.79 60.9694C161.94 61.8794 162 62.9294 161.96 64.1394C161.92 65.3494 161.75 66.5394 161.45 67.7094C161.15 68.8794 160.69 70.0294 160.09 71.1594C159.48 72.2894 158.65 73.2394 157.6 73.9894C156.47 74.8194 155.32 75.4294 154.15 75.7994C152.98 76.1794 151.87 76.3694 150.81 76.3694C149.52 76.3694 148.41 76.1794 147.47 75.7994C146.53 75.4194 145.64 75.0494 144.81 74.6694C144.51 74.5194 144.13 74.3294 143.68 74.0994C143.23 73.8694 142.77 73.8694 142.32 74.0994C142.02 74.2494 141.79 74.5894 141.64 75.1194C141.56 75.3494 141.56 75.5394 141.64 75.6894H140.05L139.94 63.6894H142.09C142.16 64.6694 142.35 65.7894 142.66 67.0294C142.96 68.2794 143.41 69.3094 144.02 70.1394C144.55 70.8994 145.38 71.7994 146.51 72.8594C147.64 73.9194 149.04 74.4794 150.7 74.5594C152.81 74.5594 154.38 73.8194 155.4 72.3494C156.42 70.8794 157 69.4194 157.16 67.9894C157.31 66.2494 157.1 64.7594 156.54 63.5194C155.97 62.2694 155.27 61.1194 154.44 60.0694C154.06 59.6194 153.5 59.0694 152.74 58.4294C151.98 57.7894 151.19 57.1694 150.36 56.5594C149.53 55.9594 148.76 55.4094 148.04 54.9194C147.32 54.4294 146.85 54.1094 146.62 53.9594C145.79 53.3594 144.96 52.7094 144.13 52.0294C143.45 51.4294 142.79 50.7694 142.15 50.0494C141.51 49.3294 141 48.5594 140.62 47.7294C140.47 47.3494 140.28 46.6494 140.05 45.6294C139.82 44.6094 139.71 43.4794 139.71 42.2294C139.71 40.9794 139.9 39.6994 140.28 38.3794C140.66 37.0594 141.41 35.8294 142.54 34.6994C144.73 32.5094 147.26 31.4894 150.13 31.6394C151.49 31.7194 152.6 31.8894 153.47 32.1494C154.34 32.4194 155.11 32.7394 155.79 33.1094C156.02 33.2594 156.34 33.4294 156.75 33.6194C157.16 33.8094 157.56 33.7194 157.94 33.3394C158.24 33.0394 158.39 32.6994 158.39 32.3194V31.7494C158.54 31.8294 158.73 31.8594 158.96 31.8594C159.11 31.8594 159.26 31.8794 159.41 31.9194C159.56 31.9594 159.67 31.9794 159.75 31.9794V45.1194H157.6C157.6 43.7594 157.5 42.4194 157.32 41.0994C157.13 39.7794 156.51 38.3294 155.45 36.7394C154.85 35.9094 154.03 35.1194 153.02 34.3594C152 33.6094 150.85 33.2694 149.57 33.3394C148.13 33.3394 146.98 33.5494 146.12 33.9594C145.25 34.3794 144.57 34.8894 144.08 35.4894C143.59 36.0994 143.27 36.7194 143.12 37.3594C142.97 37.9994 142.93 38.5494 143.01 38.9994C143.24 40.3594 143.86 41.6794 144.88 42.9594C145.9 44.2394 147.58 45.6794 149.92 47.2594C150.3 47.4894 150.9 47.8794 151.73 48.4494C152.56 49.0194 153.43 49.6194 154.33 50.2594C155.24 50.8994 156.1 51.5594 156.94 52.2394C157.77 52.9194 158.37 53.5194 158.75 54.0494C159.81 55.5594 160.54 56.7894 160.96 57.7294C161.37 58.6694 161.66 59.7494 161.81 60.9594L161.79 60.9694Z" fill="#F28C28"/>
<path d="M185.01 51.46C184.18 51.91 183.42 52.25 182.74 52.48C182.06 52.71 181.64 52.86 181.49 52.93L179.79 53.27C179.18 53.42 178.56 53.59 177.92 53.78C177.28 53.97 176.69 54.18 176.16 54.4L175.48 54.74C175.03 55.04 174.63 55.33 174.29 55.59C173.95 55.86 173.7 56.18 173.55 56.55C173.47 56.63 173.44 56.74 173.44 56.89V67.88C173.44 69.62 173.87 70.99 174.74 72.01C175.61 73.03 176.65 73.61 177.85 73.77C180.19 73.92 182.04 73.34 183.4 72.01C184.76 70.69 185.7 69.2 186.23 67.54C186.3 67.16 186.4 66.77 186.51 66.35C186.62 65.94 186.72 65.54 186.79 65.16C186.86 64.71 186.94 64.25 187.02 63.8C187.17 63.73 187.49 63.71 187.98 63.74C188.47 63.78 188.79 63.8 188.94 63.8C188.86 64.33 188.79 64.9 188.71 65.5C188.56 66.03 188.43 66.61 188.31 67.26C188.2 67.9 188.03 68.53 187.8 69.13C186.97 71.39 185.72 73.15 184.06 74.4C182.4 75.65 180.51 76.27 178.4 76.27H177.95C176.29 76.27 174.89 76.02 173.76 75.53C172.63 75.04 171.66 74.44 170.87 73.72C170.08 73 169.43 72.23 168.95 71.4C168.46 70.57 168.1 69.78 167.87 69.02C167.72 68.79 167.62 68.42 167.59 67.89C167.55 67.36 167.49 66.83 167.42 66.3C167.34 65.7 167.31 65.05 167.31 64.37V42.06C167.46 41 167.69 39.95 167.99 38.89C168.29 38.06 168.74 37.15 169.35 36.17C169.95 35.19 170.78 34.32 171.84 33.56C173.43 32.35 175.43 31.75 177.84 31.75H178.29C179.95 31.75 181.4 32.02 182.65 32.54C183.9 33.07 184.95 33.71 185.82 34.47C186.69 35.23 187.39 36.08 187.92 37.02C188.45 37.96 188.79 38.81 188.94 39.57C189.62 42.21 189.64 44.42 189 46.2C188.36 47.97 187.73 49.16 187.13 49.77C186.53 50.37 186.11 50.75 185.88 50.9C185.65 51.05 185.35 51.24 184.97 51.47L185.01 51.46ZM173.46 54.86C173.84 54.33 174.38 53.88 175.1 53.5C175.82 53.12 176.57 52.75 177.36 52.37C178.15 51.99 178.96 51.56 179.79 51.07C180.62 50.58 181.38 49.96 182.06 49.2C182.59 48.52 182.98 47.71 183.25 46.77C183.51 45.83 183.68 44.84 183.76 43.83C183.83 42.81 183.82 41.81 183.7 40.83C183.59 39.85 183.49 38.94 183.42 38.11C183.34 37.73 183.14 37.19 182.8 36.47C182.46 35.75 181.99 35.05 181.38 34.37C181 33.92 180.51 33.56 179.91 33.29C179.3 33.03 178.81 32.89 178.44 32.89C178.07 32.89 177.51 32.97 176.8 33.12C176.08 33.27 175.42 33.65 174.82 34.25C174.21 34.93 173.8 35.87 173.57 37.08C173.49 37.38 173.46 37.69 173.46 37.99V54.87V54.86Z" fill="#F28C28"/>
<path d="M72.93 1.67872C69.01 8.98872 65.63 16.7487 60.66 23.4387C58.11 26.8687 55.08 29.9287 51.56 32.3687C48.08 34.7787 44.13 36.2587 40.54 38.4887C34.21 42.4287 26.66 44.3287 19.67 46.7287C13.81 48.7387 8.59 50.8787 4.49 55.7587C-0.339996 61.5087 -0.209996 70.7387 6.19 75.1587C6.63 75.4687 7.05 74.7387 6.61 74.4387C1.93 71.2087 1.12 65.9387 2.7 60.7487C3.72 57.3987 6.1 55.0587 8.73 52.8687C13.58 48.8287 20.37 47.3787 26.24 45.3887C29.42 44.3087 32.6 43.2087 35.69 41.8887C38.58 40.6487 41.08 38.9487 43.82 37.4587C47.3 35.5687 50.74 34.1587 53.9 31.6687C56.46 29.6487 58.73 27.2987 60.73 24.7287C66.07 17.8587 69.56 9.71872 73.66 2.09872C73.91 1.62872 73.19 1.19872 72.94 1.67872H72.93Z" fill="#F28C28"/>
<path d="M3.87998 71.8094C5.32998 73.9094 7.93998 75.5394 10.54 75.8694C11.19 75.9894 11.84 75.9994 12.48 75.8994C13.12 75.7994 13.61 75.3894 13.94 74.6594C14.2 74.0694 14.29 73.4194 14.19 72.7094C14.09 71.9894 13.99 71.3194 13.89 70.6694C13.72 70.0994 13.65 69.6194 13.67 69.2194C13.69 68.8194 13.87 68.3994 14.21 67.9594C14.96 67.0694 15.85 66.6394 16.85 66.6694C17.86 66.7694 18.67 67.2594 19.28 68.1394C19.89 69.0094 20.11 69.9594 19.93 70.9694C19.68 72.0594 19.17 73.0494 18.38 73.9394C17.59 74.8294 16.7 75.5194 15.71 75.9894C14.09 76.8394 12.34 77.1294 10.46 76.8394C7.63998 76.3794 5.38998 75.0294 3.72998 72.7894" fill="#F28C28"/>
</g>
<defs>
<clipPath id="clip0_226_3340">
<rect width="262.39" height="123.68" fill="white"/>
</clipPath>
</defs>
</svg>
