<svg width="206" height="27" viewBox="0 0 206 27" fill="none" xmlns="http://www.w3.org/2000/svg">
<path d="M19.7421 14.4598C19.8221 14.6185 19.8754 14.8345 19.9021 15.1077C19.9288 15.381 19.9421 15.575 19.9421 15.6763V23.1034C19.8888 23.4692 19.8088 23.8351 19.7066 24.2053C19.5999 24.5183 19.4444 24.8488 19.2311 25.1882C19.0178 25.5276 18.7289 25.8318 18.3601 26.0918C18.0979 26.2769 17.7913 26.4268 17.4491 26.5458C17.107 26.6648 16.7115 26.7221 16.2626 26.7221H16.1426C15.9293 26.7221 15.6983 26.6957 15.4494 26.6428C15.1961 26.5899 14.9695 26.4973 14.7562 26.3695C14.5429 26.2373 14.3607 26.0698 14.2007 25.8582C14.0407 25.651 13.8852 25.3601 13.7252 24.9943C13.6452 25.1794 13.5741 25.3205 13.5075 25.4262C13.4408 25.532 13.4097 25.5981 13.4097 25.6246C13.3031 25.7568 13.152 25.8802 12.9564 25.9993C12.7565 26.1183 12.552 26.202 12.3432 26.2549C12.2099 26.2813 12.081 26.2946 11.9477 26.2946H11.5522C11.4189 26.2946 11.2767 26.2813 11.1167 26.2549V25.6246C11.5655 25.6246 11.8144 25.5408 11.8677 25.3689C11.921 25.197 11.9477 24.9678 11.9477 24.6813V3.73139C12.001 3.36554 12.081 2.9997 12.1832 2.62945C12.2899 2.3165 12.4454 1.99474 12.6587 1.66857C12.8676 1.3424 13.1609 1.03385 13.5297 0.747351C14.0585 0.407956 14.614 0.2052 15.1917 0.139084C15.7738 0.0729683 16.3337 0.134677 16.8759 0.315394C17.418 0.500518 17.9113 0.787021 18.3601 1.17931C18.8089 1.5716 19.1511 2.06967 19.3911 2.67353C19.4444 2.85866 19.4888 3.10108 19.5288 3.40081C19.5688 3.70053 19.5866 3.90329 19.5866 4.00907V8.64601C19.5866 9.37769 19.3689 10.0873 18.9334 10.7661C18.4979 11.4493 17.898 11.9033 17.1292 12.1413C17.0758 12.1678 17.0359 12.181 17.0092 12.181C16.9825 12.181 16.9425 12.1942 16.8892 12.2207C17.8135 12.3265 18.4845 12.5997 18.9111 13.0449C19.3333 13.4901 19.6088 13.9617 19.7421 14.4598ZM14.1207 13.2036C14.3296 13.0185 14.5562 12.8642 14.7962 12.732C15.0317 12.5997 15.2983 12.4719 15.5872 12.3397C15.6938 12.2868 15.8494 12.2295 16.0627 12.1634C16.2715 12.0973 16.4715 11.965 16.6581 11.7711C16.8403 11.5727 17.0092 11.2862 17.1514 10.9072C17.298 10.5281 17.3691 10.0124 17.3691 9.35565V2.86747C17.3691 2.63386 17.3514 2.38262 17.3114 2.12256C17.2714 1.86251 17.2003 1.61127 17.0936 1.37766C16.987 1.14405 16.8359 0.945699 16.6404 0.787021C16.4404 0.628343 16.1826 0.553411 15.8671 0.553411C15.7338 0.553411 15.5427 0.571042 15.2939 0.610712C15.0406 0.650381 14.8139 0.773798 14.6006 0.985369C14.2851 1.37766 14.1252 1.94185 14.1252 2.67353V13.2036H14.1207ZM17.3647 25.8538C17.6802 25.5408 17.8402 24.9767 17.8402 24.1656V14.6185C17.7869 14.4863 17.7469 14.2571 17.7202 13.9309C17.6935 13.6047 17.5469 13.3094 17.2847 13.0449C17.0714 12.8378 16.8803 12.7055 16.7115 12.6526C16.5381 12.5997 16.3871 12.5733 16.2537 12.5733C16.0938 12.5733 15.9516 12.5909 15.8182 12.6306C15.6849 12.6703 15.5161 12.754 15.3028 12.8862C14.9339 13.0714 14.5918 13.2785 14.2718 13.5166C14.2451 13.543 14.2185 13.5606 14.1918 13.5739C14.1652 13.5871 14.1385 13.6047 14.1118 13.6312V24.0422C14.1385 24.3552 14.1652 24.6329 14.1918 24.8665C14.2185 25.1001 14.2985 25.3249 14.4273 25.5364C14.5873 25.77 14.7562 25.9419 14.9428 26.0477C15.3383 26.2813 15.7471 26.3827 16.1693 26.3431C16.5915 26.3034 16.987 26.1403 17.3558 25.8538H17.3647Z" fill="#F7F6F2"/>
<path d="M23.928 2.86382C24.1547 2.51561 24.519 1.58558 24.7101 1.23296C24.8923 0.89797 24.9945 0.562982 25.4434 0.19714C25.6522 0.0120156 25.8122 -0.0144307 25.9188 0.117801C26.0255 0.250033 26.0788 0.391081 26.0788 0.549759V24.6336C26.0788 25.0788 26.1855 25.3477 26.3943 25.4402C26.6032 25.5328 26.8165 25.5769 27.0298 25.5769V26.2468C26.8965 26.2468 26.7143 26.2513 26.4743 26.2645C26.2388 26.2777 26.0122 26.2336 25.7989 26.1278C25.5633 26.022 25.3056 25.9692 25.0256 25.9692C24.7457 25.9692 24.5057 26.022 24.2924 26.1278C24.1858 26.1807 24.0658 26.2116 23.9369 26.2248C23.8036 26.238 23.6747 26.2424 23.5414 26.2424H23.0659V25.6121C23.5147 25.6121 23.7636 25.5196 23.8169 25.3389C23.8702 25.1537 23.8969 24.9201 23.8969 24.6336V23.849L24.0924 3.52939C24.0924 3.43242 24.048 3.20321 23.9547 3.33104" fill="#F7F6F2"/>
<path d="M35.5089 17.8765C35.22 18.0351 34.9534 18.1497 34.7179 18.2291C34.4824 18.3084 34.3357 18.3613 34.2824 18.3878L33.6869 18.5068C33.4736 18.5597 33.2559 18.617 33.0337 18.6831C32.807 18.7492 32.6026 18.8197 32.4204 18.8991L32.1849 19.0181C32.0249 19.1238 31.8872 19.2208 31.7672 19.3134C31.6472 19.4059 31.5628 19.5161 31.5094 19.6484C31.4828 19.6748 31.4695 19.7145 31.4695 19.7674V23.5801C31.4695 24.1839 31.6205 24.66 31.9272 25.0126C32.2293 25.3652 32.5937 25.568 33.0159 25.6208C33.8336 25.6737 34.4824 25.471 34.9578 25.0126C35.4333 24.5542 35.7622 24.0385 35.9488 23.4611C35.9755 23.3288 36.0066 23.1922 36.0466 23.0467C36.0866 22.9013 36.1177 22.7646 36.1443 22.6324C36.171 22.4737 36.1977 22.3195 36.2243 22.1608C36.2777 22.1343 36.3887 22.1299 36.5621 22.1431C36.7354 22.1564 36.8465 22.1608 36.8998 22.1608C36.8731 22.3459 36.8465 22.5398 36.8198 22.7514C36.7665 22.9365 36.722 23.1393 36.682 23.3597C36.642 23.5845 36.5843 23.8005 36.5043 24.0076C36.2154 24.7922 35.7755 25.4005 35.1978 25.8324C34.6157 26.2644 33.958 26.4804 33.2159 26.4804H33.0559C32.4738 26.4804 31.9849 26.3966 31.5894 26.2247C31.1939 26.0528 30.8562 25.8456 30.5807 25.5944C30.3052 25.3476 30.0785 25.0787 29.9097 24.7878C29.7364 24.5013 29.6119 24.2236 29.532 23.9635C29.4786 23.8842 29.4475 23.752 29.4342 23.5712C29.4209 23.3861 29.3986 23.2054 29.3764 23.0203C29.3498 22.8131 29.3364 22.5883 29.3364 22.3503V14.6103C29.3898 14.2445 29.4697 13.8786 29.5719 13.5084C29.6786 13.2219 29.8341 12.9045 30.0474 12.5651C30.2563 12.2257 30.5496 11.9216 30.9184 11.6616C31.4739 11.2428 32.1716 11.0312 33.0159 11.0312H33.1759C33.758 11.0312 34.2646 11.1238 34.7001 11.3045C35.1356 11.4897 35.5044 11.71 35.8111 11.9745C36.1132 12.2346 36.3576 12.5299 36.5443 12.8605C36.7265 13.1866 36.8465 13.4819 36.8998 13.7464C37.1353 14.6632 37.1442 15.4302 36.9176 16.0428C36.6909 16.6599 36.4732 17.0698 36.2643 17.2814C36.051 17.493 35.9088 17.6208 35.8288 17.6737C35.7488 17.7266 35.6422 17.7927 35.5133 17.8721L35.5089 17.8765ZM31.4695 19.0577C31.6028 18.877 31.7939 18.7183 32.0427 18.5861C32.2916 18.4539 32.5582 18.326 32.8337 18.1938C33.1092 18.0616 33.3936 17.9117 33.6869 17.7442C33.9758 17.5723 34.2424 17.3563 34.4779 17.0963C34.6601 16.8627 34.8023 16.5806 34.8956 16.25C34.9889 15.9238 35.0467 15.58 35.0734 15.2274C35.1 14.8748 35.0912 14.5266 35.0556 14.1872C35.0156 13.8478 34.9845 13.5348 34.9578 13.2439C34.9312 13.1117 34.8601 12.9222 34.7401 12.6753C34.6201 12.4285 34.4557 12.1861 34.2468 11.9481C34.1135 11.7894 33.9447 11.666 33.7314 11.5734C33.518 11.4808 33.3492 11.4368 33.2159 11.4368C33.0826 11.4368 32.8915 11.4632 32.6426 11.5161C32.3893 11.569 32.1627 11.7012 31.9494 11.9084C31.7361 12.142 31.5939 12.4726 31.5139 12.8913C31.4872 12.9971 31.4739 13.1029 31.4739 13.2043V19.0577H31.4695Z" fill="#F7F6F2"/>
<path d="M46.3605 21.1774C46.4139 21.4904 46.4316 21.8606 46.4183 22.2794C46.405 22.6981 46.3472 23.1124 46.2406 23.5179C46.1339 23.9235 45.9784 24.3246 45.7651 24.7169C45.5518 25.1091 45.2629 25.4397 44.8941 25.6998C44.4986 25.9863 44.0942 26.1979 43.6854 26.3301C43.2765 26.4623 42.8855 26.5284 42.5167 26.5284C42.0678 26.5284 41.6768 26.4623 41.3479 26.3301C41.0191 26.1979 40.708 26.07 40.4192 25.9378C40.3125 25.8849 40.1837 25.8188 40.0237 25.7394C39.8637 25.6601 39.7082 25.6601 39.5482 25.7394C39.4415 25.7923 39.3615 25.9113 39.3127 26.0921C39.286 26.1714 39.286 26.2375 39.3127 26.2904H38.7572L38.7172 22.1251H39.4682C39.4949 22.4645 39.5615 22.8524 39.6682 23.2843C39.7748 23.7163 39.9304 24.0777 40.1437 24.3642C40.3259 24.6243 40.6191 24.9416 41.0146 25.3075C41.4101 25.6733 41.899 25.8717 42.4811 25.8981C43.2188 25.8981 43.7698 25.6425 44.1253 25.1312C44.4808 24.6199 44.6852 24.1174 44.7386 23.6193C44.7919 23.0155 44.7208 22.4998 44.5208 22.0678C44.3208 21.6358 44.0764 21.2347 43.7876 20.8689C43.6543 20.7102 43.4587 20.5207 43.1921 20.3003C42.9299 20.0799 42.65 19.8639 42.3611 19.6524C42.0723 19.4452 41.8012 19.2513 41.5479 19.0838C41.2946 18.9119 41.1302 18.8017 41.0546 18.7488C40.7658 18.5372 40.4725 18.3168 40.1837 18.0788C39.9481 17.8716 39.7126 17.6424 39.4904 17.3912C39.2638 17.1444 39.086 16.8755 38.9572 16.5846C38.9038 16.4524 38.8372 16.2099 38.7572 15.8573C38.6772 15.5047 38.6372 15.1124 38.6372 14.6804C38.6372 14.2485 38.7039 13.8033 38.8372 13.3449C38.9705 12.8865 39.2327 12.4589 39.6282 12.0667C40.3925 11.3085 41.2768 10.9559 42.2811 11.0044C42.7566 11.0308 43.1477 11.0881 43.4499 11.1807C43.752 11.2733 44.0231 11.3835 44.2631 11.5157C44.3431 11.5686 44.4542 11.6259 44.6008 11.692C44.7474 11.7581 44.8852 11.7229 45.0185 11.595C45.1252 11.4892 45.1785 11.3746 45.1785 11.2424V11.0441C45.2318 11.0705 45.2985 11.0837 45.3785 11.0837C45.4318 11.0837 45.4851 11.0925 45.5384 11.1014C45.5918 11.1146 45.6318 11.119 45.6584 11.119V15.6766H44.9074C44.9074 15.205 44.8719 14.7422 44.8097 14.2837C44.743 13.8253 44.5253 13.3229 44.1564 12.7719C43.9431 12.4854 43.6632 12.2077 43.3032 11.9477C42.9477 11.6876 42.5433 11.5686 42.0945 11.595C41.5923 11.595 41.188 11.6656 40.8858 11.811C40.5836 11.9565 40.3436 12.1328 40.1748 12.3399C40.0015 12.5515 39.8904 12.7675 39.837 12.9879C39.7837 13.2127 39.7704 13.4022 39.797 13.5565C39.877 14.0281 40.0948 14.4865 40.4503 14.9317C40.8058 15.3769 41.3924 15.8749 42.2145 16.4259C42.3478 16.5052 42.5566 16.6419 42.8499 16.8402C43.1388 17.0386 43.4454 17.2457 43.7609 17.4705C44.0764 17.6953 44.3831 17.9245 44.6719 18.1581C44.9607 18.3918 45.174 18.6033 45.3074 18.7885C45.6762 19.313 45.9339 19.7361 46.0806 20.0667C46.2272 20.3929 46.325 20.7675 46.3783 21.1863L46.3605 21.1774Z" fill="#F7F6F2"/>
<path d="M56.1457 21.1774C56.199 21.4904 56.2168 21.8606 56.2035 22.2794C56.1901 22.6981 56.1324 23.1124 56.0257 23.5179C55.9191 23.9235 55.7635 24.3246 55.5502 24.7169C55.3369 25.1091 55.0481 25.4397 54.6792 25.6998C54.2837 25.9863 53.8794 26.1979 53.4705 26.3301C53.0617 26.4623 52.6706 26.5284 52.3018 26.5284C51.853 26.5284 51.4619 26.4623 51.1331 26.3301C50.8042 26.1979 50.4932 26.07 50.2043 25.9378C50.0977 25.8849 49.9688 25.8188 49.8088 25.7394C49.6489 25.6601 49.4933 25.6601 49.3333 25.7394C49.2267 25.7923 49.1467 25.9113 49.0978 26.0921C49.0712 26.1714 49.0712 26.2375 49.0978 26.2904H48.5423L48.5024 22.1251H49.2534C49.28 22.4645 49.3467 22.8524 49.4533 23.2843C49.56 23.7163 49.7155 24.0777 49.9288 24.3642C50.111 24.6243 50.4043 24.9416 50.7998 25.3075C51.1953 25.6733 51.6841 25.8717 52.2663 25.8981C53.0039 25.8981 53.555 25.6425 53.9105 25.1312C54.266 24.6199 54.4704 24.1174 54.5237 23.6193C54.577 23.0155 54.5059 22.4998 54.306 22.0678C54.106 21.6358 53.8616 21.2347 53.5727 20.8689C53.4394 20.7102 53.2439 20.5207 52.9773 20.3003C52.7151 20.0799 52.4351 19.8639 52.1463 19.6524C51.8574 19.4452 51.5864 19.2513 51.3331 19.0838C51.0798 18.9119 50.9153 18.8017 50.8398 18.7488C50.5509 18.5372 50.2577 18.3168 49.9688 18.0788C49.7333 17.8716 49.4978 17.6424 49.2756 17.3912C49.0489 17.1444 48.8712 16.8755 48.7423 16.5846C48.689 16.4524 48.6223 16.2099 48.5423 15.8573C48.4624 15.5047 48.4224 15.1124 48.4224 14.6804C48.4224 14.2485 48.489 13.8033 48.6223 13.3449C48.7556 12.8865 49.0178 12.4589 49.4133 12.0667C50.1777 11.3085 51.062 10.9559 52.0663 11.0044C52.5418 11.0308 52.9328 11.0881 53.235 11.1807C53.5372 11.2733 53.8083 11.3835 54.0482 11.5157C54.1282 11.5686 54.2393 11.6259 54.386 11.692C54.5326 11.7581 54.6704 11.7229 54.8037 11.595C54.9103 11.4892 54.9636 11.3746 54.9636 11.2424V11.0441C55.017 11.0705 55.0836 11.0837 55.1636 11.0837C55.2169 11.0837 55.2703 11.0925 55.3236 11.1014C55.3769 11.1146 55.4169 11.119 55.4436 11.119V15.6766H54.6926C54.6926 15.205 54.657 14.7422 54.5948 14.2837C54.5282 13.8253 54.3104 13.3229 53.9416 12.7719C53.7283 12.4854 53.4483 12.2077 53.0884 11.9477C52.7329 11.6876 52.3285 11.5686 51.8796 11.595C51.3775 11.595 50.9731 11.6656 50.6709 11.811C50.3687 11.9565 50.1288 12.1328 49.9599 12.3399C49.7866 12.5515 49.6755 12.7675 49.6222 12.9879C49.5689 13.2127 49.5555 13.4022 49.5822 13.5565C49.6622 14.0281 49.8799 14.4865 50.2354 14.9317C50.5909 15.3769 51.1775 15.8749 51.9996 16.4259C52.1329 16.5052 52.3418 16.6419 52.6351 16.8402C52.9239 17.0386 53.2306 17.2457 53.5461 17.4705C53.8616 17.6953 54.1682 17.9245 54.4571 18.1581C54.7459 18.3918 54.9592 18.6033 55.0925 18.7885C55.4614 19.313 55.7191 19.7361 55.8657 20.0667C56.0124 20.3929 56.1101 20.7675 56.1635 21.1863L56.1457 21.1774Z" fill="#F7F6F2"/>
<path d="M64.2647 17.8765C63.9759 18.0351 63.7093 18.1497 63.4737 18.2291C63.2382 18.3084 63.0916 18.3613 63.0382 18.3878L62.4428 18.5068C62.2295 18.5597 62.0117 18.617 61.7895 18.6831C61.5629 18.7492 61.3585 18.8197 61.1763 18.8991L60.9408 19.0181C60.7808 19.1238 60.643 19.2208 60.523 19.3134C60.4031 19.4059 60.3186 19.5161 60.2653 19.6484C60.2386 19.6748 60.2253 19.7145 60.2253 19.7674V23.5801C60.2253 24.1839 60.3764 24.66 60.683 25.0126C60.9852 25.3652 61.3496 25.568 61.7718 25.6208C62.5894 25.6737 63.2382 25.471 63.7137 25.0126C64.1892 24.5542 64.518 24.0385 64.7047 23.4611C64.7313 23.3288 64.7624 23.1922 64.8024 23.0467C64.8424 22.9013 64.8735 22.7646 64.9002 22.6324C64.9269 22.4737 64.9535 22.3195 64.9802 22.1608C65.0335 22.1343 65.1446 22.1299 65.3179 22.1431C65.4912 22.1564 65.6023 22.1608 65.6556 22.1608C65.629 22.3459 65.6023 22.5398 65.5757 22.7514C65.5223 22.9365 65.4779 23.1393 65.4379 23.3597C65.3979 23.5845 65.3401 23.8005 65.2601 24.0076C64.9713 24.7922 64.5314 25.4005 63.9537 25.8324C63.3715 26.2644 62.7138 26.4804 61.9717 26.4804H61.8117C61.2296 26.4804 60.7408 26.3966 60.3453 26.2247C59.9498 26.0528 59.6121 25.8456 59.3365 25.5944C59.061 25.3476 58.8344 25.0787 58.6655 24.7878C58.4922 24.5013 58.3678 24.2236 58.2878 23.9635C58.2345 23.8842 58.2034 23.752 58.19 23.5712C58.1767 23.3861 58.1545 23.2054 58.1323 23.0203C58.1056 22.8131 58.0923 22.5883 58.0923 22.3503V14.6103C58.1456 14.2445 58.2256 13.8786 58.3278 13.5084C58.4345 13.2219 58.59 12.9045 58.8033 12.5651C59.0121 12.2257 59.3054 11.9216 59.6743 11.6616C60.2298 11.2428 60.9274 11.0312 61.7718 11.0312H61.9317C62.5139 11.0312 63.0205 11.1238 63.456 11.3045C63.8915 11.4897 64.2603 11.71 64.5669 11.9745C64.8691 12.2346 65.1135 12.5299 65.3001 12.8605C65.4868 13.1866 65.6023 13.4819 65.6556 13.7464C65.8912 14.6632 65.9001 15.4302 65.6734 16.0428C65.4468 16.6599 65.229 17.0698 65.0202 17.2814C64.8069 17.493 64.6647 17.6208 64.5847 17.6737C64.5047 17.7266 64.398 17.7927 64.2692 17.8721L64.2647 17.8765ZM60.2253 19.0577C60.3586 18.877 60.5497 18.7183 60.7986 18.5861C61.0474 18.4539 61.314 18.326 61.5896 18.1938C61.8651 18.0616 62.1495 17.9117 62.4428 17.7442C62.7316 17.5723 62.9982 17.3563 63.2338 17.0963C63.416 16.8627 63.5582 16.5806 63.6515 16.25C63.7448 15.9238 63.8026 15.58 63.8292 15.2274C63.8559 14.8748 63.847 14.5266 63.8115 14.1872C63.7715 13.8478 63.7404 13.5348 63.7137 13.2439C63.687 13.1117 63.6159 12.9222 63.496 12.6753C63.376 12.4285 63.2115 12.1861 63.0027 11.9481C62.8694 11.7894 62.7005 11.666 62.4872 11.5734C62.2739 11.4808 62.105 11.4368 61.9717 11.4368C61.8384 11.4368 61.6473 11.4632 61.3985 11.5161C61.1452 11.569 60.9185 11.7012 60.7052 11.9084C60.4919 12.142 60.3497 12.4726 60.2697 12.8913C60.2431 12.9971 60.2298 13.1029 60.2298 13.2043V19.0577H60.2253Z" fill="#F7F6F2"/>
<path d="M75.4365 24.6326C75.4365 24.9191 75.4631 25.1571 75.5164 25.3378C75.5698 25.523 75.8186 25.6111 76.2674 25.6111V26.2018C76.1075 26.2282 75.9653 26.2414 75.832 26.2414H75.4142C75.2676 26.2414 75.1432 26.2282 75.0365 26.2018C74.8232 26.1489 74.6188 26.0651 74.4233 25.9461C74.2233 25.8271 74.0722 25.7037 73.9656 25.5715C73.9656 25.545 73.93 25.4789 73.8678 25.3731C73.8011 25.2673 73.73 25.1395 73.65 24.9808C73.4634 25.3996 73.2145 25.7522 72.899 26.0431C72.5835 26.3296 72.1614 26.475 71.6326 26.475H71.5126C70.6683 26.475 69.9661 26.2635 69.4151 25.8447C69.0463 25.5847 68.753 25.2894 68.5441 24.9588C68.3308 24.6326 68.1753 24.3108 68.0686 23.9979C67.962 23.6585 67.8953 23.2927 67.8687 22.896V14.3714C67.8687 14.1378 67.922 13.8601 68.0286 13.5472C68.1086 13.2871 68.2286 13.005 68.3841 12.7009C68.5441 12.4012 68.7619 12.1235 69.0374 11.8766C69.3129 11.6298 69.6595 11.4226 70.0683 11.2684C70.4772 11.1097 70.9704 11.0348 71.5526 11.0348H71.7125C72.0281 11.0348 72.3213 11.1185 72.5835 11.2904C72.8457 11.4623 73.059 11.6915 73.219 11.978V3.14491C73.2457 3.09202 73.2457 3.0259 73.219 2.94656C73.1657 2.78789 73.059 2.68651 72.9035 2.63361C72.8502 2.60717 72.7568 2.59395 72.628 2.59395H72.428V2.24133C72.5613 2.13554 72.7302 2.00772 72.9435 1.84904C73.1257 1.71681 73.3656 1.53609 73.6545 1.29807C73.9433 1.06446 74.3122 0.760328 74.7654 0.394486C75.001 0.209362 75.1743 0.187323 75.2809 0.315147C75.3876 0.447379 75.4409 0.588427 75.4409 0.747105V24.6326H75.4365ZM73.2146 24.4387C73.2412 24.3593 73.2545 24.2403 73.2545 24.0861L73.2146 24.0464V12.8904C73.1346 12.4717 72.979 12.1455 72.7391 11.9075C72.5258 11.7003 72.3036 11.5681 72.0636 11.5152C71.8281 11.4623 71.6414 11.4359 71.5081 11.4359C71.3748 11.4359 71.2237 11.4711 71.0549 11.5328C70.8816 11.5989 70.6905 11.7356 70.4816 11.9472C70.295 12.1587 70.1705 12.3659 70.1039 12.5775C70.0372 12.789 69.9928 12.9565 69.9661 13.0888C69.9395 13.1681 69.9261 13.2386 69.9261 13.3047V13.6397C69.9261 13.6926 69.9395 13.7323 69.9661 13.7587V24.3285C69.9661 24.4343 69.9795 24.5533 70.0061 24.6811C70.0594 24.8662 70.1128 25.0337 70.1661 25.1924C70.2194 25.3511 70.3127 25.4921 70.4416 25.6243C70.6505 25.8359 70.8771 25.9637 71.1171 26.0166C71.3526 26.0695 71.5392 26.096 71.6726 26.096C71.9614 26.096 72.308 25.9373 72.7035 25.6243C72.8857 25.4172 73.0146 25.1968 73.0812 24.9764C73.1479 24.756 73.1923 24.5753 73.219 24.4475L73.2146 24.4387Z" fill="#F7F6F2"/>
<path d="M89.279 6.81781C89.1857 6.83104 89.0746 6.83544 88.9413 6.83544C88.9413 6.54894 88.9279 6.10376 88.9013 5.4999C88.8746 4.89604 88.7946 4.28337 88.6657 3.65306C88.5324 3.02275 88.3413 2.44975 88.0925 1.92523C87.8392 1.40071 87.5059 1.07454 87.0837 0.942304C86.7949 0.862965 86.5105 0.810072 86.2305 0.783626C85.955 0.757179 85.6573 0.743956 85.3373 0.743956V12.5699H87.1593C87.3948 12.5699 87.5637 12.5038 87.6525 12.3716C87.7459 12.2393 87.8125 12.0851 87.8525 11.8999C87.8925 11.7148 87.9058 11.5341 87.8925 11.349C87.8792 11.1638 87.8747 11.0228 87.8747 10.917H88.5502C88.5502 11.0492 88.5413 11.252 88.5324 11.5253C88.5191 11.7986 88.4969 12.0542 88.4747 12.2922C88.4213 12.6052 88.3947 12.8432 88.3947 12.9975C88.3947 13.1517 88.408 13.3368 88.4347 13.5484C88.4347 13.6807 88.4391 13.8305 88.4524 14.0024C88.4658 14.1743 88.4835 14.3374 88.5102 14.4917C88.5369 14.6768 88.5502 14.8707 88.5502 15.0823H87.9147C87.9147 14.6636 87.897 14.2757 87.857 13.9231C87.817 13.5705 87.6259 13.3677 87.2837 13.3148H85.3418V24.8278C85.3418 25.0614 85.3951 25.2333 85.5017 25.3391C85.6084 25.4449 85.7373 25.5154 85.8972 25.5551C86.0572 25.5948 86.2216 25.6124 86.3905 25.6124H86.8082V26.2824C86.6482 26.2824 86.3727 26.2868 85.9772 26.3C85.5817 26.3132 85.2796 26.2647 85.0663 26.1634C84.8307 26.0576 84.5597 26.0047 84.253 26.0047C83.9464 26.0047 83.6931 26.0443 83.4798 26.1237C83.3732 26.1766 83.2265 26.2074 83.0443 26.2207C82.8577 26.2339 82.6755 26.2383 82.4888 26.2383H81.7778V25.6476C82.2267 25.6476 82.5555 25.5507 82.7688 25.3523C82.9777 25.154 83.0843 24.916 83.0843 24.6251V1.29933C83.0843 1.24644 83.071 1.18032 83.0443 1.10098C82.991 0.915858 82.8977 0.801257 82.7688 0.748364C82.7155 0.721918 82.5955 0.708694 82.4133 0.708694H81.7778V0.316406H89.6212V6.80018C89.4878 6.80018 89.3767 6.809 89.2834 6.81781H89.279Z" fill="#F7F6F2"/>
<path d="M94.8425 23.849V24.6336C94.8425 25.0788 94.9491 25.3477 95.158 25.4402C95.3669 25.5328 95.5802 25.5769 95.7935 25.5769V26.2468C95.6602 26.2468 95.478 26.2513 95.238 26.2645C95.0025 26.2777 94.7758 26.2336 94.5625 26.1278C94.327 26.022 94.0693 25.9692 93.7893 25.9692C93.5094 25.9692 93.2694 26.022 93.0561 26.1278C92.9494 26.1807 92.8294 26.2116 92.7006 26.2248C92.5673 26.238 92.4384 26.2424 92.3051 26.2424H91.8296V25.6121C92.2784 25.6121 92.5273 25.5196 92.5806 25.3389C92.6339 25.1537 92.6606 24.9201 92.6606 24.6336V2.94757C92.6872 2.89467 92.6872 2.82856 92.6606 2.74922C92.6073 2.59054 92.5006 2.48916 92.3451 2.43627C92.2917 2.40982 92.1984 2.3966 92.0696 2.3966H91.8696V2.04398C91.9762 1.93819 92.1318 1.81037 92.3451 1.65169C92.5273 1.51946 92.7761 1.33874 93.0783 1.10073C93.3805 0.867116 93.7582 0.562982 94.207 0.19714C94.4159 0.0120156 94.5759 -0.0144307 94.6825 0.117801C94.7892 0.250033 94.8425 0.391081 94.8425 0.549759V23.849Z" fill="#F7F6F2"/>
<path d="M105.419 13.5559C105.552 13.8424 105.619 14.1201 105.619 14.3801V22.9047C105.565 23.297 105.485 23.6628 105.383 24.0066C105.276 24.3196 105.121 24.6413 104.908 24.9675C104.694 25.2937 104.405 25.589 104.037 25.8535C103.481 26.2722 102.797 26.4838 101.975 26.4838H101.815C101.233 26.4838 100.739 26.4 100.33 26.2281C99.9217 26.0562 99.5795 25.849 99.2995 25.5978C99.024 25.351 98.8063 25.0821 98.6463 24.7912C98.4863 24.5047 98.3708 24.227 98.2908 23.9669C98.1575 23.5747 98.0908 23.297 98.0908 23.1427V14.6181C98.1441 14.2523 98.2241 13.8865 98.3263 13.5162C98.433 13.2297 98.5885 12.9123 98.8018 12.573C99.0107 12.2336 99.304 11.9294 99.6728 11.6694C100.228 11.2506 100.926 11.0391 101.77 11.0391H101.89C102.472 11.0391 102.966 11.1184 103.375 11.2727C103.783 11.4314 104.126 11.6341 104.405 11.8809C104.681 12.1322 104.899 12.4055 105.059 12.7052C105.219 13.0049 105.334 13.287 105.414 13.5515L105.419 13.5559ZM103.517 13.4765V13.3002C103.517 13.2341 103.503 13.1636 103.477 13.0843C103.45 12.952 103.406 12.7845 103.339 12.573C103.272 12.3658 103.148 12.1542 102.961 11.9426C102.748 11.7355 102.557 11.5944 102.388 11.5283C102.215 11.4622 102.064 11.4314 101.93 11.4314C101.797 11.4314 101.615 11.4578 101.375 11.5107C101.139 11.5636 100.913 11.6958 100.704 11.903C100.49 12.1366 100.348 12.4672 100.268 12.8859C100.242 12.9917 100.228 13.0975 100.228 13.1989V24.4342C100.255 24.5664 100.308 24.7427 100.388 24.9631C100.468 25.1879 100.588 25.4039 100.744 25.611C101.139 25.924 101.481 26.0827 101.775 26.0827C101.908 26.0827 102.09 26.0562 102.33 26.0033C102.566 25.9504 102.806 25.8182 103.041 25.611C103.25 25.3774 103.397 25.0601 103.477 24.6678C103.503 24.5355 103.508 24.4209 103.494 24.3152C103.481 24.2094 103.486 24.108 103.512 24.0022V13.4721L103.517 13.4765Z" fill="#F7F6F2"/>
<path d="M122.052 11.3575C122.238 11.2782 122.487 11.2385 122.803 11.2385H123.278V11.8688C122.829 11.8688 122.474 11.882 122.207 11.9085C121.945 11.9349 121.718 12.195 121.532 12.6931C121.478 12.8782 121.398 13.2088 121.296 13.6936C121.19 14.1785 121.07 14.7559 120.941 15.4215C120.807 16.0914 120.67 16.8231 120.523 17.6209C120.376 18.4187 120.225 19.2253 120.065 20.0364C119.696 21.9229 119.301 24.0033 118.879 26.2821H116.066C115.986 25.7576 115.893 25.1934 115.79 24.5939C115.71 24.0694 115.617 23.4832 115.515 22.8264C115.408 22.1741 115.288 21.4777 115.159 20.746C115.026 21.4777 114.897 22.1741 114.764 22.8264C114.631 23.4832 114.511 24.0694 114.408 24.5939C114.302 25.1978 114.182 25.7576 114.053 26.2821H111.4C110.924 24.162 110.489 22.1829 110.093 20.3493C109.933 19.5647 109.769 18.7846 109.6 18.0132C109.427 17.2418 109.271 16.5058 109.125 15.8137C108.978 15.1217 108.849 14.5091 108.729 13.9889C108.609 13.4644 108.538 13.0721 108.511 12.8121C108.511 12.7592 108.503 12.7195 108.494 12.6931C108.48 12.6666 108.476 12.6402 108.476 12.6137C108.316 12.1685 108.174 11.9393 108.04 11.9261C107.907 11.9129 107.738 11.9085 107.525 11.9085V11.2385C107.658 11.2385 107.827 11.2341 108.04 11.2209C108.249 11.2077 108.463 11.2561 108.676 11.3575C109.205 11.5691 109.693 11.5691 110.142 11.3575C110.249 11.3046 110.378 11.2738 110.538 11.2606C110.698 11.2473 110.84 11.2429 110.973 11.2429H111.489V11.8732C111.04 11.8732 110.756 11.9526 110.636 12.1068C110.516 12.2655 110.484 12.4859 110.538 12.7768L113.351 25.7796L114.817 18.4716C114.604 17.2154 114.413 16.0606 114.244 15.0159C114.071 13.9669 113.96 13.2352 113.906 12.8165C113.88 12.7636 113.866 12.7239 113.866 12.6975C113.866 12.671 113.853 12.6446 113.826 12.6181C113.693 12.173 113.555 11.9438 113.409 11.9305C113.262 11.9173 113.097 11.9129 112.915 11.9129V11.2429C113.049 11.2429 113.213 11.2385 113.409 11.2253C113.608 11.2121 113.813 11.2606 114.022 11.3619C114.257 11.4677 114.515 11.5206 114.795 11.5206C115.075 11.5206 115.315 11.4677 115.528 11.3619C115.608 11.309 115.728 11.2782 115.884 11.265C116.044 11.2517 116.186 11.2473 116.319 11.2473H116.835V11.8776C116.386 11.8776 116.101 11.957 115.981 12.1112C115.861 12.2699 115.83 12.4903 115.884 12.7812L118.021 25.784L120.674 12.5829C120.754 12.3493 120.745 12.1774 120.656 12.0716C120.563 11.9658 120.439 11.8997 120.279 11.8732C120.119 11.8468 119.95 11.8468 119.763 11.8732C119.577 11.8997 119.434 11.9129 119.328 11.9129L119.288 11.2429C119.448 11.2429 119.643 11.2385 119.883 11.2253C120.119 11.2121 120.345 11.2606 120.559 11.3619C120.767 11.4677 121.021 11.5206 121.31 11.5206C121.598 11.5206 121.852 11.4677 122.061 11.3619L122.052 11.3575Z" fill="#F7F6F2"/>
<path d="M131.202 17.8765C130.913 18.0351 130.646 18.1497 130.411 18.2291C130.175 18.3084 130.029 18.3613 129.975 18.3878L129.38 18.5068C129.166 18.5597 128.949 18.617 128.727 18.6831C128.5 18.7492 128.295 18.8197 128.113 18.8991L127.878 19.0181C127.718 19.1238 127.58 19.2208 127.46 19.3134C127.34 19.4059 127.256 19.5161 127.202 19.6484C127.176 19.6748 127.162 19.7145 127.162 19.7674V23.5801C127.162 24.1839 127.313 24.66 127.62 25.0126C127.922 25.3652 128.287 25.568 128.709 25.6208C129.526 25.6737 130.175 25.471 130.651 25.0126C131.126 24.5542 131.455 24.0385 131.642 23.4611C131.668 23.3288 131.699 23.1922 131.739 23.0467C131.779 22.9013 131.811 22.7646 131.837 22.6324C131.864 22.4737 131.891 22.3195 131.917 22.1608C131.971 22.1343 132.082 22.1299 132.255 22.1431C132.428 22.1564 132.539 22.1608 132.593 22.1608C132.566 22.3459 132.539 22.5398 132.513 22.7514C132.459 22.9365 132.415 23.1393 132.375 23.3597C132.335 23.5845 132.277 23.8005 132.197 24.0076C131.908 24.7922 131.468 25.4005 130.891 25.8324C130.309 26.2644 129.651 26.4804 128.909 26.4804H128.749C128.167 26.4804 127.678 26.3966 127.282 26.2247C126.887 26.0528 126.549 25.8456 126.274 25.5944C125.998 25.3476 125.771 25.0787 125.603 24.7878C125.429 24.5013 125.305 24.2236 125.225 23.9635C125.171 23.8842 125.14 23.752 125.127 23.5712C125.114 23.3861 125.092 23.2054 125.069 23.0203C125.043 22.8131 125.029 22.5883 125.029 22.3503V14.6103C125.083 14.2445 125.163 13.8786 125.265 13.5084C125.371 13.2219 125.527 12.9045 125.74 12.5651C125.949 12.2257 126.242 11.9216 126.611 11.6616C127.167 11.2428 127.864 11.0312 128.709 11.0312H128.869C129.451 11.0312 129.957 11.1238 130.393 11.3045C130.828 11.4897 131.197 11.71 131.504 11.9745C131.806 12.2346 132.051 12.5299 132.237 12.8605C132.419 13.1866 132.539 13.4819 132.593 13.7464C132.828 14.6632 132.837 15.4302 132.61 16.0428C132.384 16.6599 132.166 17.0698 131.957 17.2814C131.748 17.493 131.602 17.6208 131.522 17.6737C131.442 17.7266 131.335 17.7927 131.206 17.8721L131.202 17.8765ZM127.162 19.0577C127.296 18.877 127.487 18.7183 127.736 18.5861C127.984 18.4539 128.251 18.326 128.527 18.1938C128.802 18.0616 129.086 17.9117 129.38 17.7442C129.669 17.5723 129.935 17.3563 130.171 17.0963C130.353 16.8627 130.495 16.5806 130.589 16.25C130.682 15.9238 130.74 15.58 130.766 15.2274C130.793 14.8748 130.784 14.5266 130.748 14.1872C130.708 13.8478 130.677 13.5348 130.651 13.2439C130.624 13.1117 130.553 12.9222 130.433 12.6753C130.313 12.4285 130.149 12.1861 129.94 11.9481C129.806 11.7894 129.638 11.666 129.424 11.5734C129.211 11.4808 129.042 11.4368 128.909 11.4368C128.775 11.4368 128.584 11.4632 128.335 11.5161C128.082 11.569 127.851 11.7012 127.642 11.9084C127.429 12.142 127.287 12.4726 127.207 12.8913C127.18 12.9971 127.167 13.1029 127.167 13.2043V19.0577H127.162Z" fill="#F7F6F2"/>
<path d="M142.454 12.8105C142.56 13.2028 142.551 13.5906 142.436 13.9697C142.316 14.3488 142.005 14.6309 141.507 14.816C141.005 15.0011 140.578 14.9614 140.218 14.697C139.863 14.4369 139.685 14.1857 139.685 13.9521C139.685 13.5333 139.765 13.2512 139.921 13.1058C140.081 12.9603 140.276 12.8369 140.516 12.7311C140.649 12.6782 140.725 12.6077 140.752 12.5152C140.778 12.4226 140.792 12.3388 140.792 12.2595C140.792 12.1537 140.765 12.0612 140.712 11.9862C140.685 11.9598 140.658 11.9289 140.632 11.8893C140.605 11.8496 140.552 11.8055 140.472 11.7526C140.285 11.6204 140.076 11.5366 139.836 11.497C139.601 11.4573 139.414 11.4397 139.281 11.4397C139.147 11.4397 138.956 11.4661 138.707 11.519C138.454 11.5719 138.227 11.7041 138.014 11.9113C137.801 12.1449 137.659 12.4755 137.579 12.8942C137.579 12.9207 137.57 12.9471 137.561 12.9736C137.548 13 137.539 13.0397 137.539 13.0926V24.6849C137.539 25.1301 137.645 25.3901 137.854 25.4695C138.063 25.5488 138.276 25.5885 138.49 25.5885V26.1791C138.356 26.1791 138.174 26.1968 137.934 26.2364C137.699 26.2761 137.472 26.2452 137.259 26.1395C137.023 26.0337 136.757 25.9808 136.468 25.9808C136.179 25.9808 135.926 26.0337 135.717 26.1395C135.61 26.1923 135.49 26.2232 135.361 26.2364C135.228 26.2496 135.099 26.2541 134.966 26.2541H134.49V25.6238C134.939 25.6238 135.197 25.54 135.263 25.3681C135.33 25.1962 135.361 24.967 135.361 24.6805V14.0314C135.361 13.9785 135.348 13.9124 135.321 13.8331C135.268 13.7008 135.175 13.5995 135.046 13.5201H134.53V13.1278C134.664 13.022 134.832 12.8942 135.046 12.7355C135.228 12.6033 135.477 12.4226 135.779 12.1846C136.081 11.951 136.459 11.6468 136.908 11.281C137.117 11.0959 137.277 11.0738 137.383 11.2016C137.49 11.3339 137.543 11.4881 137.543 11.6733V11.9862C137.703 11.6997 137.912 11.4705 138.179 11.2986C138.441 11.1267 138.747 11.043 139.09 11.043C139.25 11.043 139.445 11.0518 139.685 11.0606C139.921 11.0738 140.107 11.0959 140.241 11.1179C140.503 11.1708 140.689 11.2237 140.796 11.2766C141.005 11.3295 141.303 11.5014 141.689 11.7879C142.071 12.0744 142.329 12.4182 142.462 12.8105H142.454Z" fill="#F7F6F2"/>
<path d="M156.433 25.4769C156.749 25.5694 157.016 25.6135 157.224 25.6135V26.2835C157.091 26.2835 156.86 26.2879 156.531 26.3011C156.202 26.3143 155.931 26.2658 155.718 26.1645C155.482 26.0322 155.207 25.9749 154.905 25.9882C154.603 26.0014 154.345 26.0455 154.132 26.1248C154.025 26.1777 153.905 26.2085 153.776 26.2218C153.643 26.235 153.514 26.2394 153.381 26.2394H152.905V25.6488C153.381 25.6488 153.652 25.5562 153.718 25.3755C153.785 25.1904 153.816 24.9567 153.816 24.6702V6.28559L150.923 26.1248C150.923 26.1512 150.91 26.1645 150.883 26.1645H150.843C150.816 26.1645 150.803 26.1512 150.803 26.1248L147.555 6.32525V24.4366C147.555 25.014 147.755 25.3534 148.15 25.4592C148.546 25.565 148.981 25.6179 149.457 25.6179V26.2482H148.941C148.808 26.2482 148.666 26.2438 148.506 26.2306C148.346 26.2174 148.217 26.1865 148.11 26.1336C147.897 26.0278 147.635 25.9749 147.319 25.9749C147.004 25.9749 146.724 26.041 146.488 26.1733C146.275 26.2791 145.986 26.3187 145.617 26.2923C145.248 26.2658 144.995 26.2526 144.866 26.2526V25.5826C145.075 25.5826 145.297 25.5915 145.519 25.6003C145.742 25.6135 145.942 25.587 146.115 25.5209C146.288 25.4548 146.43 25.3446 146.55 25.1859C146.67 25.0273 146.728 24.7672 146.728 24.4014V2.94452C146.728 2.15995 146.657 1.63543 146.51 1.37096C146.364 1.11091 146.017 0.978675 145.462 0.978675C145.462 0.925782 145.475 0.819996 145.502 0.665726C145.528 0.507047 145.528 0.392446 145.502 0.313107L148.79 0.273438L151.323 17.6002L153.896 0.313107H157.104C157.131 0.366 157.144 0.418893 157.144 0.471786V0.983083C156.616 0.983083 156.287 1.09328 156.153 1.31807C156.02 1.54286 155.954 2.05857 155.954 2.86959V24.6746C155.954 25.1198 156.113 25.3887 156.429 25.4813L156.433 25.4769Z" fill="#F7F6F2"/>
<path d="M168.121 25.4589C168.014 25.6441 167.894 25.7851 167.766 25.8909C167.632 25.9967 167.463 26.0937 167.25 26.1862C167.037 26.2788 166.775 26.3229 166.459 26.3229C165.824 26.3758 165.321 26.1994 164.953 25.7939C164.584 25.3884 164.397 24.8859 164.397 24.2821C164.317 24.4937 164.197 24.7493 164.042 25.049C163.882 25.3488 163.539 25.6837 163.011 26.0496C162.668 26.3096 162.286 26.4375 161.864 26.4242C161.442 26.411 161.126 26.3537 160.913 26.2479C160.251 25.9614 159.731 25.4766 159.349 24.7934C158.967 24.1146 158.762 23.2727 158.736 22.281C158.709 21.8887 158.731 21.4215 158.793 20.8881C158.86 20.3504 159.038 19.8611 159.327 19.4159C159.433 19.2573 159.544 19.1074 159.664 18.9619C159.784 18.8165 159.94 18.6666 160.14 18.5124C160.34 18.3537 160.598 18.1774 160.913 17.9834C161.229 17.7851 161.624 17.5471 162.1 17.2562C162.628 16.9168 163.042 16.6611 163.348 16.4892C163.651 16.3173 163.948 16.0528 164.242 15.6826V13.1702C164.242 12.9101 164.184 12.6853 164.064 12.5002C163.944 12.3151 163.802 12.1608 163.628 12.0286C163.455 11.8964 163.277 11.7994 163.095 11.7333C162.908 11.6672 162.753 11.6363 162.62 11.6363C162.091 11.6363 161.669 11.7289 161.353 11.9096C161.038 12.0947 160.811 12.2886 160.678 12.5002C160.598 12.6324 160.531 12.7999 160.478 13.0115C160.424 13.2231 160.424 13.3906 160.478 13.5228C160.531 13.655 160.602 13.8225 160.695 14.0341C160.789 14.2457 160.833 14.4396 160.833 14.6247C160.78 15.1493 160.518 15.5019 160.042 15.687C159.753 15.7928 159.482 15.7267 159.229 15.4887C158.976 15.255 158.825 15.0303 158.771 14.8187C158.718 14.4264 158.802 13.968 159.029 13.4435C159.251 12.9189 159.722 12.3812 160.433 11.8346C160.749 11.5746 161.1 11.3895 161.482 11.2837C161.864 11.1779 162.255 11.125 162.651 11.125C163.233 11.125 163.726 11.2043 164.135 11.3586C164.544 11.5173 164.886 11.72 165.166 11.9669C165.441 12.2181 165.659 12.4914 165.819 12.7911C165.979 13.0908 166.095 13.3729 166.175 13.6374C166.201 13.7167 166.228 13.849 166.255 14.0297C166.281 14.2148 166.299 14.4088 166.312 14.6203C166.326 14.8319 166.339 15.0214 166.352 15.1889C166.366 15.3608 166.37 15.471 166.37 15.5239V24.8375C166.343 24.9961 166.357 25.124 166.41 25.2297C166.517 25.4898 166.699 25.6353 166.966 25.6617C167.254 25.6881 167.468 25.6088 167.601 25.4281C167.681 25.3488 167.748 25.2562 167.801 25.1548L168.117 25.4678L168.121 25.4589ZM164.237 18.2303V16.2247C164.077 16.4848 163.819 16.736 163.464 16.9697C163.108 17.2033 162.664 17.5338 162.135 17.9526C161.713 18.292 161.406 18.8121 161.224 19.5041C161.038 20.2005 160.949 20.8485 160.949 21.4479V23.6474C160.949 24.0661 160.98 24.4672 161.046 24.8463C161.113 25.2253 161.304 25.5074 161.62 25.6926C161.829 25.8248 162.069 25.8645 162.331 25.8116C162.593 25.7587 162.833 25.6397 163.042 25.4589C163.331 25.2518 163.602 24.9609 163.855 24.595C164.104 24.2292 164.233 23.784 164.233 23.2595V18.2303H164.237Z" fill="#F7F6F2"/>
<path d="M177.031 12.8105C177.137 13.2028 177.128 13.5906 177.013 13.9697C176.893 14.3488 176.582 14.6309 176.084 14.816C175.582 15.0011 175.155 14.9614 174.795 14.697C174.44 14.4369 174.262 14.1857 174.262 13.9521C174.262 13.5333 174.342 13.2512 174.498 13.1058C174.658 12.9603 174.853 12.8369 175.093 12.7311C175.226 12.6782 175.302 12.6077 175.329 12.5152C175.355 12.4226 175.369 12.3388 175.369 12.2595C175.369 12.1537 175.342 12.0612 175.289 11.9862C175.262 11.9598 175.235 11.9289 175.209 11.8893C175.182 11.8496 175.129 11.8055 175.049 11.7526C174.862 11.6204 174.653 11.5366 174.413 11.497C174.178 11.4573 173.991 11.4397 173.858 11.4397C173.724 11.4397 173.533 11.4661 173.284 11.519C173.031 11.5719 172.805 11.7041 172.591 11.9113C172.378 12.1449 172.236 12.4755 172.156 12.8942C172.156 12.9207 172.147 12.9471 172.138 12.9736C172.125 13 172.12 13.0397 172.12 13.0926V24.6849C172.12 25.1301 172.227 25.3901 172.436 25.4695C172.645 25.5488 172.858 25.5885 173.071 25.5885V26.1791C172.938 26.1791 172.756 26.1968 172.516 26.2364C172.28 26.2761 172.054 26.2452 171.84 26.1395C171.605 26.0337 171.338 25.9808 171.049 25.9808C170.76 25.9808 170.507 26.0337 170.298 26.1395C170.192 26.1923 170.072 26.2232 169.943 26.2364C169.809 26.2496 169.681 26.2541 169.547 26.2541H169.072V25.6238C169.521 25.6238 169.778 25.54 169.845 25.3681C169.912 25.1962 169.943 24.967 169.943 24.6805V14.0314C169.943 13.9785 169.929 13.9124 169.903 13.8331C169.849 13.7008 169.756 13.5995 169.627 13.5201H169.112V13.1278C169.245 13.022 169.414 12.8942 169.627 12.7355C169.814 12.6033 170.058 12.4226 170.36 12.1846C170.663 11.951 171.04 11.6468 171.489 11.281C171.698 11.0959 171.858 11.0738 171.965 11.2016C172.071 11.3339 172.125 11.4881 172.125 11.6733V11.9862C172.285 11.6997 172.494 11.4705 172.76 11.2986C173.022 11.1267 173.329 11.043 173.671 11.043C173.831 11.043 174.027 11.0518 174.267 11.0606C174.502 11.0738 174.689 11.0959 174.822 11.1179C175.084 11.1708 175.271 11.2237 175.378 11.2766C175.586 11.3295 175.884 11.5014 176.271 11.7879C176.653 12.0744 176.911 12.4182 177.044 12.8105H177.031Z" fill="#F7F6F2"/>
<path d="M187.963 24.5172C187.856 24.8566 187.709 25.174 187.527 25.4605C187.367 25.6941 187.172 25.9057 186.932 26.0908C186.696 26.2759 186.403 26.3641 186.061 26.3641C185.692 26.3641 185.363 26.3464 185.07 26.3068C184.781 26.2671 184.514 26.104 184.279 25.8175C184.225 25.7646 184.114 25.5707 183.941 25.2269C183.768 24.8875 183.559 24.4599 183.305 23.9486C183.052 23.4373 182.777 22.882 182.474 22.2781C182.172 21.6743 181.879 21.1012 181.603 20.5503C181.328 19.9993 181.07 19.5101 180.83 19.0781C180.595 18.6461 180.421 18.3376 180.315 18.1569L180.039 18.4302V24.6363C180.039 25.0814 180.146 25.3503 180.355 25.4429C180.564 25.5354 180.777 25.5795 180.99 25.5795V26.1701C180.857 26.1701 180.675 26.1878 180.435 26.2274C180.199 26.2671 179.973 26.2363 179.759 26.1305C179.546 26.0247 179.297 25.9718 179.008 25.9718C178.719 25.9718 178.466 26.0247 178.257 26.1305C178.044 26.2098 177.795 26.2495 177.506 26.2495C177.346 26.2495 177.191 26.2363 177.031 26.2098V25.6192C177.48 25.6192 177.728 25.5266 177.782 25.3459C177.835 25.1608 177.862 24.9272 177.862 24.6407V2.9458C177.888 2.89291 177.888 2.82679 177.862 2.74745C177.808 2.56673 177.715 2.44772 177.586 2.39483H177.111L177.071 2.04221C177.204 1.93643 177.373 1.8086 177.586 1.64992C177.773 1.51769 178.008 1.32816 178.297 1.08133C178.586 0.834494 178.955 0.525953 179.408 0.160111C179.644 -0.0250134 179.813 -0.0470521 179.901 0.0807722C179.995 0.213004 180.039 0.367275 180.039 0.5524V17.4869L184.474 12.3783C184.581 12.1932 184.607 12.0566 184.554 11.964C184.501 11.8715 184.407 11.8186 184.279 11.8053C184.145 11.7921 184.003 11.7921 183.843 11.8053C183.683 11.8186 183.554 11.823 183.448 11.823V11.2323C183.581 11.2323 183.75 11.2191 183.963 11.1927C184.172 11.1662 184.385 11.2059 184.599 11.3117C184.807 11.4175 185.056 11.4704 185.332 11.4704C185.607 11.4704 185.838 11.4175 186.025 11.3117C186.105 11.2588 186.203 11.2323 186.323 11.2323H187.136V11.7833C186.923 11.7833 186.745 11.7789 186.603 11.7657C186.456 11.7524 186.318 11.7613 186.185 11.7833C186.052 11.8097 185.923 11.867 185.79 11.9596C185.656 12.0522 185.501 12.202 185.314 12.4136L181.83 16.4202L184.048 20.6649C184.31 21.1894 184.581 21.7051 184.861 22.2164C185.136 22.7277 185.381 23.1773 185.594 23.574C185.803 23.9663 186.043 24.4115 186.305 24.9095C186.412 25.0153 186.527 25.0814 186.66 25.1079C186.82 25.1343 186.949 25.1079 187.056 25.0285C187.163 24.9492 187.256 24.8566 187.332 24.7553C187.411 24.6495 187.478 24.5216 187.531 24.363L187.967 24.5216L187.963 24.5172Z" fill="#F7F6F2"/>
<path d="M194.975 17.8765C194.686 18.0351 194.419 18.1497 194.184 18.2291C193.948 18.3084 193.802 18.3613 193.748 18.3878L193.153 18.5068C192.939 18.5597 192.722 18.617 192.499 18.6831C192.273 18.7492 192.068 18.8197 191.886 18.8991L191.651 19.0181C191.491 19.1238 191.353 19.2208 191.233 19.3134C191.113 19.4059 191.029 19.5161 190.975 19.6484C190.949 19.6748 190.935 19.7145 190.935 19.7674V23.5801C190.935 24.1839 191.086 24.66 191.393 25.0126C191.695 25.3652 192.06 25.568 192.482 25.6208C193.299 25.6737 193.948 25.471 194.424 25.0126C194.899 24.5542 195.228 24.0385 195.415 23.4611C195.441 23.3288 195.472 23.1922 195.512 23.0467C195.552 22.9013 195.583 22.7646 195.61 22.6324C195.637 22.4737 195.663 22.3195 195.69 22.1608C195.743 22.1343 195.855 22.1299 196.028 22.1431C196.201 22.1564 196.312 22.1608 196.366 22.1608C196.339 22.3459 196.312 22.5398 196.286 22.7514C196.232 22.9365 196.188 23.1393 196.148 23.3597C196.108 23.5845 196.05 23.8005 195.97 24.0076C195.681 24.7922 195.241 25.4005 194.664 25.8324C194.081 26.2644 193.424 26.4804 192.682 26.4804H192.522C191.94 26.4804 191.451 26.3966 191.055 26.2247C190.66 26.0528 190.322 25.8456 190.047 25.5944C189.771 25.3476 189.544 25.0787 189.376 24.7878C189.202 24.5013 189.078 24.2236 188.998 23.9635C188.944 23.8842 188.913 23.752 188.9 23.5712C188.887 23.3861 188.864 23.2054 188.842 23.0203C188.816 22.8131 188.802 22.5883 188.802 22.3503V14.6103C188.856 14.2445 188.936 13.8786 189.038 13.5084C189.144 13.2219 189.3 12.9045 189.513 12.5651C189.722 12.2257 190.015 11.9216 190.384 11.6616C190.94 11.2428 191.637 11.0312 192.482 11.0312H192.642C193.224 11.0312 193.73 11.1238 194.166 11.3045C194.601 11.4897 194.97 11.71 195.277 11.9745C195.579 12.2346 195.823 12.5299 196.01 12.8605C196.192 13.1866 196.312 13.4819 196.366 13.7464C196.601 14.6632 196.61 15.4302 196.383 16.0428C196.157 16.6599 195.939 17.0698 195.73 17.2814C195.521 17.493 195.375 17.6208 195.295 17.6737C195.215 17.7266 195.108 17.7927 194.979 17.8721L194.975 17.8765ZM190.935 19.0577C191.069 18.877 191.26 18.7183 191.509 18.5861C191.757 18.4539 192.024 18.326 192.3 18.1938C192.575 18.0616 192.859 17.9117 193.153 17.7442C193.442 17.5723 193.708 17.3563 193.944 17.0963C194.126 16.8627 194.268 16.5806 194.361 16.25C194.455 15.9238 194.513 15.58 194.539 15.2274C194.566 14.8748 194.557 14.5266 194.521 14.1872C194.481 13.8478 194.45 13.5348 194.424 13.2439C194.397 13.1117 194.326 12.9222 194.206 12.6753C194.086 12.4285 193.922 12.1861 193.713 11.9481C193.579 11.7894 193.41 11.666 193.197 11.5734C192.984 11.4808 192.815 11.4368 192.682 11.4368C192.548 11.4368 192.357 11.4632 192.108 11.5161C191.855 11.569 191.629 11.7012 191.415 11.9084C191.202 12.142 191.06 12.4726 190.98 12.8913C190.953 12.9971 190.94 13.1029 190.94 13.2043V19.0577H190.935Z" fill="#F7F6F2"/>
<path d="M205.391 24.1661C205.445 24.219 205.511 24.2587 205.591 24.2851C205.698 24.3645 205.791 24.4042 205.867 24.4042C205.707 24.7436 205.542 25.0521 205.373 25.3254C205.2 25.5987 205.009 25.8411 204.8 26.0526C204.538 26.3392 204.231 26.5287 203.889 26.6212C203.547 26.7138 203.254 26.7579 203.018 26.7579C202.436 26.7579 201.956 26.6874 201.574 26.5419C201.192 26.3965 200.872 26.2069 200.623 25.9733C200.37 25.7397 200.174 25.4752 200.028 25.1887C199.881 24.9022 199.77 24.6245 199.69 24.3645C199.636 24.2058 199.605 24.0383 199.592 23.8532C199.579 23.6681 199.574 23.5402 199.574 23.4609V11.2427H198.028V10.771C198.237 10.771 198.45 10.7578 198.663 10.7314C198.845 10.7049 199.032 10.6608 199.219 10.5947C199.401 10.5286 199.561 10.4184 199.694 10.2597C199.956 9.97324 200.17 9.62944 200.33 9.23715C200.49 8.84486 200.619 8.4658 200.725 8.09995C200.832 7.68122 200.925 7.26248 201.001 6.84375H201.792V10.771H204.525V11.2427H201.792V24.4042C201.818 24.77 201.974 25.1182 202.267 25.4444C202.556 25.7706 202.889 25.9601 203.258 26.013C203.547 26.0394 203.894 25.9292 204.289 25.678C204.685 25.4312 205.053 24.9243 205.4 24.1661H205.391Z" fill="#F7F6F2"/>
<path d="M25.1195 0.637289C23.7464 3.17174 22.5688 5.86486 20.8313 8.18773C19.9381 9.37782 18.876 10.4401 17.6495 11.2864C16.4319 12.1238 15.0499 12.6351 13.7967 13.4065C11.5837 14.7729 8.94408 15.4296 6.49554 16.2627C4.44695 16.9591 2.62054 17.6996 1.18519 19.3922C-0.503456 21.3845 -0.459018 24.5889 1.78066 26.1228C1.93619 26.2286 2.08284 25.9773 1.92731 25.8716C0.283098 24.7564 0.00313804 22.9272 0.55417 21.1288C0.909675 19.9652 1.74511 19.1542 2.66498 18.396C4.36251 16.9944 6.73551 16.4919 8.78855 15.8043C9.8995 15.4296 11.0149 15.0462 12.0947 14.5878C13.1035 14.1602 13.9789 13.5652 14.9388 13.0495C16.1564 12.3927 17.3607 11.9035 18.4627 11.0439C19.3604 10.3431 20.1514 9.52769 20.849 8.63732C22.7154 6.25274 23.9375 3.43179 25.3684 0.787152C25.4573 0.624066 25.204 0.478611 25.1151 0.641697L25.1195 0.637289Z" fill="#F7F6F2"/>
<path d="M0.971734 24.969C1.47833 25.6963 2.39375 26.2649 3.30029 26.3751C3.52692 26.4148 3.75356 26.4192 3.98019 26.3839C4.20683 26.3486 4.37569 26.2076 4.49123 25.952C4.58455 25.7492 4.61121 25.5244 4.57566 25.2776C4.54011 25.0307 4.50456 24.7927 4.47345 24.5723C4.41568 24.374 4.38902 24.2065 4.39791 24.0699C4.4068 23.9332 4.46901 23.7878 4.58899 23.6335C4.85118 23.3249 5.16224 23.1751 5.51331 23.1883C5.86437 23.2236 6.14877 23.3955 6.36207 23.6952C6.57538 23.9993 6.65092 24.3255 6.58871 24.6781C6.50427 25.0572 6.32208 25.401 6.04656 25.7095C5.77105 26.0181 5.45998 26.2561 5.11336 26.4192C4.549 26.7145 3.93575 26.8159 3.27807 26.7145C2.29154 26.5514 1.50499 26.0842 0.922852 25.3128" fill="#F7F6F2"/>
</svg>
