<svg width="245" height="35" viewBox="0 0 245 35" fill="none" xmlns="http://www.w3.org/2000/svg">
<path d="M23.4945 18.6898C23.5897 18.8949 23.6531 19.1741 23.6849 19.5274C23.7166 19.8806 23.7325 20.1313 23.7325 20.2624V29.863C23.669 30.3359 23.5738 30.8089 23.4522 31.2875C23.3253 31.692 23.1402 32.1193 22.8863 32.5581C22.6325 32.9968 22.2887 33.3899 21.8498 33.7261C21.5377 33.9654 21.1728 34.1591 20.7656 34.313C20.3584 34.4668 19.8877 34.5409 19.3536 34.5409H19.2108C18.9569 34.5409 18.6819 34.5067 18.3858 34.4383C18.0843 34.3699 17.8146 34.2503 17.5608 34.085C17.3069 33.9141 17.0901 33.6976 16.8997 33.4241C16.7093 33.1563 16.5242 32.7803 16.3338 32.3074C16.2387 32.5467 16.154 32.729 16.0747 32.8657C15.9954 33.0025 15.9584 33.0879 15.9584 33.1221C15.8314 33.2931 15.6516 33.4526 15.4189 33.6064C15.181 33.7603 14.9377 33.8685 14.6891 33.9369C14.5305 33.9711 14.3771 33.9882 14.2184 33.9882H13.7478C13.5891 33.9882 13.4199 33.9711 13.2295 33.9369V33.1221C13.7636 33.1221 14.0598 33.0139 14.1232 32.7917C14.1867 32.5695 14.2184 32.2732 14.2184 31.9028V4.82153C14.2819 4.34862 14.3771 3.87571 14.4987 3.3971C14.6257 2.99256 14.8108 2.57663 15.0646 2.155C15.3132 1.73336 15.6622 1.33452 16.1012 0.964172C16.7305 0.525447 17.3916 0.263352 18.0791 0.177886C18.7719 0.09242 19.4382 0.172188 20.0834 0.405795C20.7286 0.645099 21.3156 1.01545 21.8498 1.52255C22.3839 2.02965 22.7911 2.67349 23.0767 3.45408C23.1402 3.69338 23.193 4.00676 23.2406 4.3942C23.2882 4.78165 23.3094 5.04374 23.3094 5.18049V11.1745C23.3094 12.1203 23.0503 13.0377 22.532 13.9151C22.0137 14.7982 21.2998 15.3851 20.3848 15.6928C20.3214 15.727 20.2738 15.7441 20.2421 15.7441C20.2103 15.7441 20.1627 15.7612 20.0993 15.7953C21.1993 15.9321 21.9978 16.2854 22.5055 16.8608C23.0079 17.4363 23.3358 18.046 23.4945 18.6898ZM16.8045 17.0659C17.0531 16.8266 17.3228 16.6272 17.6084 16.4563C17.8887 16.2854 18.206 16.1201 18.5497 15.9492C18.6767 15.8808 18.8618 15.8067 19.1156 15.7213C19.3642 15.6358 19.6021 15.4649 19.8243 15.2142C20.0411 14.9578 20.2421 14.5874 20.4113 14.0974C20.5858 13.6074 20.6704 12.9408 20.6704 12.0918V3.70478C20.6704 3.4028 20.6493 3.07803 20.6017 2.74186C20.5541 2.4057 20.4695 2.08093 20.3425 1.77895C20.2156 1.47697 20.0358 1.22057 19.8031 1.01545C19.5651 0.810333 19.2584 0.713472 18.8829 0.713472C18.7243 0.713472 18.4968 0.736263 18.2007 0.787542C17.8992 0.838822 17.6295 0.998358 17.3757 1.27185C17.0002 1.77895 16.8098 2.50826 16.8098 3.45408V17.0659H16.8045ZM20.6651 33.4184C21.0406 33.0139 21.231 32.2846 21.231 31.2362V18.8949C21.1675 18.724 21.12 18.4277 21.0882 18.0061C21.0565 17.5844 20.882 17.2027 20.5699 16.8608C20.3161 16.593 20.0887 16.4221 19.8877 16.3537C19.6815 16.2854 19.5017 16.2512 19.343 16.2512C19.1526 16.2512 18.9834 16.274 18.8247 16.3252C18.6661 16.3765 18.4651 16.4848 18.2113 16.6557C17.7723 16.895 17.3651 17.1628 16.9843 17.4705C16.9526 17.5047 16.9209 17.5275 16.8891 17.5446C16.8574 17.5616 16.8257 17.5844 16.7939 17.6186V31.0766C16.8257 31.4812 16.8574 31.8401 16.8891 32.1421C16.9209 32.4441 17.0161 32.7347 17.1694 33.0082C17.3598 33.3102 17.5608 33.5324 17.7829 33.6691C18.2536 33.9711 18.7401 34.1021 19.2425 34.0509C19.7449 33.9996 20.2156 33.7888 20.6546 33.4184H20.6651Z" fill="#3A6F5B"/>
<path d="M28.4776 3.69948C28.7473 3.24936 29.181 2.04714 29.4084 1.59133C29.6252 1.1583 29.7469 0.725271 30.281 0.25236C30.5296 0.0130557 30.72 -0.0211307 30.8469 0.149801C30.9738 0.320733 31.0373 0.50306 31.0373 0.708178V31.8406C31.0373 32.416 31.1642 32.7636 31.4128 32.8832C31.6613 33.0029 31.9152 33.0599 32.169 33.0599V33.9259C32.0104 33.9259 31.7935 33.9316 31.5079 33.9487C31.2277 33.9658 30.9579 33.9088 30.7041 33.7721C30.4238 33.6353 30.1171 33.567 29.7839 33.567C29.4507 33.567 29.1651 33.6353 28.9113 33.7721C28.7844 33.8405 28.6416 33.8803 28.4882 33.8974C28.3296 33.9145 28.1762 33.9202 28.0175 33.9202H27.4517V33.1054C27.9858 33.1054 28.282 32.9858 28.3454 32.7522C28.4089 32.5129 28.4406 32.2109 28.4406 31.8406V30.8264L28.6733 4.55984C28.6733 4.43449 28.6204 4.13821 28.5094 4.30344" fill="#3A6F5B"/>
<path d="M42.2593 23.1064C41.9156 23.3115 41.5983 23.4596 41.318 23.5622C41.0377 23.6648 40.8632 23.7331 40.7997 23.7673L40.091 23.9212C39.8372 23.9895 39.578 24.0636 39.3136 24.1491C39.0439 24.2345 38.8006 24.3257 38.5838 24.4283L38.3035 24.5821C38.1131 24.7188 37.9492 24.8442 37.8064 24.9638C37.6636 25.0835 37.5631 25.2259 37.4997 25.3969C37.4679 25.4311 37.4521 25.4823 37.4521 25.5507V30.4792C37.4521 31.2598 37.6319 31.8752 37.9968 32.331C38.3564 32.7868 38.7901 33.0489 39.2925 33.1173C40.2655 33.1857 41.0377 32.9236 41.6035 32.331C42.1694 31.7384 42.5608 31.0718 42.7829 30.3254C42.8146 30.1545 42.8516 29.9778 42.8992 29.7898C42.9468 29.6018 42.9838 29.4252 43.0156 29.2542C43.0473 29.0491 43.079 28.8497 43.1108 28.6446C43.1742 28.6104 43.3064 28.6047 43.5127 28.6218C43.7189 28.6389 43.8512 28.6446 43.9146 28.6446C43.8829 28.8839 43.8512 29.1346 43.8194 29.4081C43.756 29.6474 43.7031 29.9095 43.6555 30.1944C43.6079 30.4849 43.5391 30.7641 43.4439 31.0319C43.1002 32.0461 42.5766 32.8324 41.8891 33.3908C41.1963 33.9492 40.4136 34.2283 39.5304 34.2283H39.3401C38.6473 34.2283 38.0655 34.1201 37.5948 33.8979C37.1242 33.6757 36.7222 33.4079 36.3944 33.0831C36.0665 32.764 35.7968 32.4165 35.5958 32.0404C35.3895 31.6701 35.2415 31.3111 35.1463 30.9749C35.0828 30.8724 35.0458 30.7014 35.0299 30.4678C35.0141 30.2285 34.9876 29.9949 34.9612 29.7556C34.9294 29.4878 34.9136 29.1972 34.9136 28.8896V18.8844C34.977 18.4115 35.0722 17.9385 35.1939 17.4599C35.3208 17.0896 35.5059 16.6793 35.7597 16.2406C36.0083 15.8019 36.3573 15.4088 36.7963 15.0726C37.4573 14.5313 38.2876 14.2578 39.2925 14.2578H39.4828C40.1756 14.2578 40.7785 14.3775 41.2968 14.6111C41.8151 14.8504 42.254 15.1353 42.6189 15.4771C42.9786 15.8133 43.2694 16.195 43.4915 16.6224C43.7084 17.044 43.8512 17.4257 43.9146 17.7676C44.1949 18.9527 44.2055 19.9441 43.9358 20.7361C43.6661 21.5338 43.4069 22.0637 43.1584 22.3372C42.9045 22.6107 42.7353 22.7759 42.6401 22.8443C42.5449 22.9127 42.418 22.9981 42.2646 23.1007L42.2593 23.1064ZM37.4521 24.6334C37.6107 24.3998 37.8381 24.1946 38.1343 24.0237C38.4304 23.8528 38.7477 23.6875 39.0756 23.5166C39.4035 23.3457 39.742 23.152 40.091 22.9354C40.4348 22.7132 40.7521 22.434 41.0324 22.0979C41.2492 21.7959 41.4184 21.4312 41.5295 21.0039C41.6406 20.5823 41.7093 20.1379 41.741 19.682C41.7728 19.2262 41.7622 18.7761 41.7199 18.3374C41.6723 17.8987 41.6353 17.4941 41.6035 17.1181C41.5718 16.9471 41.4872 16.7021 41.3444 16.3831C41.2016 16.064 41.0059 15.7506 40.7574 15.4429C40.5987 15.2378 40.3978 15.0783 40.1439 14.9586C39.8901 14.839 39.6891 14.782 39.5304 14.782C39.3718 14.782 39.1444 14.8162 38.8482 14.8846C38.5468 14.9529 38.2771 15.1239 38.0232 15.3917C37.7694 15.6936 37.6001 16.121 37.5049 16.6623C37.4732 16.799 37.4573 16.9357 37.4573 17.0668V24.6334H37.4521Z" fill="#3A6F5B"/>
<path d="M55.1724 27.3748C55.2359 27.7793 55.257 28.2579 55.2411 28.7992C55.2253 29.3405 55.1565 29.8761 55.0296 30.4003C54.9027 30.9245 54.7176 31.443 54.4637 31.9501C54.2099 32.4572 53.8661 32.8845 53.4272 33.2206C52.9565 33.591 52.4753 33.8645 51.9887 34.0354C51.5022 34.2064 51.0368 34.2918 50.5978 34.2918C50.0637 34.2918 49.5983 34.2064 49.2069 34.0354C48.8156 33.8645 48.4454 33.6993 48.1017 33.5283C47.9747 33.4599 47.8214 33.3745 47.631 33.2719C47.4406 33.1694 47.2555 33.1694 47.0651 33.2719C46.9382 33.3403 46.843 33.4941 46.7848 33.7277C46.7531 33.8303 46.7531 33.9158 46.7848 33.9841H46.1237L46.0762 28.5998H46.9699C47.0016 29.0385 47.081 29.5399 47.2079 30.0983C47.3348 30.6567 47.5199 31.1239 47.7738 31.4942C47.9906 31.8304 48.3396 32.2406 48.8103 32.7135C49.281 33.1865 49.8627 33.4429 50.5555 33.477C51.4334 33.477 52.0892 33.1466 52.5123 32.4856C52.9353 31.8247 53.1786 31.1752 53.2421 30.5313C53.3055 29.7507 53.2209 29.0841 52.9829 28.5257C52.745 27.9673 52.4541 27.4488 52.1103 26.9759C51.9517 26.7708 51.719 26.5258 51.4017 26.2409C51.0897 25.956 50.7565 25.6769 50.4127 25.4034C50.069 25.1356 49.7464 24.8849 49.4449 24.6684C49.1435 24.4461 48.9478 24.3037 48.8579 24.2353C48.5142 23.9618 48.1651 23.677 47.8214 23.3693C47.5411 23.1015 47.2608 22.8052 46.9964 22.4804C46.7266 22.1614 46.5151 21.8138 46.3617 21.4378C46.2983 21.2668 46.2189 20.9534 46.1237 20.4976C46.0286 20.0418 45.981 19.5347 45.981 18.9763C45.981 18.418 46.0603 17.8425 46.2189 17.2499C46.3776 16.6574 46.6896 16.1047 47.1603 15.5976C48.0699 14.6176 49.1223 14.1618 50.3175 14.2244C50.8834 14.2586 51.3488 14.3327 51.7084 14.4523C52.068 14.572 52.3906 14.7144 52.6762 14.8854C52.7714 14.9537 52.9036 15.0278 53.0781 15.1133C53.2527 15.1987 53.4166 15.1532 53.5753 14.9879C53.7022 14.8512 53.7656 14.703 53.7656 14.5321V14.2757C53.8291 14.3099 53.9084 14.327 54.0036 14.327C54.0671 14.327 54.1306 14.3384 54.194 14.3498C54.2575 14.3669 54.3051 14.3726 54.3368 14.3726V20.264H53.443C53.443 19.6544 53.4007 19.0561 53.3267 18.4635C53.2474 17.871 52.9882 17.2214 52.5493 16.5092C52.2954 16.1389 51.9623 15.7799 51.5339 15.4437C51.1108 15.1076 50.6296 14.9537 50.0954 14.9879C49.4978 14.9879 49.0166 15.0791 48.6569 15.2671C48.2973 15.4551 48.0117 15.683 47.8108 15.9508C47.6045 16.2243 47.4723 16.5035 47.4089 16.7884C47.3454 17.079 47.3295 17.324 47.3613 17.5234C47.4565 18.1331 47.7156 18.7256 48.1387 19.3011C48.5618 19.8766 49.2598 20.5204 50.2382 21.2326C50.3969 21.3352 50.6454 21.5118 50.9945 21.7682C51.3382 22.0246 51.7031 22.2924 52.0786 22.583C52.4541 22.8736 52.819 23.1699 53.1628 23.4718C53.5065 23.7738 53.7604 24.0473 53.919 24.2866C54.358 24.9646 54.6647 25.5116 54.8392 25.939C55.0137 26.3606 55.1301 26.8449 55.1935 27.3862L55.1724 27.3748Z" fill="#3A6F5B"/>
<path d="M66.8174 27.3748C66.8809 27.7793 66.902 28.2579 66.8862 28.7992C66.8703 29.3405 66.8015 29.8761 66.6746 30.4003C66.5477 30.9245 66.3626 31.443 66.1087 31.9501C65.8549 32.4572 65.5111 32.8845 65.0722 33.2206C64.6015 33.591 64.1203 33.8645 63.6337 34.0354C63.1472 34.2064 62.6818 34.2918 62.2428 34.2918C61.7087 34.2918 61.2433 34.2064 60.852 34.0354C60.4606 33.8645 60.0904 33.6993 59.7467 33.5283C59.6197 33.4599 59.4664 33.3745 59.276 33.2719C59.0856 33.1694 58.9005 33.1694 58.7101 33.2719C58.5832 33.3403 58.488 33.4941 58.4298 33.7277C58.3981 33.8303 58.3981 33.9158 58.4298 33.9841H57.7688L57.7212 28.5998H58.6149C58.6467 29.0385 58.726 29.5399 58.8529 30.0983C58.9798 30.6567 59.1649 31.1239 59.4188 31.4942C59.6356 31.8304 59.9847 32.2406 60.4553 32.7135C60.926 33.1865 61.5077 33.4429 62.2005 33.477C63.0784 33.477 63.7342 33.1466 64.1573 32.4856C64.5804 31.8247 64.8236 31.1752 64.8871 30.5313C64.9506 29.7507 64.8659 29.0841 64.628 28.5257C64.39 27.9673 64.0991 27.4488 63.7554 26.9759C63.5967 26.7708 63.364 26.5258 63.0467 26.2409C62.7347 25.956 62.4015 25.6769 62.0577 25.4034C61.714 25.1356 61.3914 24.8849 61.0899 24.6684C60.7885 24.4461 60.5928 24.3037 60.5029 24.2353C60.1592 23.9618 59.8101 23.677 59.4664 23.3693C59.1861 23.1015 58.9058 22.8052 58.6414 22.4804C58.3717 22.1614 58.1601 21.8138 58.0067 21.4378C57.9433 21.2668 57.864 20.9534 57.7688 20.4976C57.6736 20.0418 57.626 19.5347 57.626 18.9763C57.626 18.418 57.7053 17.8425 57.864 17.2499C58.0226 16.6574 58.3346 16.1047 58.8053 15.5976C59.7149 14.6176 60.7674 14.1618 61.9626 14.2244C62.5284 14.2586 62.9938 14.3327 63.3534 14.4523C63.7131 14.572 64.0357 14.7144 64.3212 14.8854C64.4164 14.9537 64.5486 15.0278 64.7232 15.1133C64.8977 15.1987 65.0616 15.1532 65.2203 14.9879C65.3472 14.8512 65.4107 14.703 65.4107 14.5321V14.2757C65.4741 14.3099 65.5535 14.327 65.6486 14.327C65.7121 14.327 65.7756 14.3384 65.839 14.3498C65.9025 14.3669 65.9501 14.3726 65.9818 14.3726V20.264H65.0881C65.0881 19.6544 65.0458 19.0561 64.9717 18.4635C64.8924 17.871 64.6333 17.2214 64.1943 16.5092C63.9405 16.1389 63.6073 15.7799 63.1789 15.4437C62.7558 15.1076 62.2746 14.9537 61.7404 14.9879C61.1428 14.9879 60.6616 15.0791 60.302 15.2671C59.9423 15.4551 59.6568 15.683 59.4558 15.9508C59.2495 16.2243 59.1173 16.5035 59.0539 16.7884C58.9904 17.079 58.9745 17.324 59.0063 17.5234C59.1015 18.1331 59.3606 18.7256 59.7837 19.3011C60.2068 19.8766 60.9049 20.5204 61.8832 21.2326C62.0419 21.3352 62.2904 21.5118 62.6395 21.7682C62.9832 22.0246 63.3481 22.2924 63.7236 22.583C64.0991 22.8736 64.464 23.1699 64.8078 23.4718C65.1515 23.7738 65.4054 24.0473 65.564 24.2866C66.003 24.9646 66.3097 25.5116 66.4842 25.939C66.6588 26.3606 66.7751 26.8449 66.8386 27.3862L66.8174 27.3748Z" fill="#3A6F5B"/>
<path d="M76.4805 23.1064C76.1368 23.3115 75.8194 23.4596 75.5392 23.5622C75.2589 23.6648 75.0843 23.7331 75.0209 23.7673L74.3122 23.9212C74.0584 23.9895 73.7992 24.0636 73.5348 24.1491C73.2651 24.2345 73.0218 24.3257 72.805 24.4283L72.5247 24.5821C72.3343 24.7188 72.1704 24.8442 72.0276 24.9638C71.8848 25.0835 71.7843 25.2259 71.7208 25.3969C71.6891 25.4311 71.6732 25.4823 71.6732 25.5507V30.4792C71.6732 31.2598 71.8531 31.8752 72.218 32.331C72.5776 32.7868 73.0112 33.0489 73.5137 33.1173C74.4867 33.1857 75.2589 32.9236 75.8247 32.331C76.3906 31.7384 76.7819 31.0718 77.0041 30.3254C77.0358 30.1545 77.0728 29.9778 77.1204 29.7898C77.168 29.6018 77.205 29.4252 77.2368 29.2542C77.2685 29.0491 77.3002 28.8497 77.332 28.6446C77.3954 28.6104 77.5276 28.6047 77.7339 28.6218C77.9401 28.6389 78.0723 28.6446 78.1358 28.6446C78.1041 28.8839 78.0723 29.1346 78.0406 29.4081C77.9772 29.6474 77.9243 29.9095 77.8767 30.1944C77.8291 30.4849 77.7603 30.7641 77.6651 31.0319C77.3214 32.0461 76.7978 32.8324 76.1103 33.3908C75.4175 33.9492 74.6348 34.2283 73.7516 34.2283H73.5612C72.8685 34.2283 72.2867 34.1201 71.816 33.8979C71.3454 33.6757 70.9434 33.4079 70.6155 33.0831C70.2877 32.764 70.0179 32.4165 69.817 32.0404C69.6107 31.6701 69.4626 31.3111 69.3675 30.9749C69.304 30.8724 69.267 30.7014 69.2511 30.4678C69.2352 30.2285 69.2088 29.9949 69.1824 29.7556C69.1506 29.4878 69.1348 29.1972 69.1348 28.8896V18.8844C69.1982 18.4115 69.2934 17.9385 69.4151 17.4599C69.542 17.0896 69.7271 16.6793 69.9809 16.2406C70.2295 15.8019 70.5785 15.4088 71.0175 15.0726C71.6785 14.5313 72.5088 14.2578 73.5137 14.2578H73.704C74.3968 14.2578 74.9997 14.3775 75.518 14.6111C76.0363 14.8504 76.4752 15.1353 76.8401 15.4771C77.1997 15.8133 77.4906 16.195 77.7127 16.6224C77.9348 17.044 78.0723 17.4257 78.1358 17.7676C78.4161 18.9527 78.4267 19.9441 78.157 20.7361C77.8873 21.5338 77.6281 22.0637 77.3796 22.3372C77.1257 22.6107 76.9565 22.7759 76.8613 22.8443C76.7661 22.9127 76.6392 22.9981 76.4858 23.1007L76.4805 23.1064ZM71.6732 24.6334C71.8319 24.3998 72.0593 24.1946 72.3555 24.0237C72.6516 23.8528 72.9689 23.6875 73.2968 23.5166C73.6247 23.3457 73.9632 23.152 74.3122 22.9354C74.656 22.7132 74.9733 22.434 75.2536 22.0979C75.4704 21.7959 75.6396 21.4312 75.7507 21.0039C75.8617 20.5823 75.9305 20.1379 75.9622 19.682C75.994 19.2262 75.9834 18.7761 75.9411 18.3374C75.8935 17.8987 75.8565 17.4941 75.8247 17.1181C75.793 16.9471 75.7084 16.7021 75.5656 16.3831C75.4228 16.064 75.2271 15.7506 74.9786 15.4429C74.8199 15.2378 74.619 15.0783 74.3651 14.9586C74.1113 14.839 73.9103 14.782 73.7516 14.782C73.593 14.782 73.3656 14.8162 73.0694 14.8846C72.768 14.9529 72.4983 15.1239 72.2444 15.3917C71.9906 15.6936 71.8213 16.121 71.7261 16.6623C71.6944 16.799 71.6785 16.9357 71.6785 17.0668V24.6334H71.6732Z" fill="#3A6F5B"/>
<path d="M89.7749 31.8395C89.7749 32.2099 89.8066 32.5176 89.8701 32.7512C89.9335 32.9905 90.2297 33.1044 90.7638 33.1044V33.8679C90.5735 33.9021 90.4042 33.9192 90.2456 33.9192H89.7484C89.5739 33.9192 89.4258 33.9021 89.2989 33.8679C89.0451 33.7996 88.8018 33.6913 88.5691 33.5375C88.3311 33.3836 88.1513 33.2241 88.0244 33.0532C88.0244 33.019 87.9821 32.9335 87.908 32.7968C87.8287 32.66 87.7441 32.4948 87.6489 32.2897C87.4268 32.8309 87.1306 33.2868 86.7551 33.6628C86.3797 34.0332 85.8773 34.2212 85.2479 34.2212H85.1051C84.1003 34.2212 83.2647 33.9477 82.609 33.4064C82.17 33.0703 81.821 32.6885 81.5724 32.2612C81.3186 31.8395 81.1335 31.4236 81.0065 31.0191C80.8796 30.5803 80.8003 30.1074 80.7686 29.5946V18.5752C80.7686 18.2733 80.832 17.9143 80.9589 17.5098C81.0541 17.1736 81.1969 16.8089 81.382 16.4158C81.5724 16.0284 81.8315 15.6694 82.1594 15.3503C82.4873 15.0313 82.8998 14.7635 83.3864 14.564C83.8729 14.3589 84.4599 14.2621 85.1527 14.2621H85.3431C85.7186 14.2621 86.0676 14.3703 86.3797 14.5925C86.6917 14.8147 86.9455 15.111 87.1359 15.4814V4.06313C87.1677 3.99476 87.1677 3.90929 87.1359 3.80673C87.0725 3.60162 86.9455 3.47057 86.7604 3.4022C86.697 3.36801 86.5859 3.35092 86.4325 3.35092H86.1946V2.8951C86.3532 2.75835 86.5542 2.59312 86.808 2.388C87.0249 2.21707 87.3104 1.98346 87.6542 1.67579C87.9979 1.37381 88.4369 0.980663 88.9763 0.507752C89.2566 0.268447 89.4629 0.239959 89.5898 0.405193C89.7167 0.576124 89.7802 0.758452 89.7802 0.96357V31.8395H89.7749ZM87.1306 31.5888C87.1624 31.4863 87.1782 31.3324 87.1782 31.133L87.1306 31.0817V16.6608C87.0354 16.1195 86.8503 15.6979 86.5648 15.3902C86.3109 15.1224 86.0465 14.9515 85.7609 14.8831C85.4806 14.8147 85.2585 14.7806 85.0998 14.7806C84.9412 14.7806 84.7614 14.8261 84.5604 14.9059C84.3542 14.9914 84.1268 15.168 83.8782 15.4415C83.6561 15.715 83.508 15.9828 83.4287 16.2563C83.3493 16.5298 83.2965 16.7463 83.2647 16.9172C83.233 17.0198 83.2171 17.1109 83.2171 17.1964V17.6294C83.2171 17.6978 83.233 17.7491 83.2647 17.7833V31.4464C83.2647 31.5831 83.2806 31.737 83.3123 31.9022C83.3758 32.1415 83.4393 32.358 83.5027 32.5632C83.5662 32.7683 83.6772 32.9506 83.8306 33.1215C84.0792 33.395 84.3489 33.5603 84.6345 33.6286C84.9147 33.697 85.1369 33.7312 85.2955 33.7312C85.6393 33.7312 86.0518 33.5261 86.5224 33.1215C86.7393 32.8537 86.8926 32.5689 86.972 32.284C87.0513 31.9991 87.1042 31.7655 87.1359 31.6002L87.1306 31.5888Z" fill="#3A6F5B"/>
<path d="M106.249 8.8104C106.138 8.82749 106.006 8.83319 105.847 8.83319C105.847 8.46283 105.831 7.88736 105.8 7.10677C105.768 6.32619 105.673 5.5342 105.519 4.71943C105.361 3.90465 105.133 3.16395 104.837 2.48592C104.536 1.80789 104.139 1.38626 103.637 1.21533C103.293 1.11277 102.955 1.0444 102.621 1.01021C102.293 0.976022 101.939 0.958929 101.558 0.958929V16.2459H103.727C104.007 16.2459 104.208 16.1605 104.314 15.9895C104.425 15.8186 104.504 15.6192 104.552 15.3799C104.599 15.1406 104.615 14.907 104.599 14.6677C104.583 14.4284 104.578 14.246 104.578 14.1093H105.382C105.382 14.2802 105.371 14.5423 105.361 14.8956C105.345 15.2488 105.319 15.5793 105.292 15.887C105.229 16.2915 105.197 16.5992 105.197 16.7986C105.197 16.998 105.213 17.2373 105.244 17.5108C105.244 17.6818 105.25 17.8755 105.266 18.0977C105.281 18.3199 105.303 18.5307 105.334 18.7301C105.366 18.9694 105.382 19.2201 105.382 19.4936H104.626C104.626 18.9523 104.605 18.4509 104.557 17.9951C104.509 17.5393 104.282 17.2772 103.875 17.2088H101.564V32.0913C101.564 32.3933 101.627 32.6155 101.754 32.7522C101.881 32.889 102.034 32.9801 102.225 33.0314C102.415 33.0827 102.611 33.1055 102.812 33.1055H103.309V33.9715C103.118 33.9715 102.791 33.9772 102.32 33.9943C101.849 34.0114 101.49 33.9488 101.236 33.8177C100.955 33.681 100.633 33.6126 100.268 33.6126C99.9031 33.6126 99.6016 33.6639 99.3478 33.7664C99.2208 33.8348 99.0463 33.8747 98.8295 33.8918C98.6074 33.9089 98.3905 33.9146 98.1684 33.9146H97.3223V33.1511C97.8564 33.1511 98.2478 33.0257 98.5016 32.7693C98.7502 32.5129 98.8771 32.2053 98.8771 31.8292V1.67684C98.8771 1.60847 98.8612 1.523 98.8295 1.42045C98.766 1.18114 98.655 1.033 98.5016 0.964627C98.4381 0.930441 98.2954 0.913348 98.0785 0.913348H97.3223V0.40625H106.656V8.7876C106.498 8.7876 106.366 8.799 106.255 8.8104H106.249Z" fill="#3A6F5B"/>
<path d="M112.871 30.8264V31.8406C112.871 32.416 112.998 32.7636 113.246 32.8832C113.495 33.0029 113.749 33.0599 114.003 33.0599V33.9259C113.844 33.9259 113.627 33.9316 113.341 33.9487C113.061 33.9658 112.791 33.9088 112.538 33.7721C112.257 33.6353 111.951 33.567 111.617 33.567C111.284 33.567 110.999 33.6353 110.745 33.7721C110.618 33.8405 110.475 33.8803 110.322 33.8974C110.163 33.9145 110.01 33.9202 109.851 33.9202H109.285V33.1054C109.819 33.1054 110.115 32.9858 110.179 32.7522C110.242 32.5129 110.274 32.2109 110.274 31.8406V3.80774C110.306 3.73937 110.306 3.6539 110.274 3.55134C110.211 3.34623 110.084 3.21518 109.899 3.14681C109.835 3.11262 109.724 3.09553 109.571 3.09553H109.333V2.63971C109.46 2.50296 109.645 2.33773 109.899 2.13261C110.115 1.96168 110.412 1.72807 110.771 1.42039C111.131 1.11841 111.58 0.725271 112.115 0.25236C112.363 0.0130557 112.553 -0.0211307 112.68 0.149801C112.807 0.320733 112.871 0.50306 112.871 0.708178V30.8264Z" fill="#3A6F5B"/>
<path d="M125.457 17.5229C125.616 17.8933 125.695 18.2522 125.695 18.5884V29.6078C125.632 30.1149 125.536 30.5878 125.415 31.0322C125.288 31.4368 125.103 31.8527 124.849 32.2743C124.595 32.696 124.251 33.0777 123.812 33.4196C123.151 33.9609 122.337 34.2344 121.358 34.2344H121.168C120.475 34.2344 119.888 34.1261 119.402 33.9039C118.915 33.6817 118.508 33.4139 118.175 33.0891C117.847 32.77 117.588 32.4225 117.397 32.0464C117.207 31.6761 117.07 31.3171 116.974 30.981C116.816 30.4739 116.736 30.1149 116.736 29.9155V18.8961C116.8 18.4232 116.895 17.9503 117.017 17.4717C117.144 17.1013 117.329 16.6911 117.582 16.2523C117.831 15.8136 118.18 15.4205 118.619 15.0843C119.28 14.543 120.11 14.2695 121.115 14.2695H121.258C121.951 14.2695 122.538 14.3721 123.024 14.5715C123.511 14.7766 123.918 15.0387 124.251 15.3578C124.579 15.6826 124.838 16.0358 125.029 16.4233C125.219 16.8107 125.357 17.1754 125.452 17.5172L125.457 17.5229ZM123.194 17.4204V17.1925C123.194 17.107 123.178 17.0158 123.146 16.9133C123.114 16.7423 123.061 16.5258 122.982 16.2523C122.903 15.9845 122.755 15.7111 122.533 15.4376C122.279 15.1698 122.051 14.9874 121.85 14.902C121.644 14.8165 121.464 14.7766 121.306 14.7766C121.147 14.7766 120.93 14.8108 120.645 14.8792C120.364 14.9476 120.095 15.1185 119.846 15.3863C119.592 15.6883 119.423 16.1156 119.328 16.6569C119.296 16.7936 119.28 16.9304 119.28 17.0614V31.5849C119.312 31.7559 119.375 31.9838 119.47 32.2686C119.566 32.5592 119.708 32.8384 119.894 33.1062C120.364 33.5108 120.771 33.7159 121.121 33.7159C121.279 33.7159 121.496 33.6817 121.782 33.6133C122.062 33.5449 122.347 33.374 122.628 33.1062C122.876 32.8042 123.051 32.394 123.146 31.8869C123.178 31.716 123.183 31.5678 123.167 31.4311C123.151 31.2943 123.157 31.1633 123.188 31.0265V17.4147L123.194 17.4204Z" fill="#3A6F5B"/>
<path d="M145.253 14.6794C145.475 14.5768 145.771 14.5256 146.147 14.5256H146.713V15.3403C146.178 15.3403 145.755 15.3574 145.438 15.3916C145.126 15.4258 144.856 15.762 144.634 16.4058C144.571 16.6451 144.476 17.0724 144.354 17.6992C144.227 18.3259 144.084 19.0723 143.931 19.9327C143.772 20.7987 143.608 21.7446 143.434 22.7759C143.259 23.8071 143.079 24.8498 142.889 25.8982C142.45 28.3368 141.979 31.0262 141.477 33.9719H138.129C138.034 33.2939 137.923 32.5646 137.801 31.7897C137.706 31.1116 137.595 30.3538 137.474 29.5049C137.347 28.6616 137.204 27.7614 137.051 26.8155C136.892 27.7614 136.738 28.6616 136.58 29.5049C136.421 30.3538 136.278 31.1116 136.157 31.7897C136.03 32.5703 135.887 33.2939 135.734 33.9719H132.576C132.011 31.2313 131.492 28.673 131.022 26.3028C130.831 25.2886 130.636 24.2801 130.435 23.283C130.228 22.2859 130.043 21.3343 129.869 20.4398C129.694 19.5452 129.541 18.7533 129.398 18.0809C129.255 17.4029 129.171 16.8958 129.139 16.5596C129.139 16.4913 129.128 16.44 129.118 16.4058C129.102 16.3716 129.097 16.3374 129.097 16.3032C128.906 15.7278 128.737 15.4315 128.578 15.4144C128.42 15.3973 128.219 15.3916 127.965 15.3916V14.5256C128.123 14.5256 128.324 14.5199 128.578 14.5028C128.827 14.4857 129.081 14.5483 129.335 14.6794C129.964 14.9529 130.546 14.9529 131.08 14.6794C131.207 14.611 131.36 14.5711 131.55 14.554C131.741 14.5369 131.91 14.5313 132.069 14.5313H132.682V15.346C132.148 15.346 131.81 15.4486 131.667 15.648C131.524 15.8531 131.487 16.138 131.55 16.5141L134.898 33.3224L136.643 23.8755C136.389 22.2517 136.162 20.7589 135.961 19.4085C135.755 18.0524 135.623 17.1066 135.559 16.5653C135.527 16.497 135.512 16.4457 135.512 16.4115C135.512 16.3773 135.496 16.3431 135.464 16.3089C135.305 15.7335 135.141 15.4372 134.967 15.4201C134.792 15.403 134.597 15.3973 134.38 15.3973V14.5313C134.538 14.5313 134.734 14.5256 134.967 14.5085C135.205 14.4914 135.448 14.554 135.697 14.6851C135.977 14.8218 136.284 14.8902 136.617 14.8902C136.95 14.8902 137.236 14.8218 137.489 14.6851C137.585 14.6167 137.727 14.5768 137.913 14.5597C138.103 14.5426 138.272 14.5369 138.431 14.5369H139.044V15.3517C138.51 15.3517 138.172 15.4543 138.029 15.6537C137.886 15.8588 137.849 16.1437 137.913 16.5198L140.456 33.328L143.614 16.2634C143.709 15.9614 143.698 15.7392 143.592 15.6024C143.481 15.4657 143.333 15.3802 143.143 15.346C142.952 15.3118 142.752 15.3118 142.529 15.346C142.307 15.3802 142.138 15.3973 142.011 15.3973L141.964 14.5313C142.154 14.5313 142.387 14.5256 142.672 14.5085C142.952 14.4914 143.222 14.554 143.476 14.6851C143.725 14.8218 144.026 14.8902 144.37 14.8902C144.714 14.8902 145.015 14.8218 145.264 14.6851L145.253 14.6794Z" fill="#3A6F5B"/>
<path d="M156.141 23.1064C155.797 23.3115 155.48 23.4596 155.199 23.5622C154.919 23.6648 154.744 23.7331 154.681 23.7673L153.972 23.9212C153.719 23.9895 153.459 24.0636 153.195 24.1491C152.925 24.2345 152.682 24.3257 152.465 24.4283L152.185 24.5821C151.994 24.7188 151.831 24.8442 151.688 24.9638C151.545 25.0835 151.444 25.2259 151.381 25.3969C151.349 25.4311 151.333 25.4823 151.333 25.5507V30.4792C151.333 31.2598 151.513 31.8752 151.878 32.331C152.238 32.7868 152.671 33.0489 153.174 33.1173C154.147 33.1857 154.919 32.9236 155.485 32.331C156.051 31.7384 156.442 31.0718 156.664 30.3254C156.696 30.1545 156.733 29.9778 156.781 29.7898C156.828 29.6018 156.865 29.4252 156.897 29.2542C156.929 29.0491 156.96 28.8497 156.992 28.6446C157.056 28.6104 157.188 28.6047 157.394 28.6218C157.6 28.6389 157.733 28.6446 157.796 28.6446C157.764 28.8839 157.733 29.1346 157.701 29.4081C157.637 29.6474 157.584 29.9095 157.537 30.1944C157.489 30.4849 157.42 30.7641 157.325 31.0319C156.982 32.0461 156.458 32.8324 155.77 33.3908C155.078 33.9492 154.295 34.2283 153.412 34.2283H153.221C152.529 34.2283 151.947 34.1201 151.476 33.8979C151.006 33.6757 150.604 33.4079 150.276 33.0831C149.948 32.764 149.678 32.4165 149.477 32.0404C149.271 31.6701 149.123 31.3111 149.028 30.9749C148.964 30.8724 148.927 30.7014 148.911 30.4678C148.895 30.2285 148.869 29.9949 148.843 29.7556C148.811 29.4878 148.795 29.1972 148.795 28.8896V18.8844C148.858 18.4115 148.954 17.9385 149.075 17.4599C149.202 17.0896 149.387 16.6793 149.641 16.2406C149.89 15.8019 150.239 15.4088 150.678 15.0726C151.339 14.5313 152.169 14.2578 153.174 14.2578H153.364C154.057 14.2578 154.66 14.3775 155.178 14.6111C155.696 14.8504 156.135 15.1353 156.5 15.4771C156.86 15.8133 157.151 16.195 157.373 16.6224C157.59 17.044 157.733 17.4257 157.796 17.7676C158.076 18.9527 158.087 19.9441 157.817 20.7361C157.547 21.5338 157.288 22.0637 157.04 22.3372C156.791 22.6107 156.617 22.7759 156.521 22.8443C156.426 22.9127 156.299 22.9981 156.146 23.1007L156.141 23.1064ZM151.333 24.6334C151.492 24.3998 151.719 24.1946 152.016 24.0237C152.312 23.8528 152.629 23.6875 152.957 23.5166C153.285 23.3457 153.623 23.152 153.972 22.9354C154.316 22.7132 154.633 22.434 154.914 22.0979C155.131 21.7959 155.3 21.4312 155.411 21.0039C155.522 20.5823 155.591 20.1379 155.622 19.682C155.654 19.2262 155.644 18.7761 155.601 18.3374C155.554 17.8987 155.517 17.4941 155.485 17.1181C155.453 16.9471 155.369 16.7021 155.226 16.3831C155.083 16.064 154.887 15.7506 154.639 15.4429C154.48 15.2378 154.279 15.0783 154.025 14.9586C153.771 14.839 153.57 14.782 153.412 14.782C153.253 14.782 153.026 14.8162 152.73 14.8846C152.428 14.9529 152.153 15.1239 151.905 15.3917C151.651 15.6936 151.481 16.121 151.386 16.6623C151.355 16.799 151.339 16.9357 151.339 17.0668V24.6334H151.333Z" fill="#3A6F5B"/>
<path d="M169.532 16.5582C169.659 17.0653 169.648 17.5667 169.511 18.0567C169.368 18.5467 168.998 18.9114 168.405 19.1507C167.808 19.39 167.3 19.3387 166.872 18.9969C166.448 18.6607 166.237 18.3359 166.237 18.0339C166.237 17.4927 166.332 17.128 166.517 16.94C166.708 16.7519 166.94 16.5924 167.226 16.4557C167.385 16.3873 167.474 16.2961 167.506 16.1765C167.538 16.0568 167.554 15.9486 167.554 15.846C167.554 15.7093 167.522 15.5896 167.459 15.4928C167.427 15.4586 167.395 15.4187 167.363 15.3674C167.332 15.3161 167.268 15.2591 167.173 15.1908C166.951 15.0198 166.702 14.9116 166.417 14.8603C166.136 14.809 165.914 14.7862 165.756 14.7862C165.597 14.7862 165.37 14.8204 165.073 14.8888C164.772 14.9572 164.502 15.1281 164.248 15.3959C163.995 15.6979 163.825 16.1252 163.73 16.6665C163.73 16.7007 163.72 16.7349 163.709 16.769C163.693 16.8032 163.683 16.8545 163.683 16.9229V31.9079C163.683 32.4834 163.81 32.8195 164.058 32.9221C164.307 33.0247 164.56 33.0759 164.814 33.0759V33.8394C164.656 33.8394 164.439 33.8622 164.153 33.9135C163.873 33.9648 163.603 33.9249 163.349 33.7881C163.069 33.6514 162.752 33.583 162.408 33.583C162.064 33.583 161.763 33.6514 161.514 33.7881C161.387 33.8565 161.245 33.8964 161.091 33.9135C160.933 33.9306 160.779 33.9363 160.621 33.9363H160.055V33.1215C160.589 33.1215 160.896 33.0133 160.975 32.791C161.054 32.5688 161.091 32.2726 161.091 31.9022V18.1365C161.091 18.0681 161.075 17.9827 161.044 17.8801C160.98 17.7092 160.869 17.5781 160.716 17.4756H160.102V16.9685C160.261 16.8317 160.462 16.6665 160.716 16.4614C160.933 16.2904 161.229 16.0568 161.588 15.7491C161.948 15.4472 162.397 15.054 162.932 14.5811C163.18 14.3418 163.371 14.3133 163.498 14.4786C163.624 14.6495 163.688 14.8489 163.688 15.0882V15.4928C163.878 15.1224 164.127 14.8261 164.444 14.6039C164.756 14.3817 165.121 14.2734 165.528 14.2734C165.719 14.2734 165.951 14.2848 166.237 14.2962C166.517 14.3133 166.739 14.3418 166.898 14.3703C167.21 14.4387 167.432 14.507 167.559 14.5754C167.808 14.6438 168.162 14.866 168.622 15.2364C169.077 15.6067 169.384 16.0511 169.542 16.5582H169.532Z" fill="#3A6F5B"/>
<path d="M186.171 32.9351C186.547 33.0547 186.864 33.1117 187.113 33.1117V33.9777C186.954 33.9777 186.679 33.9834 186.288 34.0005C185.896 34.0176 185.574 33.955 185.32 33.8239C185.04 33.653 184.712 33.5789 184.352 33.596C183.992 33.6131 183.686 33.6701 183.432 33.7726C183.305 33.841 183.162 33.8809 183.009 33.898C182.85 33.9151 182.697 33.9208 182.538 33.9208H181.972V33.1573C182.538 33.1573 182.861 33.0376 182.94 32.804C183.019 32.5647 183.056 32.2627 183.056 31.8924V8.12717L179.614 33.7726C179.614 33.8068 179.598 33.8239 179.566 33.8239H179.518C179.487 33.8239 179.471 33.8068 179.471 33.7726L175.605 8.17845V31.5904C175.605 32.3368 175.843 32.7755 176.313 32.9123C176.784 33.049 177.302 33.1174 177.868 33.1174V33.9322H177.255C177.096 33.9322 176.927 33.9265 176.737 33.9094C176.546 33.8923 176.393 33.8524 176.266 33.784C176.012 33.6473 175.7 33.5789 175.325 33.5789C174.949 33.5789 174.616 33.6644 174.336 33.8353C174.082 33.972 173.738 34.0233 173.299 33.9891C172.86 33.955 172.559 33.9379 172.405 33.9379V33.0718C172.654 33.0718 172.918 33.0832 173.183 33.0946C173.447 33.1117 173.685 33.0775 173.891 32.992C174.098 32.9066 174.267 32.7641 174.41 32.559C174.552 32.3539 174.621 32.0177 174.621 31.5448V3.80829C174.621 2.7941 174.537 2.11607 174.362 1.7742C174.187 1.43804 173.775 1.2671 173.114 1.2671C173.114 1.19873 173.13 1.06199 173.162 0.862566C173.193 0.657448 173.193 0.509307 173.162 0.406748L177.075 0.355469L180.089 22.7532L183.152 0.406748H186.97C187.002 0.475121 187.017 0.543494 187.017 0.611866V1.2728C186.388 1.2728 185.997 1.41525 185.838 1.70583C185.679 1.99641 185.6 2.66305 185.6 3.71143V31.8981C185.6 32.4735 185.79 32.8211 186.166 32.9408L186.171 32.9351Z" fill="#3A6F5B"/>
<path d="M200.078 32.9118C199.951 33.1511 199.808 33.3334 199.655 33.4702C199.496 33.6069 199.295 33.7323 199.042 33.8519C198.788 33.9716 198.476 34.0286 198.1 34.0286C197.344 34.0969 196.746 33.869 196.307 33.3448C195.868 32.8207 195.646 32.1711 195.646 31.3905C195.551 31.664 195.408 31.9945 195.223 32.3819C195.033 32.7694 194.626 33.2024 193.996 33.6753C193.589 34.0115 193.134 34.1767 192.632 34.1596C192.129 34.1425 191.754 34.0685 191.5 33.9317C190.712 33.5614 190.093 32.9346 189.639 32.0515C189.184 31.174 188.94 30.0857 188.909 28.8038C188.877 28.2967 188.903 27.6927 188.977 27.0033C189.057 26.3082 189.268 25.6757 189.612 25.1002C189.739 24.8951 189.871 24.7014 190.014 24.5134C190.157 24.3253 190.342 24.1316 190.58 23.9322C190.818 23.7271 191.125 23.4992 191.5 23.2485C191.876 22.9921 192.346 22.6844 192.912 22.3083C193.541 21.8696 194.033 21.5392 194.398 21.3169C194.758 21.0947 195.112 20.7529 195.461 20.2743V17.0266C195.461 16.6904 195.392 16.3998 195.25 16.1605C195.107 15.9212 194.938 15.7218 194.731 15.5508C194.525 15.3799 194.314 15.2546 194.097 15.1691C193.875 15.0836 193.69 15.0437 193.531 15.0437C192.902 15.0437 192.399 15.1634 192.024 15.397C191.648 15.6363 191.378 15.887 191.22 16.1605C191.125 16.3314 191.045 16.5479 190.982 16.8214C190.918 17.0949 190.918 17.3114 190.982 17.4824C191.045 17.6533 191.13 17.8698 191.241 18.1433C191.352 18.4168 191.405 18.6675 191.405 18.9068C191.341 19.5848 191.029 20.0407 190.464 20.28C190.12 20.4167 189.797 20.3312 189.496 20.0236C189.194 19.7216 189.014 19.431 188.951 19.1575C188.888 18.6504 188.988 18.0578 189.258 17.3798C189.522 16.7018 190.083 16.0067 190.929 15.3001C191.304 14.964 191.722 14.7247 192.177 14.5879C192.632 14.4512 193.097 14.3828 193.568 14.3828C194.261 14.3828 194.848 14.4854 195.334 14.6848C195.821 14.8899 196.228 15.152 196.561 15.4711C196.889 15.7958 197.148 16.1491 197.339 16.5366C197.529 16.924 197.666 17.2887 197.762 17.6305C197.793 17.7331 197.825 17.904 197.857 18.1376C197.889 18.3769 197.91 18.6276 197.926 18.9011C197.941 19.1746 197.957 19.4196 197.973 19.6361C197.989 19.8583 197.994 20.0008 197.994 20.0691V32.1084C197.963 32.3136 197.979 32.4788 198.042 32.6155C198.169 32.9517 198.386 33.1397 198.703 33.1739C199.047 33.2081 199.301 33.1055 199.459 32.8719C199.554 32.7694 199.634 32.6497 199.697 32.5187L200.073 32.9232L200.078 32.9118ZM195.456 23.5675V20.9751C195.266 21.3112 194.959 21.636 194.536 21.938C194.113 22.24 193.584 22.6673 192.954 23.2086C192.452 23.6473 192.087 24.3196 191.87 25.2142C191.648 26.1144 191.542 26.952 191.542 27.7269V30.5701C191.542 31.1113 191.579 31.6298 191.659 32.1198C191.738 32.6098 191.965 32.9745 192.341 33.2138C192.59 33.3847 192.875 33.436 193.187 33.3676C193.499 33.2993 193.785 33.1454 194.033 32.9118C194.377 32.644 194.7 32.268 195.001 31.7951C195.297 31.3222 195.451 30.7467 195.451 30.0687V23.5675H195.456Z" fill="#3A6F5B"/>
<path d="M210.683 16.5582C210.81 17.0653 210.799 17.5667 210.662 18.0567C210.519 18.5467 210.149 18.9114 209.556 19.1507C208.959 19.39 208.451 19.3387 208.023 18.9969C207.599 18.6607 207.388 18.3359 207.388 18.0339C207.388 17.4927 207.483 17.128 207.668 16.94C207.859 16.7519 208.091 16.5924 208.377 16.4557C208.536 16.3873 208.625 16.2961 208.657 16.1765C208.689 16.0568 208.705 15.9486 208.705 15.846C208.705 15.7093 208.673 15.5896 208.61 15.4928C208.578 15.4586 208.546 15.4187 208.514 15.3674C208.483 15.3161 208.419 15.2591 208.324 15.1908C208.102 15.0198 207.853 14.9116 207.568 14.8603C207.287 14.809 207.065 14.7862 206.907 14.7862C206.748 14.7862 206.521 14.8204 206.224 14.8888C205.923 14.9572 205.653 15.1281 205.399 15.3959C205.146 15.6979 204.976 16.1252 204.881 16.6665C204.881 16.7007 204.871 16.7349 204.86 16.769C204.844 16.8032 204.839 16.8545 204.839 16.9229V31.9079C204.839 32.4834 204.966 32.8195 205.214 32.9221C205.463 33.0247 205.717 33.0759 205.971 33.0759V33.8394C205.812 33.8394 205.595 33.8622 205.31 33.9135C205.029 33.9648 204.76 33.9249 204.506 33.7881C204.225 33.6514 203.908 33.583 203.564 33.583C203.221 33.583 202.919 33.6514 202.671 33.7881C202.544 33.8565 202.401 33.8964 202.247 33.9135C202.089 33.9306 201.935 33.9363 201.777 33.9363H201.211V33.1215C201.745 33.1215 202.052 33.0133 202.131 32.791C202.21 32.5688 202.247 32.2726 202.247 31.9022V18.1365C202.247 18.0681 202.232 17.9827 202.2 17.8801C202.136 17.7092 202.025 17.5781 201.872 17.4756H201.259V16.9685C201.417 16.8317 201.618 16.6665 201.872 16.4614C202.094 16.2904 202.385 16.0568 202.745 15.7491C203.104 15.4472 203.554 15.054 204.088 14.5811C204.336 14.3418 204.527 14.3133 204.654 14.4786C204.781 14.6495 204.844 14.8489 204.844 15.0882V15.4928C205.035 15.1224 205.283 14.8261 205.6 14.6039C205.912 14.3817 206.277 14.2734 206.685 14.2734C206.875 14.2734 207.108 14.2848 207.393 14.2962C207.674 14.3133 207.896 14.3418 208.054 14.3703C208.366 14.4387 208.588 14.507 208.715 14.5754C208.964 14.6438 209.318 14.866 209.778 15.2364C210.233 15.6067 210.54 16.0511 210.699 16.5582H210.683Z" fill="#3A6F5B"/>
<path d="M223.69 31.6926C223.563 32.1313 223.389 32.5416 223.172 32.9119C222.982 33.2139 222.749 33.4874 222.463 33.7267C222.183 33.966 221.834 34.0799 221.427 34.0799C220.988 34.0799 220.597 34.0572 220.248 34.0059C219.904 33.9546 219.587 33.7438 219.306 33.3734C219.243 33.3051 219.111 33.0544 218.904 32.6099C218.698 32.1712 218.449 31.6185 218.148 30.9576C217.847 30.2967 217.519 29.5787 217.159 28.7982C216.799 28.0176 216.45 27.2769 216.123 26.5646C215.795 25.8524 215.488 25.22 215.202 24.6616C214.922 24.1032 214.716 23.7044 214.589 23.4708L214.261 23.824V31.8464C214.261 32.4219 214.388 32.7695 214.636 32.8891C214.885 33.0088 215.139 33.0658 215.393 33.0658V33.8293C215.234 33.8293 215.017 33.852 214.732 33.9033C214.451 33.9546 214.182 33.9147 213.928 33.778C213.674 33.6412 213.378 33.5728 213.034 33.5728C212.69 33.5728 212.389 33.6412 212.14 33.778C211.886 33.8805 211.59 33.9318 211.247 33.9318C211.056 33.9318 210.871 33.9147 210.681 33.8805V33.117C211.215 33.117 211.511 32.9974 211.574 32.7638C211.638 32.5245 211.67 32.2225 211.67 31.8521V3.80793C211.701 3.73956 211.701 3.65409 211.67 3.55154C211.606 3.31793 211.495 3.16409 211.342 3.09572H210.776L210.728 2.6399C210.887 2.50315 211.088 2.33792 211.342 2.1328C211.564 1.96187 211.844 1.71687 212.188 1.3978C212.532 1.07872 212.971 0.679882 213.51 0.20697C213.79 -0.032334 213.991 -0.0608226 214.097 0.104411C214.208 0.275343 214.261 0.474764 214.261 0.714068V22.6047L219.539 16.0011C219.666 15.7618 219.698 15.5851 219.634 15.4655C219.571 15.3458 219.46 15.2775 219.306 15.2604C219.148 15.2433 218.978 15.2433 218.788 15.2604C218.598 15.2775 218.444 15.2832 218.317 15.2832V14.5197C218.476 14.5197 218.677 14.5026 218.931 14.4684C219.179 14.4342 219.433 14.4855 219.687 14.6222C219.936 14.759 220.232 14.8273 220.56 14.8273C220.887 14.8273 221.162 14.759 221.385 14.6222C221.48 14.5538 221.596 14.5197 221.739 14.5197H222.707V15.2319C222.453 15.2319 222.241 15.2262 222.072 15.2091C221.898 15.192 221.734 15.2034 221.575 15.2319C221.416 15.2661 221.263 15.3401 221.104 15.4598C220.946 15.5794 220.761 15.7732 220.538 16.0466L216.392 21.2259L219.031 26.7128C219.343 27.3908 219.666 28.0575 219.999 28.7184C220.327 29.3793 220.618 29.9605 220.872 30.4733C221.12 30.9804 221.406 31.5559 221.718 32.1997C221.845 32.3364 221.982 32.4219 222.141 32.4561C222.331 32.4903 222.485 32.4561 222.612 32.3535C222.738 32.251 222.85 32.1313 222.939 32.0003C223.035 31.8635 223.114 31.6983 223.177 31.4932L223.696 31.6983L223.69 31.6926Z" fill="#3A6F5B"/>
<path d="M232.037 23.1064C231.693 23.3115 231.376 23.4596 231.096 23.5622C230.815 23.6648 230.641 23.7331 230.578 23.7673L229.869 23.9212C229.615 23.9895 229.356 24.0636 229.091 24.1491C228.822 24.2345 228.578 24.3257 228.362 24.4283L228.081 24.5821C227.891 24.7188 227.727 24.8442 227.584 24.9638C227.441 25.0835 227.341 25.2259 227.277 25.3969C227.246 25.4311 227.23 25.4823 227.23 25.5507V30.4792C227.23 31.2598 227.41 31.8752 227.775 32.331C228.134 32.7868 228.568 33.0489 229.07 33.1173C230.043 33.1857 230.815 32.9236 231.381 32.331C231.947 31.7384 232.339 31.0718 232.561 30.3254C232.592 30.1545 232.629 29.9778 232.677 29.7898C232.725 29.6018 232.762 29.4252 232.793 29.2542C232.825 29.0491 232.857 28.8497 232.889 28.6446C232.952 28.6104 233.084 28.6047 233.291 28.6218C233.497 28.6389 233.629 28.6446 233.692 28.6446C233.661 28.8839 233.629 29.1346 233.597 29.4081C233.534 29.6474 233.481 29.9095 233.433 30.1944C233.386 30.4849 233.317 30.7641 233.222 31.0319C232.878 32.0461 232.354 32.8324 231.667 33.3908C230.974 33.9492 230.191 34.2283 229.308 34.2283H229.118C228.425 34.2283 227.843 34.1201 227.373 33.8979C226.902 33.6757 226.5 33.4079 226.172 33.0831C225.844 32.764 225.575 32.4165 225.374 32.0404C225.167 31.6701 225.019 31.3111 224.924 30.9749C224.861 30.8724 224.824 30.7014 224.808 30.4678C224.792 30.2285 224.765 29.9949 224.739 29.7556C224.707 29.4878 224.691 29.1972 224.691 28.8896V18.8844C224.755 18.4115 224.85 17.9385 224.972 17.4599C225.099 17.0896 225.284 16.6793 225.538 16.2406C225.786 15.8019 226.135 15.4088 226.574 15.0726C227.235 14.5313 228.065 14.2578 229.07 14.2578H229.261C229.953 14.2578 230.556 14.3775 231.075 14.6111C231.593 14.8504 232.032 15.1353 232.397 15.4771C232.756 15.8133 233.047 16.195 233.269 16.6224C233.486 17.044 233.629 17.4257 233.692 17.7676C233.973 18.9527 233.983 19.9441 233.714 20.7361C233.444 21.5338 233.185 22.0637 232.936 22.3372C232.688 22.6107 232.513 22.7759 232.418 22.8443C232.323 22.9127 232.196 22.9981 232.042 23.1007L232.037 23.1064ZM227.23 24.6334C227.389 24.3998 227.616 24.1946 227.912 24.0237C228.208 23.8528 228.526 23.6875 228.853 23.5166C229.181 23.3457 229.52 23.152 229.869 22.9354C230.213 22.7132 230.53 22.434 230.81 22.0979C231.027 21.7959 231.196 21.4312 231.307 21.0039C231.418 20.5823 231.487 20.1379 231.519 19.682C231.551 19.2262 231.54 18.7761 231.498 18.3374C231.45 17.8987 231.413 17.4941 231.381 17.1181C231.35 16.9471 231.265 16.7021 231.122 16.3831C230.979 16.064 230.784 15.7506 230.535 15.4429C230.377 15.2378 230.176 15.0783 229.922 14.9586C229.668 14.839 229.467 14.782 229.308 14.782C229.15 14.782 228.922 14.8162 228.626 14.8846C228.325 14.9529 228.055 15.1239 227.801 15.3917C227.547 15.6936 227.378 16.121 227.283 16.6623C227.251 16.799 227.235 16.9357 227.235 17.0668V24.6334H227.23Z" fill="#3A6F5B"/>
<path d="M244.434 31.2358C244.497 31.3042 244.577 31.3555 244.672 31.3896C244.799 31.4922 244.91 31.5435 245 31.5435C244.809 31.9822 244.614 32.3811 244.413 32.7343C244.207 33.0876 243.979 33.4009 243.731 33.6744C243.419 34.0448 243.054 34.2898 242.646 34.4094C242.239 34.5291 241.89 34.5861 241.61 34.5861C240.917 34.5861 240.346 34.4949 239.891 34.3069C239.436 34.1189 239.056 33.8739 238.759 33.5719C238.458 33.2699 238.225 32.928 238.051 32.5577C237.876 32.1873 237.744 31.8284 237.649 31.4922C237.585 31.2871 237.548 31.0706 237.532 30.8313C237.517 30.592 237.511 30.4267 237.511 30.3242V14.5301H235.671V13.9204C235.919 13.9204 236.173 13.9033 236.427 13.8691C236.644 13.835 236.866 13.778 237.088 13.6925C237.305 13.607 237.495 13.4646 237.654 13.2595C237.966 12.8891 238.22 12.4447 238.41 11.9376C238.601 11.4305 238.754 10.9405 238.881 10.4676C239.008 9.92632 239.119 9.38503 239.209 8.84375H240.15V13.9204H243.403V14.5301H240.15V31.5435C240.182 32.0164 240.367 32.4665 240.716 32.8881C241.06 33.3098 241.457 33.5548 241.895 33.6232C242.239 33.6573 242.652 33.5149 243.122 33.1901C243.593 32.8711 244.032 32.2158 244.445 31.2358H244.434Z" fill="#3A6F5B"/>
<path d="M29.8944 0.820953C28.2603 4.09714 26.8588 7.57845 24.791 10.5812C23.728 12.1195 22.464 13.4927 21.0044 14.5867C19.5554 15.6692 17.9106 16.3302 16.4193 17.3273C13.7856 19.0936 10.6442 19.9425 7.73025 21.0194C5.29225 21.9196 3.11867 22.8768 1.41048 25.0648C-0.599156 27.6401 -0.546271 31.7824 2.11914 33.7652C2.30424 33.9019 2.47876 33.5772 2.29366 33.4404C0.336911 31.9989 0.00373454 29.6343 0.65951 27.3097C1.08259 25.8055 2.07683 24.7571 3.17155 23.7771C5.19176 21.9652 8.01583 21.3157 10.4591 20.4268C11.7813 19.9425 13.1087 19.4468 14.3938 18.8542C15.5943 18.3016 16.6361 17.5324 17.7784 16.8657C19.2275 16.0168 20.6607 15.3843 21.9722 14.2733C23.0405 13.3673 23.9818 12.3133 24.8121 11.1623C27.0333 8.07985 28.4877 4.43331 30.1906 1.01468C30.2963 0.80386 29.9949 0.615835 29.8891 0.826651L29.8944 0.820953Z" fill="#3A6F5B"/>
<path d="M1.15534 32.2756C1.75823 33.2157 2.84767 33.9507 3.92652 34.0932C4.19624 34.1444 4.46595 34.1501 4.73566 34.1045C5.00538 34.059 5.20634 33.8766 5.34384 33.5462C5.4549 33.2841 5.48663 32.9935 5.44432 32.6744C5.40202 32.3553 5.35971 32.0477 5.32269 31.7628C5.25394 31.5064 5.22221 31.2899 5.23278 31.1132C5.24336 30.9366 5.3174 30.7486 5.46019 30.5492C5.77221 30.1503 6.14241 29.9566 6.5602 29.9737C6.97799 30.0193 7.31646 30.2415 7.57031 30.6289C7.82415 31.0221 7.91406 31.4437 7.84002 31.8995C7.73954 32.3895 7.52271 32.834 7.19482 33.2328C6.86693 33.6316 6.49674 33.9393 6.08423 34.1501C5.41259 34.5319 4.68278 34.6629 3.90008 34.5319C2.72603 34.3211 1.78996 33.7171 1.09717 32.72" fill="#3A6F5B"/>
</svg>
