<svg width="387" height="51" viewBox="0 0 387 51" fill="none" xmlns="http://www.w3.org/2000/svg">
<path d="M37.1121 27.5536C37.2624 27.8561 37.3627 28.2677 37.4128 28.7885C37.4629 29.3094 37.488 29.679 37.488 29.8722V44.0272C37.3877 44.7245 37.2374 45.4217 37.0452 46.1273C36.8447 46.7238 36.5524 47.3538 36.1514 48.0007C35.7504 48.6475 35.2075 49.2272 34.5141 49.7228C34.0213 50.0756 33.4449 50.3613 32.8017 50.5881C32.1584 50.8149 31.415 50.9241 30.5713 50.9241H30.3457C29.9448 50.9241 29.5104 50.8737 29.0426 50.7729C28.5664 50.6721 28.1404 50.4957 27.7394 50.252C27.3385 50 26.996 49.6808 26.6953 49.2776C26.3945 48.8827 26.1022 48.3283 25.8014 47.6311C25.6511 47.9839 25.5174 48.2527 25.3921 48.4543C25.2668 48.6559 25.2083 48.7819 25.2083 48.8323C25.0079 49.0844 24.7238 49.3196 24.3563 49.5464C23.9804 49.7732 23.5961 49.9328 23.2035 50.0336C22.9529 50.084 22.7107 50.1092 22.46 50.1092H21.7166C21.466 50.1092 21.1987 50.084 20.8979 50.0336V48.8323C21.7417 48.8323 22.2094 48.6727 22.3097 48.3451C22.4099 48.0175 22.46 47.5807 22.46 47.0346V7.1066C22.5603 6.40935 22.7107 5.7121 22.9028 5.00645C23.1033 4.41001 23.3956 3.79676 23.7966 3.17512C24.1892 2.55348 24.7405 1.96544 25.4339 1.4194C26.428 0.772551 27.4721 0.386124 28.5581 0.260115C29.6524 0.134106 30.7049 0.251714 31.7241 0.596139C32.7432 0.948963 33.6704 1.495 34.5141 2.24265C35.3578 2.99031 36.001 3.93957 36.4521 5.09046C36.5524 5.44328 36.6359 5.90531 36.7111 6.47655C36.7863 7.04779 36.8197 7.43422 36.8197 7.63584V16.4733C36.8197 17.8678 36.4104 19.2203 35.5917 20.5139C34.7731 21.816 33.6454 22.6813 32.2002 23.1349C32.1 23.1853 32.0248 23.2105 31.9747 23.2105C31.9245 23.2105 31.8494 23.2357 31.7491 23.2861C33.4866 23.4878 34.748 24.0086 35.55 24.8571C36.3435 25.7055 36.8614 26.6044 37.1121 27.5536ZM26.5449 25.1595C26.9375 24.8066 27.3635 24.5126 27.8146 24.2606C28.2574 24.0086 28.7586 23.765 29.3015 23.513C29.502 23.4121 29.7944 23.3029 30.1954 23.1769C30.588 23.0509 30.9639 22.7989 31.3147 22.4293C31.6572 22.0513 31.9747 21.5052 32.242 20.7828C32.5176 20.0603 32.6513 19.0774 32.6513 17.8258V5.46008C32.6513 5.01485 32.6179 4.53602 32.5427 4.04038C32.4675 3.54475 32.3339 3.06591 32.1334 2.62068C31.9329 2.17545 31.6489 1.79742 31.2813 1.495C30.9054 1.19258 30.4209 1.04977 29.8278 1.04977C29.5772 1.04977 29.218 1.08337 28.7502 1.15898C28.2741 1.23458 27.848 1.4698 27.4471 1.87303C26.854 2.62068 26.5533 3.69596 26.5533 5.09046V25.1595H26.5449ZM32.6429 49.2692C33.236 48.6727 33.5368 47.5975 33.5368 46.0517V27.8561C33.4365 27.604 33.3613 27.1672 33.3112 26.5456C33.2611 25.9239 32.9854 25.3611 32.4926 24.8571C32.0916 24.4622 31.7324 24.2102 31.415 24.1094C31.0892 24.0086 30.8052 23.9582 30.5546 23.9582C30.2538 23.9582 29.9865 23.9918 29.7359 24.0674C29.4853 24.143 29.1679 24.3026 28.7669 24.5546C28.0736 24.9075 27.4304 25.3023 26.8289 25.7559C26.7788 25.8063 26.7287 25.8399 26.6786 25.8651C26.6284 25.8903 26.5783 25.9239 26.5282 25.9743V45.8165C26.5783 46.413 26.6284 46.9422 26.6786 47.3874C26.7287 47.8327 26.879 48.2611 27.1213 48.6643C27.422 49.1096 27.7394 49.4372 28.0903 49.6388C28.8338 50.084 29.6023 50.2772 30.3959 50.2016C31.1894 50.126 31.9329 49.8152 32.6262 49.2692H32.6429Z" fill="#FA7000"/>
<path d="M44.9811 5.45358C45.4071 4.78993 46.0921 3.01741 46.4513 2.34536C46.7938 1.70692 46.9859 1.06847 47.8296 0.371222C48.2222 0.0183969 48.5229 -0.0320067 48.7234 0.220011C48.9239 0.472029 49.0241 0.740848 49.0241 1.04327V46.9441C49.0241 47.7926 49.2246 48.305 49.6172 48.4814C50.0098 48.6578 50.4108 48.7418 50.8118 48.7418V50.0187C50.5612 50.0187 50.2187 50.0271 49.7676 50.0523C49.3249 50.0775 48.8988 49.9935 48.4979 49.7919C48.0551 49.5903 47.5706 49.4895 47.0444 49.4895C46.5181 49.4895 46.067 49.5903 45.666 49.7919C45.4656 49.8927 45.24 49.9515 44.9978 49.9767C44.7472 50.0019 44.5049 50.0103 44.2543 50.0103H43.3605V48.809C44.2042 48.809 44.672 48.6326 44.7722 48.2882C44.8725 47.9354 44.9226 47.4902 44.9226 46.9441V45.4488L45.2901 6.72207C45.2901 6.53726 45.2066 6.10043 45.0312 6.34404" fill="#FA7000"/>
<path d="M66.7502 34.0657C66.2072 34.3681 65.706 34.5865 65.2633 34.7377C64.8205 34.8889 64.5449 34.9897 64.4446 35.0401L63.3253 35.2669C62.9243 35.3677 62.515 35.477 62.0973 35.603C61.6713 35.729 61.287 35.8634 60.9445 36.0146L60.5018 36.2414C60.2011 36.443 59.9421 36.6278 59.7166 36.8042C59.491 36.9807 59.3323 37.1907 59.2321 37.4427C59.1819 37.4931 59.1569 37.5687 59.1569 37.6695V44.936C59.1569 46.0869 59.4409 46.9942 60.0173 47.6662C60.5853 48.3383 61.2703 48.7247 62.0639 48.8255C63.6009 48.9263 64.8205 48.5399 65.7144 47.6662C66.6082 46.7926 67.2264 45.8097 67.5772 44.7092C67.6273 44.4572 67.6858 44.1968 67.761 43.9195C67.8362 43.6423 67.8946 43.3819 67.9447 43.1299C67.9949 42.8275 68.045 42.5334 68.0951 42.231C68.1954 42.1806 68.4042 42.1722 68.73 42.1974C69.0558 42.2226 69.2646 42.231 69.3648 42.231C69.3147 42.5839 69.2646 42.9535 69.2145 43.3567C69.1142 43.7095 69.0307 44.096 68.9555 44.516C68.8803 44.9444 68.7717 45.3561 68.6214 45.7509C68.0784 47.2462 67.2514 48.4055 66.1655 49.2287C65.0712 50.052 63.8348 50.4636 62.4398 50.4636H62.1391C61.0448 50.4636 60.1259 50.304 59.3824 49.9764C58.639 49.6488 58.0041 49.2539 57.4862 48.7751C56.9683 48.3047 56.5422 47.7922 56.2248 47.2378C55.899 46.6917 55.6651 46.1625 55.5148 45.6669C55.4145 45.5157 55.3561 45.2636 55.331 44.9192C55.3059 44.5664 55.2642 44.222 55.2224 43.8691C55.1723 43.4743 55.1472 43.0459 55.1472 42.5923V27.8408C55.2475 27.1436 55.3978 26.4463 55.59 25.7407C55.7904 25.1946 56.0828 24.5898 56.4838 23.9429C56.8764 23.2961 57.4277 22.7164 58.1211 22.2208C59.1652 21.4228 60.4767 21.0195 62.0639 21.0195H62.3646C63.4589 21.0195 64.4112 21.1959 65.2299 21.5404C66.0485 21.8932 66.7418 22.3132 67.3182 22.8173C67.8863 23.3129 68.3457 23.8757 68.6966 24.5058C69.0391 25.1274 69.2646 25.6903 69.3648 26.1943C69.8076 27.9416 69.8243 29.4033 69.3983 30.571C68.9722 31.7471 68.5629 32.5283 68.1703 32.9316C67.7693 33.3348 67.502 33.5784 67.3517 33.6792C67.2013 33.78 67.0008 33.906 66.7586 34.0573L66.7502 34.0657ZM59.1569 36.317C59.4075 35.9726 59.7667 35.6702 60.2345 35.4181C60.7023 35.1661 61.2035 34.9225 61.7214 34.6705C62.2393 34.4185 62.7739 34.1329 63.3253 33.8136C63.8682 33.486 64.3695 33.0744 64.8122 32.5787C65.1547 32.1335 65.422 31.5959 65.5974 30.9658C65.7728 30.3442 65.8814 29.6889 65.9316 29.0169C65.9817 28.3448 65.965 27.6812 65.8981 27.0344C65.823 26.3875 65.7645 25.7911 65.7144 25.2366C65.6642 24.9846 65.5306 24.6234 65.3051 24.153C65.0795 23.6825 64.7704 23.2205 64.3778 22.7669C64.1272 22.4644 63.8098 22.2292 63.4088 22.0528C63.0078 21.8764 62.6904 21.7924 62.4398 21.7924C62.1892 21.7924 61.83 21.8428 61.3622 21.9436C60.8861 22.0444 60.46 22.2964 60.0591 22.6912C59.6581 23.1365 59.3908 23.7665 59.2404 24.5646C59.1903 24.7662 59.1652 24.9678 59.1652 25.161V36.317H59.1569Z" fill="#FA7000"/>
<path d="M87.1494 40.3579C87.2497 40.9543 87.2831 41.66 87.258 42.458C87.233 43.2561 87.1244 44.0457 86.9239 44.8186C86.7234 45.5915 86.4311 46.3559 86.0301 47.1036C85.6291 47.8512 85.0861 48.4813 84.3928 48.9769C83.6493 49.5229 82.8892 49.9262 82.1207 50.1782C81.3521 50.4302 80.617 50.5562 79.9237 50.5562C79.08 50.5562 78.3449 50.4302 77.7267 50.1782C77.1086 49.9262 76.5238 49.6825 75.9809 49.4305C75.7804 49.3297 75.5381 49.2037 75.2374 49.0525C74.9367 48.9013 74.6443 48.9013 74.3436 49.0525C74.1431 49.1533 73.9927 49.3801 73.9008 49.7245C73.8507 49.8758 73.8507 50.0018 73.9008 50.1026H72.8567L72.7815 42.164H74.1932C74.2433 42.8109 74.3686 43.5501 74.5691 44.3734C74.7696 45.1966 75.062 45.8855 75.4629 46.4315C75.8054 46.9271 76.3568 47.532 77.1002 48.2292C77.8437 48.9265 78.7626 49.3045 79.8569 49.3549C81.2435 49.3549 82.2794 48.8677 82.9476 47.8932C83.6159 46.9187 84.0002 45.9611 84.1004 45.0118C84.2007 43.8609 84.067 42.8781 83.6911 42.0548C83.3152 41.2315 82.8558 40.4671 82.3128 39.7698C82.0622 39.4674 81.6946 39.1062 81.1934 38.6862C80.7006 38.2661 80.1743 37.8545 79.6313 37.4513C79.0883 37.0564 78.5788 36.6868 78.1026 36.3676C77.6265 36.04 77.3174 35.83 77.1754 35.7292C76.6324 35.3259 76.0811 34.9059 75.5381 34.4523C75.0954 34.0574 74.6526 33.6206 74.235 33.1418C73.8089 32.6713 73.4748 32.1589 73.2326 31.6045C73.1323 31.3524 73.007 30.8904 72.8567 30.2184C72.7063 29.5463 72.6311 28.7987 72.6311 27.9754C72.6311 27.1522 72.7564 26.3037 73.007 25.43C73.2576 24.5564 73.7505 23.7415 74.4939 22.9939C75.9307 21.549 77.5931 20.8769 79.481 20.9693C80.3748 21.0197 81.1099 21.1289 81.6779 21.3053C82.246 21.4818 82.7555 21.6918 83.2066 21.9438C83.357 22.0446 83.5658 22.1538 83.8415 22.2798C84.1171 22.4058 84.3761 22.3386 84.6267 22.095C84.8272 21.8934 84.9274 21.675 84.9274 21.4229V21.0449C85.0277 21.0953 85.153 21.1205 85.3033 21.1205C85.4036 21.1205 85.5038 21.1373 85.6041 21.1541C85.7043 21.1793 85.7795 21.1877 85.8296 21.1877V29.8739H84.4179C84.4179 28.9751 84.351 28.093 84.2341 27.2194C84.1088 26.3457 83.6995 25.388 83.0061 24.338C82.6052 23.7919 82.0789 23.2627 81.4023 22.767C80.734 22.2714 79.9738 22.0446 79.1301 22.095C78.1862 22.095 77.426 22.2294 76.858 22.5066C76.2899 22.7838 75.8388 23.1199 75.5214 23.5147C75.1956 23.9179 74.9868 24.3296 74.8865 24.7496C74.7863 25.178 74.7612 25.5392 74.8114 25.8333C74.9617 26.7321 75.371 27.6058 76.0393 28.4542C76.7076 29.3027 77.8103 30.252 79.3557 31.302C79.6063 31.4533 79.9989 31.7137 80.5502 32.0917C81.0932 32.4697 81.6696 32.8646 82.2627 33.293C82.8558 33.7214 83.4322 34.1582 83.9751 34.6035C84.5181 35.0487 84.9191 35.4519 85.1697 35.8048C85.863 36.8044 86.3475 37.6109 86.6232 38.2409C86.8988 38.8626 87.0826 39.5766 87.1829 40.3747L87.1494 40.3579Z" fill="#FA7000"/>
<path d="M105.544 40.3579C105.644 40.9543 105.677 41.66 105.652 42.458C105.627 43.2561 105.519 44.0457 105.318 44.8186C105.118 45.5915 104.825 46.3559 104.424 47.1036C104.023 47.8512 103.48 48.4813 102.787 48.9769C102.044 49.5229 101.283 49.9262 100.515 50.1782C99.7464 50.4302 99.0113 50.5562 98.318 50.5562C97.4743 50.5562 96.7392 50.4302 96.121 50.1782C95.5029 49.9262 94.9181 49.6825 94.3751 49.4305C94.1746 49.3297 93.9324 49.2037 93.6317 49.0525C93.3309 48.9013 93.0386 48.9013 92.7379 49.0525C92.5374 49.1533 92.387 49.3801 92.2951 49.7245C92.245 49.8758 92.245 50.0018 92.2951 50.1026H91.2509L91.1758 42.164H92.5875C92.6376 42.8109 92.7629 43.5501 92.9634 44.3734C93.1639 45.1966 93.4563 45.8855 93.8572 46.4315C94.1997 46.9271 94.751 47.532 95.4945 48.2292C96.238 48.9265 97.1568 49.3045 98.2511 49.3549C99.6378 49.3549 100.674 48.8677 101.342 47.8932C102.01 46.9187 102.394 45.9611 102.495 45.0118C102.595 43.8609 102.461 42.8781 102.085 42.0548C101.709 41.2315 101.25 40.4671 100.707 39.7698C100.456 39.4674 100.089 39.1062 99.5877 38.6862C99.0949 38.2661 98.5686 37.8545 98.0256 37.4513C97.4826 37.0564 96.9731 36.6868 96.4969 36.3676C96.0208 36.04 95.7117 35.83 95.5697 35.7292C95.0267 35.3259 94.4754 34.9059 93.9324 34.4523C93.4897 34.0574 93.0469 33.6206 92.6293 33.1418C92.2032 32.6713 91.8691 32.1589 91.6268 31.6045C91.5266 31.3524 91.4013 30.8904 91.2509 30.2184C91.1006 29.5463 91.0254 28.7987 91.0254 27.9754C91.0254 27.1522 91.1507 26.3037 91.4013 25.43C91.6519 24.5564 92.1448 23.7415 92.8882 22.9939C94.325 21.549 95.9874 20.8769 97.8752 20.9693C98.7691 21.0197 99.5042 21.1289 100.072 21.3053C100.64 21.4818 101.15 21.6918 101.601 21.9438C101.751 22.0446 101.96 22.1538 102.236 22.2798C102.511 22.4058 102.77 22.3386 103.021 22.095C103.221 21.8934 103.322 21.675 103.322 21.4229V21.0449C103.422 21.0953 103.547 21.1205 103.698 21.1205C103.798 21.1205 103.898 21.1373 103.998 21.1541C104.099 21.1793 104.174 21.1877 104.224 21.1877V29.8739H102.812C102.812 28.9751 102.745 28.093 102.628 27.2194C102.503 26.3457 102.094 25.388 101.4 24.338C100.999 23.7919 100.473 23.2627 99.7965 22.767C99.1283 22.2714 98.3681 22.0446 97.5244 22.095C96.5805 22.095 95.8203 22.2294 95.2522 22.5066C94.6842 22.7838 94.2331 23.1199 93.9157 23.5147C93.5899 23.9179 93.3811 24.3296 93.2808 24.7496C93.1806 25.178 93.1555 25.5392 93.2056 25.8333C93.356 26.7321 93.7653 27.6058 94.4336 28.4542C95.1019 29.3027 96.2045 30.252 97.7499 31.302C98.0005 31.4533 98.3932 31.7137 98.9445 32.0917C99.4875 32.4697 100.064 32.8646 100.657 33.293C101.25 33.7214 101.826 34.1582 102.369 34.6035C102.912 35.0487 103.313 35.4519 103.564 35.8048C104.257 36.8044 104.742 37.6109 105.017 38.2409C105.293 38.8626 105.477 39.5766 105.577 40.3747L105.544 40.3579Z" fill="#FA7000"/>
<path d="M120.806 34.0657C120.263 34.3681 119.761 34.5865 119.319 34.7377C118.876 34.8889 118.6 34.9897 118.5 35.0401L117.381 35.2669C116.98 35.3677 116.57 35.477 116.153 35.603C115.727 35.729 115.342 35.8634 115 36.0146L114.557 36.2414C114.256 36.443 113.998 36.6278 113.772 36.8042C113.546 36.9807 113.388 37.1907 113.287 37.4427C113.237 37.4931 113.212 37.5687 113.212 37.6695V44.936C113.212 46.0869 113.496 46.9942 114.073 47.6662C114.641 48.3383 115.326 48.7247 116.119 48.8255C117.656 48.9263 118.876 48.5399 119.77 47.6662C120.664 46.7926 121.282 45.8097 121.633 44.7092C121.683 44.4572 121.741 44.1968 121.816 43.9195C121.892 43.6423 121.95 43.3819 122 43.1299C122.05 42.8275 122.1 42.5334 122.151 42.231C122.251 42.1806 122.46 42.1722 122.785 42.1974C123.111 42.2226 123.32 42.231 123.42 42.231C123.37 42.5839 123.32 42.9535 123.27 43.3567C123.17 43.7095 123.086 44.096 123.011 44.516C122.936 44.9444 122.827 45.3561 122.677 45.7509C122.134 47.2462 121.307 48.4055 120.221 49.2287C119.127 50.052 117.89 50.4636 116.495 50.4636H116.194C115.1 50.4636 114.181 50.304 113.438 49.9764C112.694 49.6488 112.06 49.2539 111.542 48.7751C111.024 48.3047 110.598 47.7922 110.28 47.2378C109.954 46.6917 109.721 46.1625 109.57 45.6669C109.47 45.5157 109.411 45.2636 109.386 44.9192C109.361 44.5664 109.32 44.222 109.278 43.8691C109.228 43.4743 109.203 43.0459 109.203 42.5923V27.8408C109.303 27.1436 109.453 26.4463 109.645 25.7407C109.846 25.1946 110.138 24.5898 110.539 23.9429C110.932 23.2961 111.483 22.7164 112.176 22.2208C113.221 21.4228 114.532 21.0195 116.119 21.0195H116.42C117.514 21.0195 118.467 21.1959 119.285 21.5404C120.104 21.8932 120.797 22.3132 121.374 22.8173C121.942 23.3129 122.401 23.8757 122.752 24.5058C123.103 25.1274 123.32 25.6903 123.42 26.1943C123.863 27.9416 123.88 29.4033 123.454 30.571C123.028 31.7471 122.618 32.5283 122.226 32.9316C121.825 33.3348 121.557 33.5784 121.407 33.6792C121.257 33.78 121.056 33.906 120.814 34.0573L120.806 34.0657ZM113.212 36.317C113.463 35.9726 113.822 35.6702 114.29 35.4181C114.758 35.1661 115.259 34.9225 115.777 34.6705C116.295 34.4185 116.829 34.1329 117.381 33.8136C117.924 33.486 118.425 33.0744 118.868 32.5787C119.21 32.1335 119.477 31.5959 119.653 30.9658C119.828 30.3442 119.937 29.6889 119.987 29.0169C120.037 28.3448 120.02 27.6812 119.954 27.0344C119.878 26.3875 119.82 25.7911 119.77 25.2366C119.72 24.9846 119.586 24.6234 119.36 24.153C119.135 23.6825 118.826 23.2205 118.433 22.7669C118.183 22.4644 117.865 22.2292 117.464 22.0528C117.063 21.8764 116.746 21.7924 116.495 21.7924C116.245 21.7924 115.885 21.8428 115.418 21.9436C114.941 22.0444 114.515 22.2964 114.114 22.6912C113.714 23.1365 113.446 23.7665 113.296 24.5646C113.246 24.7662 113.221 24.9678 113.221 25.161V36.317H113.212Z" fill="#FA7000"/>
<path d="M141.806 46.9453C141.806 47.4914 141.856 47.945 141.957 48.2894C142.057 48.6422 142.525 48.8103 143.368 48.8103V49.9359C143.068 49.9863 142.8 50.0115 142.55 50.0115H141.764C141.489 50.0115 141.255 49.9863 141.054 49.9359C140.653 49.8351 140.269 49.6755 139.902 49.4487C139.526 49.2219 139.242 48.9867 139.041 48.7346C139.041 48.6842 138.974 48.5582 138.857 48.3566C138.732 48.155 138.598 47.9114 138.448 47.609C138.097 48.407 137.629 49.0791 137.036 49.6335C136.443 50.1796 135.65 50.4568 134.656 50.4568H134.43C132.843 50.4568 131.523 50.0535 130.487 49.2555C129.794 48.7598 129.243 48.197 128.85 47.567C128.449 46.9453 128.157 46.3321 127.956 45.7356C127.756 45.0888 127.63 44.3915 127.58 43.6355V27.3887C127.58 26.9435 127.68 26.4143 127.881 25.8178C128.031 25.3222 128.257 24.7846 128.549 24.2049C128.85 23.6337 129.259 23.1044 129.777 22.634C130.295 22.1636 130.947 21.7687 131.715 21.4747C132.484 21.1723 133.411 21.0295 134.505 21.0295H134.806C135.399 21.0295 135.95 21.1891 136.443 21.5167C136.936 21.8444 137.337 22.2812 137.638 22.8272V5.99243C137.688 5.89163 137.688 5.76562 137.638 5.61441C137.538 5.31199 137.337 5.11877 137.045 5.01797C136.944 4.96756 136.769 4.94236 136.527 4.94236H136.151V4.27031C136.401 4.0687 136.719 3.82508 137.12 3.52266C137.462 3.27064 137.913 2.92622 138.456 2.47259C138.999 2.02736 139.693 1.44771 140.545 0.750465C140.988 0.39764 141.313 0.355637 141.514 0.599254C141.714 0.851272 141.815 1.12009 141.815 1.42251V46.9453H141.806ZM137.629 46.5757C137.68 46.4245 137.705 46.1977 137.705 45.9037L137.629 45.828V24.5661C137.479 23.7681 137.187 23.1464 136.736 22.6928C136.335 22.298 135.917 22.046 135.466 21.9452C135.023 21.8444 134.672 21.794 134.422 21.794C134.171 21.794 133.887 21.8612 133.57 21.9788C133.244 22.1048 132.885 22.3652 132.492 22.7684C132.141 23.1716 131.907 23.5665 131.782 23.9697C131.657 24.3729 131.573 24.6922 131.523 24.9442C131.473 25.0954 131.448 25.2298 131.448 25.3558V25.9942C131.448 26.0951 131.473 26.1707 131.523 26.2211V46.3657C131.523 46.5673 131.548 46.7941 131.598 47.0377C131.698 47.3906 131.799 47.7098 131.899 48.0122C131.999 48.3146 132.175 48.5834 132.417 48.8355C132.809 49.2387 133.236 49.4823 133.687 49.5831C134.129 49.6839 134.48 49.7343 134.731 49.7343C135.274 49.7343 135.925 49.4319 136.669 48.8355C137.011 48.4406 137.254 48.0206 137.379 47.6006C137.504 47.1805 137.588 46.8361 137.638 46.5925L137.629 46.5757Z" fill="#FA7000"/>
<path d="M167.827 12.9885C167.652 13.0137 167.443 13.0221 167.192 13.0221C167.192 12.4761 167.167 11.6276 167.117 10.4768C167.067 9.32587 166.917 8.15819 166.674 6.9569C166.424 5.75562 166.065 4.66354 165.597 3.66387C165.121 2.6642 164.494 2.04256 163.701 1.79054C163.158 1.63933 162.623 1.53852 162.097 1.48812C161.579 1.43772 161.019 1.41251 160.418 1.41251V23.9513H163.843C164.285 23.9513 164.603 23.8253 164.77 23.5733C164.945 23.3213 165.071 23.0272 165.146 22.6744C165.221 22.3216 165.246 21.9772 165.221 21.6243C165.196 21.2715 165.188 21.0027 165.188 20.8011H166.457C166.457 21.0531 166.441 21.4395 166.424 21.9604C166.399 22.4812 166.357 22.9684 166.315 23.4221C166.215 24.0185 166.165 24.4721 166.165 24.7662C166.165 25.0602 166.19 25.413 166.24 25.8162C166.24 26.0683 166.248 26.3539 166.273 26.6815C166.299 27.0091 166.332 27.3199 166.382 27.614C166.432 27.9668 166.457 28.3364 166.457 28.7396H165.263C165.263 27.9416 165.229 27.2023 165.154 26.5303C165.079 25.8582 164.72 25.4718 164.077 25.371H160.426V47.3134C160.426 47.7586 160.526 48.0862 160.727 48.2878C160.927 48.4894 161.17 48.6238 161.47 48.6994C161.771 48.7751 162.08 48.8087 162.397 48.8087H163.183V50.0855C162.882 50.0855 162.364 50.0939 161.621 50.1191C160.877 50.1443 160.309 50.0519 159.908 49.8587C159.465 49.6571 158.956 49.5563 158.379 49.5563C157.803 49.5563 157.327 49.6319 156.926 49.7831C156.725 49.8839 156.45 49.9427 156.107 49.9679C155.756 49.9931 155.414 50.0015 155.063 50.0015H153.727V48.8759C154.57 48.8759 155.188 48.691 155.589 48.313C155.982 47.935 156.182 47.4814 156.182 46.9269V2.47099C156.182 2.37018 156.157 2.24417 156.107 2.09296C156.007 1.74014 155.832 1.52172 155.589 1.42091C155.489 1.37051 155.264 1.34531 154.921 1.34531H153.727V0.597656H168.47V12.9549C168.22 12.9549 168.011 12.9717 167.836 12.9885H167.827Z" fill="#FA7000"/>
<path d="M178.286 45.4488V46.9441C178.286 47.7926 178.486 48.305 178.879 48.4814C179.272 48.6578 179.673 48.7418 180.073 48.7418V50.0187C179.823 50.0187 179.48 50.0271 179.029 50.0523C178.587 50.0775 178.161 49.9935 177.76 49.7919C177.317 49.5903 176.832 49.4895 176.306 49.4895C175.78 49.4895 175.329 49.5903 174.928 49.7919C174.727 49.8927 174.502 49.9515 174.259 49.9767C174.009 50.0019 173.767 50.0103 173.516 50.0103H172.622V48.809C173.466 48.809 173.934 48.6326 174.034 48.2882C174.134 47.9354 174.184 47.4902 174.184 46.9441V5.61319C174.234 5.51238 174.234 5.38638 174.184 5.23517C174.084 4.93274 173.884 4.73953 173.591 4.63872C173.491 4.58832 173.316 4.56312 173.073 4.56312H172.697V3.89107C172.898 3.68946 173.19 3.44584 173.591 3.14342C173.934 2.8914 174.401 2.54698 174.97 2.09334C175.538 1.64811 176.248 1.06847 177.091 0.371222C177.484 0.0183969 177.785 -0.0320067 177.985 0.220011C178.186 0.472029 178.286 0.740848 178.286 1.04327V45.4488Z" fill="#FA7000"/>
<path d="M198.167 25.8319C198.418 26.3779 198.543 26.9072 198.543 27.4028V43.6496C198.443 44.3972 198.292 45.0945 198.1 45.7497C197.9 46.3461 197.607 46.9594 197.206 47.581C196.805 48.2027 196.263 48.7655 195.569 49.2695C194.525 50.0676 193.239 50.4708 191.693 50.4708H191.392C190.298 50.4708 189.371 50.3112 188.602 49.9836C187.834 49.656 187.191 49.2612 186.664 48.7823C186.146 48.3119 185.737 47.7994 185.436 47.245C185.136 46.699 184.918 46.1697 184.768 45.6741C184.518 44.9264 184.392 44.3972 184.392 44.1032V27.8564C184.492 27.1592 184.643 26.4619 184.835 25.7563C185.035 25.2103 185.328 24.6054 185.729 23.9586C186.121 23.3117 186.673 22.7321 187.366 22.2364C188.41 21.4384 189.722 21.0352 191.309 21.0352H191.534C192.629 21.0352 193.556 21.1864 194.324 21.4804C195.093 21.7828 195.736 22.1692 196.263 22.6397C196.78 23.1185 197.19 23.6393 197.49 24.2106C197.791 24.7818 198.008 25.3195 198.159 25.8235L198.167 25.8319ZM194.592 25.6807V25.3447C194.592 25.2187 194.567 25.0842 194.517 24.933C194.467 24.681 194.383 24.3618 194.258 23.9586C194.132 23.5637 193.898 23.1605 193.548 22.7573C193.147 22.3625 192.787 22.0936 192.47 21.9676C192.144 21.8416 191.86 21.7828 191.61 21.7828C191.359 21.7828 191.017 21.8332 190.565 21.934C190.123 22.0348 189.697 22.2868 189.304 22.6817C188.903 23.1269 188.636 23.7569 188.485 24.555C188.435 24.7566 188.41 24.9582 188.41 25.1514V46.5646C188.46 46.8166 188.561 47.1526 188.711 47.5726C188.861 48.0011 189.087 48.4127 189.379 48.8075C190.123 49.404 190.766 49.7064 191.317 49.7064C191.568 49.7064 191.91 49.656 192.361 49.5552C192.804 49.4544 193.255 49.2023 193.698 48.8075C194.091 48.3623 194.366 47.7574 194.517 47.0098C194.567 46.7578 194.575 46.5394 194.55 46.3377C194.525 46.1361 194.533 45.9429 194.583 45.7413V25.6723L194.592 25.6807Z" fill="#FA7000"/>
<path d="M229.434 21.6395C229.785 21.4883 230.253 21.4127 230.846 21.4127H231.74V22.614C230.896 22.614 230.228 22.6392 229.727 22.6896C229.234 22.74 228.808 23.2356 228.457 24.1849C228.357 24.5377 228.206 25.1677 228.014 26.0918C227.814 27.0159 227.588 28.1163 227.346 29.3848C227.095 30.6617 226.836 32.0562 226.561 33.5767C226.285 35.0972 226.001 36.6345 225.7 38.1803C225.007 41.7757 224.263 45.7408 223.47 50.0839H218.182C218.032 49.0842 217.856 48.009 217.664 46.8665C217.514 45.8668 217.338 44.7495 217.146 43.4978C216.946 42.2545 216.72 40.9273 216.478 39.5328C216.227 40.9273 215.985 42.2545 215.735 43.4978C215.484 44.7495 215.258 45.8668 215.066 46.8665C214.866 48.0174 214.64 49.0842 214.398 50.0839H209.411C208.517 46.0432 207.698 42.2713 206.955 38.7767C206.654 37.2814 206.345 35.7945 206.028 34.3244C205.702 32.8543 205.41 31.4514 205.134 30.1325C204.858 28.8136 204.616 27.6459 204.391 26.6546C204.165 25.655 204.031 24.9073 203.981 24.4117C203.981 24.3109 203.964 24.2353 203.948 24.1849C203.923 24.1345 203.914 24.0841 203.914 24.0337C203.614 23.1852 203.346 22.7484 203.096 22.7232C202.845 22.698 202.528 22.6896 202.127 22.6896V21.4127C202.377 21.4127 202.695 21.4043 203.096 21.3791C203.488 21.3539 203.889 21.4463 204.29 21.6395C205.284 22.0427 206.203 22.0427 207.047 21.6395C207.247 21.5387 207.49 21.4799 207.79 21.4547C208.091 21.4295 208.358 21.4211 208.609 21.4211H209.578V22.6224C208.734 22.6224 208.2 22.7736 207.974 23.0676C207.749 23.37 207.69 23.79 207.79 24.3445L213.078 49.1262L215.835 35.198C215.434 32.8039 215.075 30.6029 214.757 28.612C214.431 26.6126 214.223 25.2181 214.122 24.4201C214.072 24.3193 214.047 24.2437 214.047 24.1933C214.047 24.1429 214.022 24.0925 213.972 24.0421C213.721 23.1936 213.462 22.7568 213.187 22.7316C212.911 22.7064 212.602 22.698 212.259 22.698V21.4211C212.51 21.4211 212.819 21.4127 213.187 21.3875C213.563 21.3623 213.947 21.4547 214.34 21.6479C214.782 21.8495 215.267 21.9503 215.793 21.9503C216.319 21.9503 216.77 21.8495 217.171 21.6479C217.322 21.5471 217.547 21.4883 217.84 21.4631C218.14 21.4379 218.408 21.4295 218.658 21.4295H219.627V22.6308C218.784 22.6308 218.249 22.782 218.023 23.076C217.798 23.3784 217.739 23.7984 217.84 24.3529L221.858 49.1346L226.845 23.9749C226.995 23.5296 226.978 23.202 226.811 23.0004C226.636 22.7988 226.402 22.6728 226.101 22.6224C225.8 22.572 225.483 22.572 225.132 22.6224C224.781 22.6728 224.514 22.698 224.314 22.698L224.238 21.4211C224.539 21.4211 224.907 21.4127 225.358 21.3875C225.8 21.3623 226.226 21.4547 226.627 21.6479C227.02 21.8495 227.496 21.9503 228.039 21.9503C228.582 21.9503 229.058 21.8495 229.451 21.6479L229.434 21.6395Z" fill="#FA7000"/>
<path d="M246.634 34.0657C246.091 34.3681 245.59 34.5865 245.147 34.7377C244.704 34.8889 244.429 34.9897 244.328 35.0401L243.209 35.2669C242.808 35.3677 242.399 35.477 241.981 35.603C241.555 35.729 241.171 35.8634 240.828 36.0146L240.386 36.2414C240.085 36.443 239.826 36.6278 239.6 36.8042C239.375 36.9807 239.216 37.1907 239.116 37.4427C239.066 37.4931 239.041 37.5687 239.041 37.6695V44.936C239.041 46.0869 239.325 46.9942 239.901 47.6662C240.469 48.3383 241.154 48.7247 241.948 48.8255C243.485 48.9263 244.704 48.5399 245.598 47.6662C246.492 46.7926 247.11 45.8097 247.461 44.7092C247.511 44.4572 247.57 44.1968 247.645 43.9195C247.72 43.6423 247.778 43.3819 247.829 43.1299C247.879 42.8275 247.929 42.5334 247.979 42.231C248.079 42.1806 248.288 42.1722 248.614 42.1974C248.94 42.2226 249.148 42.231 249.249 42.231C249.199 42.5839 249.148 42.9535 249.098 43.3567C248.998 43.7095 248.914 44.096 248.839 44.516C248.764 44.9444 248.656 45.3561 248.505 45.7509C247.962 47.2462 247.135 48.4055 246.049 49.2287C244.955 50.052 243.719 50.4636 242.324 50.4636H242.023C240.929 50.4636 240.01 50.304 239.266 49.9764C238.523 49.6488 237.888 49.2539 237.37 48.7751C236.852 48.3047 236.426 47.7922 236.109 47.2378C235.783 46.6917 235.549 46.1625 235.399 45.6669C235.298 45.5157 235.24 45.2636 235.215 44.9192C235.19 44.5664 235.148 44.222 235.106 43.8691C235.056 43.4743 235.031 43.0459 235.031 42.5923V27.8408C235.131 27.1436 235.282 26.4463 235.474 25.7407C235.674 25.1946 235.967 24.5898 236.368 23.9429C236.76 23.2961 237.312 22.7164 238.005 22.2208C239.049 21.4228 240.361 21.0195 241.948 21.0195H242.248C243.343 21.0195 244.295 21.1959 245.114 21.5404C245.932 21.8932 246.626 22.3132 247.202 22.8173C247.77 23.3129 248.23 23.8757 248.58 24.5058C248.923 25.1274 249.148 25.6903 249.249 26.1943C249.691 27.9416 249.708 29.4033 249.282 30.571C248.856 31.7471 248.447 32.5283 248.054 32.9316C247.661 33.3348 247.386 33.5784 247.235 33.6792C247.085 33.78 246.885 33.906 246.642 34.0573L246.634 34.0657ZM239.041 36.317C239.291 35.9726 239.65 35.6702 240.118 35.4181C240.586 35.1661 241.087 34.9225 241.605 34.6705C242.123 34.4185 242.658 34.1329 243.209 33.8136C243.752 33.486 244.253 33.0744 244.696 32.5787C245.038 32.1335 245.306 31.5959 245.481 30.9658C245.657 30.3442 245.765 29.6889 245.815 29.0169C245.865 28.3448 245.849 27.6812 245.782 27.0344C245.707 26.3875 245.648 25.7911 245.598 25.2366C245.548 24.9846 245.414 24.6234 245.189 24.153C244.963 23.6825 244.654 23.2205 244.262 22.7669C244.011 22.4644 243.694 22.2292 243.293 22.0528C242.892 21.8764 242.574 21.7924 242.324 21.7924C242.073 21.7924 241.714 21.8428 241.246 21.9436C240.77 22.0444 240.335 22.2964 239.943 22.6912C239.542 23.1365 239.275 23.7665 239.124 24.5646C239.074 24.7662 239.049 24.9678 239.049 25.161V36.317H239.041Z" fill="#FA7000"/>
<path d="M267.785 24.4116C267.986 25.1593 267.969 25.8985 267.752 26.621C267.526 27.3434 266.941 27.8811 266.006 28.2339C265.062 28.5867 264.26 28.5111 263.583 28.0071C262.915 27.5114 262.581 27.0326 262.581 26.5874C262.581 25.7893 262.731 25.2517 263.024 24.9744C263.324 24.6972 263.692 24.462 264.143 24.2604C264.394 24.1596 264.536 24.0252 264.586 23.8488C264.636 23.6724 264.661 23.5127 264.661 23.3615C264.661 23.1599 264.611 22.9835 264.511 22.8407C264.46 22.7903 264.41 22.7315 264.36 22.6559C264.31 22.5803 264.21 22.4963 264.059 22.3955C263.709 22.1434 263.316 21.9838 262.865 21.9082C262.422 21.8326 262.071 21.799 261.821 21.799C261.57 21.799 261.211 21.8494 260.743 21.9502C260.267 22.051 259.841 22.3031 259.44 22.6979C259.039 23.1431 258.772 23.7732 258.621 24.5712C258.621 24.6216 258.605 24.672 258.588 24.7224C258.563 24.7728 258.546 24.8484 258.546 24.9492V47.0428C258.546 47.8913 258.747 48.3869 259.139 48.5381C259.532 48.6893 259.933 48.7649 260.334 48.7649V49.8906C260.083 49.8906 259.741 49.9242 259.29 49.9998C258.847 50.0754 258.421 50.0166 258.02 49.815C257.577 49.6134 257.076 49.5126 256.533 49.5126C255.99 49.5126 255.514 49.6134 255.121 49.815C254.921 49.9158 254.695 49.9746 254.453 49.9998C254.202 50.025 253.96 50.0334 253.71 50.0334H252.816V48.8321C253.659 48.8321 254.144 48.6725 254.269 48.3449C254.394 48.0173 254.453 47.5804 254.453 47.0344V26.7386C254.453 26.6378 254.428 26.5118 254.378 26.3605C254.278 26.1085 254.102 25.9153 253.86 25.7641H252.891V25.0165C253.141 24.8148 253.459 24.5712 253.86 24.2688C254.202 24.0168 254.67 23.6724 255.238 23.2187C255.806 22.7735 256.516 22.1939 257.36 21.4966C257.753 21.1438 258.053 21.1018 258.254 21.3454C258.454 21.5974 258.555 21.8914 258.555 22.2443V22.8407C258.855 22.2947 259.248 21.8578 259.749 21.5302C260.242 21.2026 260.818 21.043 261.462 21.043C261.762 21.043 262.13 21.0598 262.581 21.0766C263.024 21.1018 263.374 21.1438 263.625 21.1858C264.118 21.2866 264.469 21.3874 264.669 21.4882C265.062 21.589 265.622 21.9166 266.348 22.4627C267.067 23.0087 267.551 23.664 267.802 24.4116H267.785Z" fill="#FA7000"/>
<path d="M294.065 48.558C294.658 48.7344 295.159 48.8184 295.552 48.8184V50.0953C295.301 50.0953 294.867 50.1037 294.249 50.1289C293.631 50.1541 293.121 50.0617 292.72 49.8685C292.277 49.6165 291.76 49.5073 291.192 49.5325C290.624 49.5577 290.139 49.6417 289.738 49.7929C289.538 49.8937 289.312 49.9525 289.07 49.9777C288.819 50.0029 288.577 50.0113 288.326 50.0113H287.432V48.8857C288.326 48.8857 288.836 48.7092 288.961 48.3648C289.086 48.012 289.145 47.5668 289.145 47.0207V11.9818L283.707 49.7929C283.707 49.8433 283.682 49.8685 283.632 49.8685H283.556C283.506 49.8685 283.481 49.8433 283.481 49.7929L277.375 12.0575V46.5755C277.375 47.676 277.751 48.3228 278.494 48.5244C279.238 48.726 280.056 48.8268 280.95 48.8268V50.0281H279.981C279.731 50.0281 279.463 50.0197 279.163 49.9945C278.862 49.9693 278.62 49.9105 278.419 49.8097C278.018 49.6081 277.525 49.5073 276.932 49.5073C276.339 49.5073 275.813 49.6333 275.37 49.8853C274.969 50.0869 274.426 50.1625 273.733 50.1121C273.039 50.0617 272.563 50.0365 272.321 50.0365V48.7596C272.714 48.7596 273.131 48.7764 273.549 48.7932C273.967 48.8184 274.343 48.768 274.668 48.642C274.994 48.516 275.261 48.306 275.487 48.0036C275.713 47.7012 275.821 47.2055 275.821 46.5083V5.6142C275.821 4.11889 275.687 3.11922 275.412 2.61519C275.136 2.11955 274.485 1.86753 273.44 1.86753C273.44 1.76673 273.465 1.56511 273.516 1.27109C273.566 0.968669 273.566 0.750254 273.516 0.599043L279.697 0.523438L284.459 33.5462L289.295 0.599043H295.327C295.377 0.69985 295.402 0.800657 295.402 0.901464V1.87593C294.408 1.87593 293.789 2.08595 293.539 2.51438C293.288 2.94281 293.163 3.92568 293.163 5.47139V47.0291C293.163 47.8776 293.464 48.39 294.057 48.5664L294.065 48.558Z" fill="#FA7000"/>
<path d="M316.035 48.5219C315.834 48.8747 315.609 49.1435 315.366 49.3451C315.116 49.5467 314.798 49.7315 314.397 49.9079C313.996 50.0844 313.504 50.1684 312.911 50.1684C311.716 50.2692 310.772 49.9332 310.079 49.1603C309.385 48.3874 309.035 47.4298 309.035 46.2789C308.884 46.6821 308.659 47.1694 308.366 47.7406C308.066 48.3118 307.422 48.9503 306.428 49.6475C305.785 50.1432 305.067 50.3868 304.273 50.3616C303.479 50.3364 302.886 50.2272 302.485 50.0256C301.241 49.4795 300.263 48.5555 299.545 47.2534C298.827 45.9597 298.442 44.3552 298.392 42.465C298.342 41.7174 298.384 40.8269 298.501 39.8104C298.626 38.7856 298.96 37.8531 299.503 37.0046C299.704 36.7022 299.913 36.4166 300.138 36.1394C300.364 35.8622 300.656 35.5765 301.032 35.2825C301.408 34.9801 301.892 34.6441 302.485 34.2744C303.078 33.8964 303.822 33.4428 304.716 32.8883C305.71 32.2415 306.487 31.7543 307.063 31.4266C307.631 31.099 308.191 30.595 308.742 29.8893V25.101C308.742 24.6054 308.634 24.1769 308.408 23.8241C308.182 23.4713 307.915 23.1773 307.589 22.9252C307.264 22.6732 306.929 22.4884 306.587 22.3624C306.236 22.2364 305.944 22.1776 305.693 22.1776C304.699 22.1776 303.905 22.354 303.312 22.6984C302.719 23.0513 302.293 23.4209 302.043 23.8241C301.892 24.0761 301.767 24.3954 301.667 24.7986C301.567 25.2018 301.567 25.521 301.667 25.773C301.767 26.0251 301.901 26.3443 302.076 26.7475C302.252 27.1507 302.335 27.5204 302.335 27.8732C302.235 28.8729 301.742 29.5449 300.848 29.8977C300.305 30.0994 299.796 29.9733 299.319 29.5197C298.843 29.0745 298.559 28.6461 298.459 28.2428C298.359 27.4952 298.517 26.6215 298.944 25.6218C299.361 24.6222 300.247 23.5973 301.583 22.5556C302.176 22.06 302.836 21.7072 303.555 21.5055C304.273 21.3039 305.008 21.2031 305.752 21.2031C306.846 21.2031 307.773 21.3543 308.542 21.6484C309.31 21.9508 309.953 22.3372 310.48 22.8076C310.998 23.2865 311.407 23.8073 311.708 24.3785C312.008 24.9498 312.226 25.4874 312.376 25.9915C312.426 26.1427 312.476 26.3947 312.526 26.7391C312.576 27.0919 312.61 27.4616 312.635 27.8648C312.66 28.268 312.685 28.6293 312.71 28.9485C312.735 29.2761 312.743 29.4861 312.743 29.5869V47.3374C312.693 47.6398 312.718 47.8834 312.819 48.085C313.019 48.5807 313.362 48.8579 313.863 48.9083C314.406 48.9587 314.807 48.8075 315.057 48.463C315.208 48.3118 315.333 48.1354 315.433 47.9422L316.026 48.5387L316.035 48.5219ZM308.734 34.7449V30.9226C308.433 31.4182 307.949 31.8971 307.28 32.3423C306.612 32.7875 305.777 33.4176 304.783 34.2156C303.989 34.8625 303.413 35.8538 303.07 37.1727C302.719 38.4999 302.552 39.7348 302.552 40.8773V45.0692C302.552 45.8673 302.611 46.6317 302.736 47.3542C302.861 48.0766 303.22 48.6143 303.814 48.9671C304.206 49.2191 304.657 49.2947 305.15 49.1939C305.643 49.0931 306.094 48.8663 306.487 48.5219C307.03 48.127 307.539 47.5726 308.015 46.8753C308.483 46.1781 308.725 45.3296 308.725 44.33V34.7449H308.734Z" fill="#FA7000"/>
<path d="M332.783 24.4116C332.984 25.1593 332.967 25.8985 332.75 26.621C332.525 27.3434 331.94 27.8811 331.004 28.2339C330.06 28.5867 329.258 28.5111 328.582 28.0071C327.913 27.5114 327.579 27.0326 327.579 26.5874C327.579 25.7893 327.73 25.2517 328.022 24.9744C328.323 24.6972 328.69 24.462 329.141 24.2604C329.392 24.1596 329.534 24.0252 329.584 23.8488C329.634 23.6724 329.659 23.5127 329.659 23.3615C329.659 23.1599 329.609 22.9835 329.509 22.8407C329.459 22.7903 329.409 22.7315 329.359 22.6559C329.308 22.5803 329.208 22.4963 329.058 22.3955C328.707 22.1434 328.314 21.9838 327.863 21.9082C327.421 21.8326 327.07 21.799 326.819 21.799C326.568 21.799 326.209 21.8494 325.741 21.9502C325.265 22.051 324.839 22.3031 324.438 22.6979C324.037 23.1431 323.77 23.7732 323.62 24.5712C323.62 24.6216 323.603 24.672 323.586 24.7224C323.561 24.7728 323.553 24.8484 323.553 24.9492V47.0428C323.553 47.8913 323.753 48.3869 324.146 48.5381C324.539 48.6893 324.94 48.7649 325.341 48.7649V49.8906C325.09 49.8906 324.747 49.9242 324.296 49.9998C323.854 50.0754 323.428 50.0166 323.027 49.815C322.584 49.6134 322.083 49.5126 321.54 49.5126C320.997 49.5126 320.521 49.6134 320.128 49.815C319.927 49.9158 319.702 49.9746 319.46 49.9998C319.209 50.025 318.967 50.0334 318.716 50.0334H317.822V48.8321C318.666 48.8321 319.151 48.6725 319.276 48.3449C319.401 48.0173 319.46 47.5804 319.46 47.0344V26.7386C319.46 26.6378 319.435 26.5118 319.384 26.3605C319.284 26.1085 319.109 25.9153 318.867 25.7641H317.898V25.0165C318.148 24.8148 318.466 24.5712 318.867 24.2688C319.217 24.0168 319.677 23.6724 320.245 23.2187C320.813 22.7735 321.523 22.1939 322.367 21.4966C322.759 21.1438 323.06 21.1018 323.26 21.3454C323.461 21.5974 323.561 21.8914 323.561 22.2443V22.8407C323.862 22.2947 324.255 21.8578 324.756 21.5302C325.249 21.2026 325.825 21.043 326.468 21.043C326.769 21.043 327.137 21.0598 327.588 21.0766C328.03 21.1018 328.381 21.1438 328.632 21.1858C329.125 21.2866 329.475 21.3874 329.676 21.4882C330.069 21.589 330.628 21.9166 331.355 22.4627C332.073 23.0087 332.558 23.664 332.809 24.4116H332.783Z" fill="#FA7000"/>
<path d="M353.333 46.7268C353.133 47.3737 352.857 47.9785 352.514 48.5246C352.214 48.9698 351.846 49.373 351.395 49.7258C350.952 50.0787 350.401 50.2467 349.758 50.2467C349.064 50.2467 348.446 50.2131 347.895 50.1375C347.352 50.0619 346.851 49.751 346.408 49.205C346.308 49.1042 346.099 48.7346 345.773 48.0793C345.447 47.4325 345.055 46.6176 344.579 45.6432C344.102 44.6687 343.584 43.6102 343.016 42.4593C342.448 41.3084 341.897 40.2164 341.379 39.1663C340.861 38.1162 340.377 37.1838 339.926 36.3605C339.483 35.5372 339.157 34.9492 338.957 34.6048L338.439 35.1256V46.9536C338.439 47.8021 338.639 48.3145 339.032 48.491C339.424 48.6674 339.825 48.7514 340.226 48.7514V49.8771C339.976 49.8771 339.633 49.9107 339.182 49.9863C338.739 50.0619 338.313 50.0031 337.912 49.8014C337.512 49.5998 337.044 49.499 336.501 49.499C335.958 49.499 335.482 49.5998 335.089 49.8014C334.688 49.9527 334.22 50.0283 333.677 50.0283C333.377 50.0283 333.084 50.0031 332.783 49.9527V48.827C333.627 48.827 334.095 48.6506 334.195 48.3061C334.295 47.9533 334.346 47.5081 334.346 46.962V5.61433C334.396 5.51352 334.396 5.38751 334.346 5.2363C334.245 4.89188 334.07 4.66506 333.828 4.56425H332.934L332.859 3.89221C333.109 3.69059 333.427 3.44697 333.828 3.14455C334.178 2.89253 334.621 2.53131 335.164 2.06088C335.707 1.59044 336.4 1.0024 337.253 0.305152C337.695 -0.0476725 338.013 -0.0896754 338.18 0.153942C338.355 0.40596 338.439 0.69998 338.439 1.05281V33.3279L346.776 23.5916C346.976 23.2388 347.026 22.9784 346.926 22.8019C346.826 22.6255 346.65 22.5247 346.408 22.4995C346.157 22.4743 345.89 22.4743 345.589 22.4995C345.289 22.5247 345.046 22.5331 344.846 22.5331V21.4074C345.096 21.4074 345.414 21.3822 345.815 21.3318C346.207 21.2814 346.608 21.357 347.009 21.5587C347.402 21.7603 347.87 21.8611 348.388 21.8611C348.906 21.8611 349.34 21.7603 349.691 21.5587C349.841 21.4578 350.025 21.4074 350.251 21.4074H351.779V22.4575C351.378 22.4575 351.044 22.4491 350.777 22.4239C350.501 22.3987 350.242 22.4155 349.992 22.4575C349.741 22.5079 349.499 22.6171 349.248 22.7935C348.998 22.97 348.705 23.2556 348.354 23.6588L341.805 31.2949L345.974 39.3847C346.466 40.3844 346.976 41.3673 347.502 42.3417C348.02 43.3162 348.48 44.173 348.881 44.9291C349.273 45.6768 349.724 46.5252 350.217 47.4745C350.418 47.6761 350.635 47.8021 350.885 47.8525C351.186 47.9029 351.428 47.8525 351.629 47.7013C351.829 47.5501 352.005 47.3737 352.147 47.1805C352.297 46.9788 352.422 46.7352 352.523 46.4328L353.341 46.7352L353.333 46.7268Z" fill="#FA7000"/>
<path d="M366.515 34.0657C365.972 34.3681 365.471 34.5865 365.028 34.7377C364.585 34.8889 364.31 34.9897 364.209 35.0401L363.09 35.2669C362.689 35.3677 362.28 35.477 361.862 35.603C361.436 35.729 361.052 35.8634 360.709 36.0146L360.266 36.2414C359.966 36.443 359.707 36.6278 359.481 36.8042C359.256 36.9807 359.097 37.1907 358.997 37.4427C358.947 37.4931 358.922 37.5687 358.922 37.6695V44.936C358.922 46.0869 359.206 46.9942 359.782 47.6662C360.35 48.3383 361.035 48.7247 361.829 48.8255C363.366 48.9263 364.585 48.5399 365.479 47.6662C366.373 46.7926 366.991 45.8097 367.342 44.7092C367.392 44.4572 367.45 44.1968 367.526 43.9195C367.601 43.6423 367.659 43.3819 367.709 43.1299C367.76 42.8275 367.81 42.5334 367.86 42.231C367.96 42.1806 368.169 42.1722 368.495 42.1974C368.82 42.2226 369.029 42.231 369.129 42.231C369.079 42.5839 369.029 42.9535 368.979 43.3567C368.879 43.7095 368.795 44.096 368.72 44.516C368.645 44.9444 368.536 45.3561 368.386 45.7509C367.843 47.2462 367.016 48.4055 365.93 49.2287C364.836 50.052 363.599 50.4636 362.204 50.4636H361.904C360.809 50.4636 359.891 50.304 359.147 49.9764C358.404 49.6488 357.769 49.2539 357.251 48.7751C356.733 48.3047 356.307 47.7922 355.989 47.2378C355.664 46.6917 355.43 46.1625 355.279 45.6669C355.179 45.5157 355.121 45.2636 355.096 44.9192C355.071 44.5664 355.029 44.222 354.987 43.8691C354.937 43.4743 354.912 43.0459 354.912 42.5923V27.8408C355.012 27.1436 355.162 26.4463 355.355 25.7407C355.555 25.1946 355.847 24.5898 356.248 23.9429C356.641 23.2961 357.192 22.7164 357.886 22.2208C358.93 21.4228 360.241 21.0195 361.829 21.0195H362.129C363.224 21.0195 364.176 21.1959 364.995 21.5404C365.813 21.8932 366.507 22.3132 367.083 22.8173C367.651 23.3129 368.11 23.8757 368.461 24.5058C368.804 25.1274 369.029 25.6903 369.129 26.1943C369.572 27.9416 369.589 29.4033 369.163 30.571C368.737 31.7471 368.328 32.5283 367.935 32.9316C367.542 33.3348 367.267 33.5784 367.116 33.6792C366.966 33.78 366.765 33.906 366.523 34.0573L366.515 34.0657ZM358.922 36.317C359.172 35.9726 359.531 35.6702 359.999 35.4181C360.467 35.1661 360.968 34.9225 361.486 34.6705C362.004 34.4185 362.539 34.1329 363.09 33.8136C363.633 33.486 364.134 33.0744 364.577 32.5787C364.919 32.1335 365.187 31.5959 365.362 30.9658C365.537 30.3442 365.646 29.6889 365.696 29.0169C365.746 28.3448 365.73 27.6812 365.663 27.0344C365.588 26.3875 365.529 25.7911 365.479 25.2366C365.429 24.9846 365.295 24.6234 365.07 24.153C364.844 23.6825 364.535 23.2205 364.142 22.7669C363.892 22.4644 363.574 22.2292 363.173 22.0528C362.772 21.8764 362.455 21.7924 362.204 21.7924C361.954 21.7924 361.595 21.8428 361.127 21.9436C360.651 22.0444 360.225 22.2964 359.824 22.6912C359.423 23.1365 359.155 23.7665 359.005 24.5646C358.955 24.7662 358.93 24.9678 358.93 25.161V36.317H358.922Z" fill="#FA7000"/>
<path d="M386.095 46.0534C386.196 46.1542 386.321 46.2298 386.471 46.2802C386.672 46.4314 386.847 46.507 386.989 46.507C386.688 47.1539 386.379 47.7419 386.062 48.2628C385.736 48.7836 385.377 49.2456 384.984 49.6488C384.492 50.1949 383.915 50.5561 383.272 50.7325C382.629 50.9089 382.077 50.9929 381.635 50.9929C380.54 50.9929 379.638 50.8585 378.92 50.5813C378.201 50.3041 377.6 49.9429 377.132 49.4976C376.656 49.0524 376.288 48.5484 376.013 48.0023C375.737 47.4563 375.528 46.9271 375.378 46.4314C375.278 46.129 375.219 45.8098 375.194 45.457C375.169 45.1041 375.161 44.8605 375.161 44.7093V21.4229H372.254V20.524C372.646 20.524 373.047 20.4988 373.448 20.4484C373.791 20.398 374.142 20.314 374.492 20.188C374.835 20.062 375.136 19.8519 375.386 19.5495C375.879 19.0035 376.28 18.3482 376.581 17.6006C376.881 16.8529 377.124 16.1305 377.324 15.4332C377.525 14.6352 377.7 13.8371 377.842 13.0391H379.329V20.524H384.466V21.4229H379.329V46.507C379.379 47.2043 379.672 47.8679 380.223 48.4896C380.766 49.1112 381.392 49.4724 382.086 49.5732C382.629 49.6236 383.28 49.4136 384.024 48.9348C384.767 48.4644 385.461 47.4983 386.112 46.0534H386.095Z" fill="#FA7000"/>
<path d="M47.2198 1.21359C44.6385 6.04393 42.4249 11.1767 39.1587 15.6038C37.4796 17.872 35.4831 19.8965 33.1776 21.5094C30.8887 23.1055 28.2908 24.08 25.9351 25.5501C21.7751 28.1543 16.8131 29.406 12.2103 30.9937C8.35938 32.321 4.9261 33.7323 2.22792 36.9581C-0.946398 40.7552 -0.862863 46.8624 3.34729 49.7858C3.63966 49.9874 3.91533 49.5086 3.62296 49.307C0.532168 47.1816 0.00589889 43.6954 1.04173 40.2679C1.71001 38.0502 3.28046 36.5045 5.00963 35.0596C8.20066 32.3882 12.6614 31.4305 16.5207 30.12C18.6091 29.406 20.7058 28.6751 22.7357 27.8015C24.632 26.9866 26.2776 25.8525 28.0819 24.8697C30.3708 23.618 32.6346 22.6855 34.7063 21.0474C36.3937 19.7117 37.8806 18.1576 39.1921 16.4607C42.7005 11.9159 44.9977 6.53956 47.6876 1.49921C47.8546 1.18838 47.3785 0.911165 47.2114 1.22199L47.2198 1.21359Z" fill="#FA7000"/>
<path d="M1.827 47.5829C2.77929 48.969 4.50011 50.0526 6.20422 50.2627C6.63025 50.3383 7.05627 50.3467 7.4823 50.2795C7.90833 50.2123 8.22576 49.9434 8.44295 49.4562C8.61837 49.0698 8.6685 48.6413 8.60167 48.1709C8.53484 47.7005 8.46801 47.2468 8.40954 46.8268C8.30094 46.4488 8.25082 46.1296 8.26753 45.8692C8.28424 45.6087 8.40118 45.3315 8.62673 45.0375C9.11958 44.4495 9.70433 44.1638 10.3643 44.189C11.0242 44.2562 11.5588 44.5839 11.9598 45.1551C12.3607 45.7347 12.5027 46.3564 12.3858 47.0284C12.2271 47.7509 11.8846 48.4061 11.3667 48.9942C10.8488 49.5822 10.264 50.0358 9.61244 50.3467C8.55155 50.9095 7.39877 51.1027 6.16245 50.9095C4.30798 50.5987 2.82941 49.7082 1.73511 48.2381" fill="#FA7000"/>
</svg>
