<svg width="279" height="37" viewBox="0 0 279 37" fill="none" xmlns="http://www.w3.org/2000/svg">
<path d="M27.4668 19.7983C27.5749 20.0156 27.6469 20.3113 27.6829 20.6854C27.7189 21.0596 27.737 21.3251 27.737 21.4639V31.6324C27.6649 32.1333 27.5568 32.6341 27.4187 33.1411C27.2747 33.5695 27.0645 34.0221 26.7763 34.4868C26.4881 34.9515 26.0979 35.3679 25.5995 35.7239C25.2453 35.9774 24.831 36.1825 24.3687 36.3455C23.9064 36.5084 23.3721 36.5869 22.7657 36.5869H22.6036C22.3154 36.5869 22.0032 36.5507 21.6669 36.4782C21.3247 36.4058 21.0185 36.2791 20.7303 36.1041C20.4421 35.9231 20.196 35.6937 19.9798 35.4041C19.7637 35.1204 19.5535 34.7221 19.3374 34.2213C19.2293 34.4747 19.1333 34.6678 19.0432 34.8127C18.9531 34.9575 18.9111 35.048 18.9111 35.0842C18.767 35.2653 18.5629 35.4342 18.2987 35.5972C18.0285 35.7601 17.7523 35.8748 17.4701 35.9472C17.29 35.9834 17.1159 36.0015 16.9358 36.0015H16.4014C16.2213 36.0015 16.0292 35.9834 15.813 35.9472V35.0842C16.4195 35.0842 16.7557 34.9696 16.8277 34.7342C16.8998 34.4989 16.9358 34.1851 16.9358 33.7928V5.10986C17.0078 4.60898 17.1159 4.1081 17.254 3.60118C17.3981 3.17272 17.6082 2.73219 17.8964 2.28562C18.1786 1.83905 18.5749 1.41662 19.0732 1.02437C19.7877 0.559694 20.5382 0.282098 21.3187 0.191577C22.1052 0.101057 22.8617 0.185543 23.5942 0.432965C24.3267 0.686423 24.9931 1.07868 25.5995 1.61577C26.2059 2.15286 26.6683 2.83478 26.9925 3.66153C27.0645 3.91499 27.1246 4.2469 27.1786 4.65726C27.2326 5.06762 27.2566 5.34521 27.2566 5.49005V11.8386C27.2566 12.8403 26.9624 13.8119 26.3741 14.7412C25.7857 15.6766 24.9751 16.2982 23.9364 16.6241C23.8644 16.6603 23.8104 16.6784 23.7743 16.6784C23.7383 16.6784 23.6843 16.6965 23.6122 16.7327C24.8611 16.8775 25.7677 17.2517 26.344 17.8612C26.9144 18.4707 27.2867 19.1164 27.4668 19.7983ZM19.8717 18.0784C20.1539 17.825 20.4601 17.6138 20.7843 17.4327C21.1026 17.2517 21.4628 17.0767 21.8531 16.8956C21.9972 16.8232 22.2073 16.7448 22.4955 16.6542C22.7777 16.5637 23.0478 16.3827 23.3 16.1172C23.5462 15.8456 23.7743 15.4533 23.9665 14.9344C24.1646 14.4154 24.2607 13.7093 24.2607 12.8101V3.92706C24.2607 3.60722 24.2366 3.26324 24.1826 2.90719C24.1286 2.55115 24.0325 2.20717 23.8884 1.88733C23.7443 1.56749 23.5402 1.29593 23.276 1.07868C23.0058 0.861429 22.6576 0.758839 22.2313 0.758839C22.0512 0.758839 21.793 0.782978 21.4568 0.837291C21.1146 0.891603 20.8084 1.06057 20.5202 1.35024C20.0939 1.88733 19.8777 2.65977 19.8777 3.66153V18.0784H19.8717ZM24.2547 35.398C24.6809 34.9696 24.8971 34.1971 24.8971 33.0867V20.0156C24.825 19.8345 24.771 19.5207 24.735 19.0742C24.6989 18.6276 24.5008 18.2233 24.1466 17.8612C23.8584 17.5776 23.6002 17.3965 23.3721 17.3241C23.1379 17.2517 22.9338 17.2155 22.7537 17.2155C22.5375 17.2155 22.3454 17.2396 22.1653 17.2939C21.9851 17.3482 21.757 17.4629 21.4688 17.6439C20.9705 17.8974 20.5082 18.181 20.0759 18.5069C20.0399 18.5431 20.0038 18.5672 19.9678 18.5854C19.9318 18.6035 19.8958 18.6276 19.8597 18.6638V32.9178C19.8958 33.3462 19.9318 33.7264 19.9678 34.0463C20.0038 34.3661 20.1119 34.6739 20.286 34.9635C20.5022 35.2834 20.7303 35.5187 20.9825 35.6636C21.5168 35.9834 22.0692 36.1222 22.6396 36.0679C23.21 36.0136 23.7443 35.7903 24.2426 35.398H24.2547Z" fill="#F7F6F2"/>
<path d="M33.1224 3.91965C33.4286 3.4429 33.9209 2.16958 34.1791 1.68681C34.4252 1.22817 34.5633 0.769531 35.1697 0.26865C35.4519 0.0151928 35.668 -0.0210154 35.8121 0.160026C35.9562 0.341067 36.0283 0.534177 36.0283 0.751427V33.725C36.0283 34.3345 36.1724 34.7027 36.4546 34.8294C36.7368 34.9561 37.0249 35.0165 37.3131 35.0165V35.9337C37.133 35.9337 36.8869 35.9398 36.5626 35.9579C36.2444 35.976 35.9382 35.9156 35.65 35.7708C35.3318 35.626 34.9836 35.5536 34.6053 35.5536C34.2271 35.5536 33.9029 35.626 33.6147 35.7708C33.4706 35.8432 33.3085 35.8855 33.1344 35.9036C32.9542 35.9217 32.7801 35.9277 32.6 35.9277H31.9576V35.0648C32.564 35.0648 32.9002 34.938 32.9723 34.6906C33.0443 34.4371 33.0803 34.1173 33.0803 33.725V32.6509L33.3445 4.83089C33.3445 4.69812 33.2845 4.38432 33.1584 4.55932" fill="#F7F6F2"/>
<path d="M48.7688 24.4735C48.3785 24.6907 48.0183 24.8476 47.7001 24.9562C47.3819 25.0649 47.1837 25.1373 47.1117 25.1735L46.3072 25.3364C46.019 25.4088 45.7248 25.4873 45.4246 25.5778C45.1184 25.6683 44.8422 25.7649 44.596 25.8735L44.2778 26.0364C44.0617 26.1813 43.8755 26.314 43.7134 26.4408C43.5513 26.5675 43.4373 26.7184 43.3652 26.8994C43.3292 26.9356 43.3112 26.9899 43.3112 27.0623V32.2824C43.3112 33.1091 43.5153 33.7609 43.9296 34.2436C44.3379 34.7264 44.8302 35.004 45.4006 35.0764C46.5053 35.1488 47.3819 34.8713 48.0243 34.2436C48.6667 33.616 49.111 32.91 49.3632 32.1194C49.3992 31.9384 49.4412 31.7513 49.4953 31.5522C49.5493 31.353 49.5913 31.1659 49.6274 30.9849C49.6634 30.7677 49.6994 30.5564 49.7354 30.3392C49.8075 30.303 49.9576 30.2969 50.1917 30.3151C50.4259 30.3332 50.576 30.3392 50.648 30.3392C50.612 30.5926 50.576 30.8582 50.54 31.1478C50.4679 31.4013 50.4079 31.6789 50.3538 31.9806C50.2998 32.2884 50.2218 32.5841 50.1137 32.8677C49.7234 33.9419 49.129 34.7747 48.3485 35.3661C47.562 35.9575 46.6734 36.2532 45.6707 36.2532H45.4546C44.6681 36.2532 44.0076 36.1385 43.4733 35.9032C42.9389 35.6678 42.4826 35.3842 42.1104 35.0402C41.7381 34.7023 41.4319 34.3342 41.2038 33.9359C40.9696 33.5436 40.8015 33.1634 40.6934 32.8074C40.6214 32.6988 40.5794 32.5177 40.5613 32.2703C40.5433 32.0168 40.5133 31.7694 40.4833 31.516C40.4473 31.2323 40.4293 30.9246 40.4293 30.5987V20.0017C40.5013 19.5009 40.6094 19 40.7475 18.4931C40.8916 18.1008 41.1017 17.6663 41.3899 17.2016C41.6721 16.737 42.0683 16.3206 42.5667 15.9645C43.3172 15.3912 44.2598 15.1016 45.4006 15.1016H45.6167C46.4032 15.1016 47.0877 15.2283 47.6761 15.4757C48.2645 15.7292 48.7628 16.0309 49.1771 16.393C49.5853 16.749 49.9156 17.1534 50.1677 17.606C50.4139 18.0525 50.576 18.4569 50.648 18.8189C50.9663 20.0742 50.9783 21.1242 50.6721 21.963C50.3659 22.8079 50.0717 23.3691 49.7895 23.6588C49.5013 23.9484 49.3092 24.1234 49.2011 24.1959C49.093 24.2683 48.9489 24.3588 48.7748 24.4674L48.7688 24.4735ZM43.3112 26.0908C43.4913 25.8433 43.7495 25.6261 44.0857 25.445C44.4219 25.264 44.7821 25.089 45.1544 24.908C45.5266 24.7269 45.9109 24.5217 46.3072 24.2924C46.6974 24.0571 47.0577 23.7614 47.3759 23.4053C47.622 23.0855 47.8142 22.6993 47.9402 22.2467C48.0663 21.8001 48.1444 21.3294 48.1804 20.8466C48.2164 20.3638 48.2044 19.8871 48.1564 19.4224C48.1024 18.9577 48.0603 18.5293 48.0243 18.131C47.9883 17.9499 47.8922 17.6904 47.7301 17.3525C47.568 17.0146 47.3459 16.6827 47.0637 16.3568C46.8835 16.1395 46.6554 15.9706 46.3672 15.8438C46.079 15.7171 45.8509 15.6568 45.6707 15.6568C45.4906 15.6568 45.2324 15.693 44.8962 15.7654C44.554 15.8378 44.2478 16.0188 43.9596 16.3025C43.6714 16.6223 43.4793 17.0749 43.3712 17.6482C43.3352 17.793 43.3172 17.9379 43.3172 18.0767V26.0908H43.3112Z" fill="#F7F6F2"/>
<path d="M63.4306 28.9927C63.5026 29.4212 63.5267 29.9281 63.5086 30.5014C63.4906 31.0747 63.4126 31.6419 63.2685 32.1971C63.1244 32.7523 62.9142 33.3015 62.6261 33.8386C62.3379 34.3757 61.9476 34.8283 61.4493 35.1843C60.9149 35.5766 60.3686 35.8662 59.8162 36.0473C59.2638 36.2283 58.7355 36.3188 58.2371 36.3188C57.6307 36.3188 57.1024 36.2283 56.6581 36.0473C56.2138 35.8662 55.7935 35.6912 55.4033 35.5102C55.2592 35.4378 55.0851 35.3472 54.8689 35.2386C54.6528 35.13 54.4426 35.13 54.2265 35.2386C54.0824 35.311 53.9743 35.474 53.9083 35.7214C53.8723 35.83 53.8723 35.9205 53.9083 35.993H53.1578L53.1037 30.2902H54.1184C54.1544 30.7548 54.2445 31.2859 54.3886 31.8773C54.5327 32.4687 54.7428 32.9635 55.031 33.3558C55.2772 33.7118 55.6734 34.1463 56.2078 34.6472C56.7422 35.1481 57.4026 35.4197 58.1891 35.4559C59.1858 35.4559 59.9303 35.1059 60.4106 34.4058C60.8909 33.7058 61.1671 33.0179 61.2391 32.3359C61.3112 31.5092 61.2151 30.8031 60.9449 30.2117C60.6748 29.6203 60.3445 29.0712 59.9543 28.5703C59.7742 28.353 59.51 28.0935 59.1498 27.7918C58.7955 27.4901 58.4173 27.1944 58.027 26.9047C57.6367 26.6211 57.2705 26.3555 56.9283 26.1262C56.5861 25.8909 56.3639 25.74 56.2618 25.6676C55.8716 25.3779 55.4753 25.0762 55.0851 24.7503C54.7668 24.4667 54.4486 24.1529 54.1484 23.8089C53.8422 23.471 53.6021 23.1028 53.428 22.7045C53.3559 22.5235 53.2658 22.1916 53.1578 21.7088C53.0497 21.226 52.9957 20.689 52.9957 20.0976C52.9957 19.5062 53.0857 18.8966 53.2658 18.269C53.446 17.6414 53.8002 17.0561 54.3346 16.519C55.3672 15.481 56.562 14.9982 57.9189 15.0646C58.5614 15.1008 59.0897 15.1793 59.498 15.306C59.9063 15.4327 60.2725 15.5836 60.5967 15.7646C60.7048 15.8371 60.8549 15.9155 61.053 16.006C61.2511 16.0965 61.4373 16.0483 61.6174 15.8733C61.7615 15.7284 61.8335 15.5715 61.8335 15.3905V15.1189C61.9056 15.1551 61.9956 15.1732 62.1037 15.1732C62.1758 15.1732 62.2478 15.1853 62.3199 15.1974C62.3919 15.2155 62.4459 15.2215 62.482 15.2215V21.4614H61.4673C61.4673 20.8157 61.4193 20.182 61.3352 19.5544C61.2451 18.9268 60.9509 18.2389 60.4526 17.4845C60.1644 17.0923 59.7862 16.7121 59.2998 16.356C58.8195 16 58.2732 15.8371 57.6668 15.8733C56.9883 15.8733 56.442 15.9698 56.0337 16.169C55.6254 16.3681 55.3012 16.6095 55.073 16.8931C54.8389 17.1828 54.6888 17.4785 54.6167 17.7802C54.5447 18.088 54.5267 18.3475 54.5627 18.5587C54.6708 19.2044 54.965 19.832 55.4453 20.4415C55.9256 21.051 56.7181 21.733 57.8289 22.4873C58.009 22.5959 58.2912 22.783 58.6874 23.0546C59.0777 23.3261 59.492 23.6098 59.9183 23.9175C60.3445 24.2253 60.7588 24.5391 61.1491 24.8589C61.5393 25.1788 61.8275 25.4684 62.0076 25.7219C62.506 26.44 62.8542 27.0194 63.0523 27.472C63.2505 27.9185 63.3826 28.4315 63.4546 29.0048L63.4306 28.9927Z" fill="#F7F6F2"/>
<path d="M76.6513 28.9927C76.7233 29.4212 76.7474 29.9281 76.7293 30.5014C76.7113 31.0747 76.6333 31.6419 76.4892 32.1971C76.3451 32.7523 76.1349 33.3015 75.8468 33.8386C75.5586 34.3757 75.1683 34.8283 74.67 35.1843C74.1356 35.5766 73.5893 35.8662 73.0369 36.0473C72.4845 36.2283 71.9562 36.3188 71.4578 36.3188C70.8514 36.3188 70.3231 36.2283 69.8788 36.0473C69.4345 35.8662 69.0142 35.6912 68.624 35.5102C68.4799 35.4378 68.3058 35.3472 68.0896 35.2386C67.8735 35.13 67.6633 35.13 67.4472 35.2386C67.3031 35.311 67.195 35.474 67.129 35.7214C67.0929 35.83 67.0929 35.9205 67.129 35.993H66.3785L66.3244 30.2902H67.3391C67.3751 30.7548 67.4652 31.2859 67.6093 31.8773C67.7534 32.4687 67.9635 32.9635 68.2517 33.3558C68.4979 33.7118 68.8941 34.1463 69.4285 34.6472C69.9629 35.1481 70.6233 35.4197 71.4098 35.4559C72.4065 35.4559 73.151 35.1059 73.6313 34.4058C74.1116 33.7058 74.3878 33.0179 74.4598 32.3359C74.5319 31.5092 74.4358 30.8031 74.1656 30.2117C73.8955 29.6203 73.5652 29.0712 73.175 28.5703C72.9949 28.353 72.7307 28.0935 72.3705 27.7918C72.0162 27.4901 71.638 27.1944 71.2477 26.9047C70.8574 26.6211 70.4912 26.3555 70.149 26.1262C69.8067 25.8909 69.5846 25.74 69.4825 25.6676C69.0923 25.3779 68.696 25.0762 68.3058 24.7503C67.9875 24.4667 67.6693 24.1529 67.3691 23.8089C67.0629 23.471 66.8228 23.1028 66.6487 22.7045C66.5766 22.5235 66.4865 22.1916 66.3785 21.7088C66.2704 21.226 66.2164 20.689 66.2164 20.0976C66.2164 19.5062 66.3064 18.8966 66.4865 18.269C66.6667 17.6414 67.0209 17.0561 67.5553 16.519C68.5879 15.481 69.7827 14.9982 71.1396 15.0646C71.7821 15.1008 72.3104 15.1793 72.7187 15.306C73.127 15.4327 73.4932 15.5836 73.8174 15.7646C73.9255 15.8371 74.0756 15.9155 74.2737 16.006C74.4718 16.0965 74.658 16.0483 74.8381 15.8733C74.9822 15.7284 75.0542 15.5715 75.0542 15.3905V15.1189C75.1263 15.1551 75.2163 15.1732 75.3244 15.1732C75.3965 15.1732 75.4685 15.1853 75.5406 15.1974C75.6126 15.2155 75.6666 15.2215 75.7027 15.2215V21.4614H74.688C74.688 20.8157 74.64 20.182 74.5559 19.5544C74.4658 18.9268 74.1716 18.2389 73.6733 17.4845C73.3851 17.0923 73.0069 16.7121 72.5206 16.356C72.0402 16 71.4939 15.8371 70.8875 15.8733C70.209 15.8733 69.6627 15.9698 69.2544 16.169C68.8461 16.3681 68.5219 16.6095 68.2937 16.8931C68.0596 17.1828 67.9095 17.4785 67.8374 17.7802C67.7654 18.088 67.7474 18.3475 67.7834 18.5587C67.8915 19.2044 68.1857 19.832 68.666 20.4415C69.1463 21.051 69.9388 21.733 71.0496 22.4873C71.2297 22.5959 71.5119 22.783 71.9081 23.0546C72.2984 23.3261 72.7127 23.6098 73.139 23.9175C73.5652 24.2253 73.9795 24.5391 74.3698 24.8589C74.76 25.1788 75.0482 25.4684 75.2283 25.7219C75.7267 26.44 76.0749 27.0194 76.273 27.472C76.4712 27.9185 76.6033 28.4315 76.6753 29.0048L76.6513 28.9927Z" fill="#F7F6F2"/>
<path d="M87.6206 24.4735C87.2303 24.6907 86.8701 24.8476 86.5519 24.9562C86.2337 25.0649 86.0355 25.1373 85.9635 25.1735L85.159 25.3364C84.8708 25.4088 84.5766 25.4873 84.2764 25.5778C83.9702 25.6683 83.694 25.7649 83.4478 25.8735L83.1296 26.0364C82.9135 26.1813 82.7274 26.314 82.5652 26.4408C82.4031 26.5675 82.2891 26.7184 82.217 26.8994C82.181 26.9356 82.163 26.9899 82.163 27.0623V32.2824C82.163 33.1091 82.3671 33.7609 82.7814 34.2436C83.1897 34.7264 83.682 35.004 84.2524 35.0764C85.3571 35.1488 86.2337 34.8713 86.8761 34.2436C87.5185 33.616 87.9628 32.91 88.215 32.1194C88.251 31.9384 88.293 31.7513 88.3471 31.5522C88.4011 31.353 88.4431 31.1659 88.4792 30.9849C88.5152 30.7677 88.5512 30.5564 88.5872 30.3392C88.6593 30.303 88.8094 30.2969 89.0435 30.3151C89.2777 30.3332 89.4278 30.3392 89.4998 30.3392C89.4638 30.5926 89.4278 30.8582 89.3918 31.1478C89.3197 31.4013 89.2597 31.6789 89.2057 31.9806C89.1516 32.2884 89.0736 32.5841 88.9655 32.8677C88.5752 33.9419 87.9808 34.7747 87.2003 35.3661C86.4138 35.9575 85.5252 36.2532 84.5225 36.2532H84.3064C83.5199 36.2532 82.8594 36.1385 82.3251 35.9032C81.7907 35.6678 81.3344 35.3842 80.9622 35.0402C80.5899 34.7023 80.2837 34.3342 80.0556 33.9359C79.8214 33.5436 79.6533 33.1634 79.5452 32.8074C79.4732 32.6988 79.4312 32.5177 79.4132 32.2703C79.3951 32.0168 79.3651 31.7694 79.3351 31.516C79.2991 31.2323 79.2811 30.9246 79.2811 30.5987V20.0017C79.3531 19.5009 79.4612 19 79.5993 18.4931C79.7434 18.1008 79.9535 17.6663 80.2417 17.2016C80.5239 16.737 80.9202 16.3206 81.4185 15.9645C82.169 15.3912 83.1116 15.1016 84.2524 15.1016H84.4685C85.255 15.1016 85.9395 15.2283 86.5279 15.4757C87.1163 15.7292 87.6146 16.0309 88.0289 16.393C88.4371 16.749 88.7674 17.1534 89.0195 17.606C89.2717 18.0525 89.4278 18.4569 89.4998 18.8189C89.8181 20.0742 89.8301 21.1242 89.5239 21.963C89.2177 22.8079 88.9235 23.3691 88.6413 23.6588C88.3531 23.9484 88.161 24.1234 88.0529 24.1959C87.9448 24.2683 87.8007 24.3588 87.6266 24.4674L87.6206 24.4735ZM82.163 26.0908C82.3431 25.8433 82.6013 25.6261 82.9375 25.445C83.2737 25.264 83.634 25.089 84.0062 24.908C84.3784 24.7269 84.7627 24.5217 85.159 24.2924C85.5492 24.0571 85.9095 23.7614 86.2277 23.4053C86.4738 23.0855 86.666 22.6993 86.792 22.2467C86.9181 21.8001 86.9962 21.3294 87.0322 20.8466C87.0682 20.3638 87.0562 19.8871 87.0082 19.4224C86.9542 18.9577 86.9121 18.5293 86.8761 18.131C86.8401 17.9499 86.744 17.6904 86.5819 17.3525C86.4198 17.0146 86.1976 16.6827 85.9155 16.3568C85.7353 16.1395 85.5072 15.9706 85.219 15.8438C84.9308 15.7171 84.7027 15.6568 84.5225 15.6568C84.3424 15.6568 84.0842 15.693 83.748 15.7654C83.4058 15.8378 83.0996 16.0188 82.8114 16.3025C82.5232 16.6223 82.3311 17.0749 82.223 17.6482C82.187 17.793 82.169 17.9379 82.169 18.0767V26.0908H82.163Z" fill="#F7F6F2"/>
<path d="M102.715 33.7244C102.715 34.1166 102.751 34.4425 102.823 34.6899C102.895 34.9434 103.231 35.0641 103.837 35.0641V35.8727C103.621 35.9089 103.429 35.927 103.249 35.927H102.685C102.486 35.927 102.318 35.9089 102.174 35.8727C101.886 35.8003 101.61 35.6856 101.346 35.5227C101.076 35.3598 100.871 35.1908 100.727 35.0097C100.727 34.9735 100.679 34.883 100.595 34.7382C100.505 34.5934 100.409 34.4183 100.301 34.2011C100.049 34.7744 99.7126 35.2572 99.2863 35.6555C98.86 36.0477 98.2897 36.2469 97.5752 36.2469H97.4131C96.2723 36.2469 95.3237 35.9572 94.5792 35.3839C94.0809 35.0279 93.6846 34.6235 93.4024 34.1709C93.1142 33.7244 92.9041 33.2838 92.76 32.8554C92.6159 32.3907 92.5258 31.8898 92.4898 31.3467V19.6756C92.4898 19.3557 92.5619 18.9755 92.706 18.5471C92.814 18.191 92.9761 17.8048 93.1863 17.3884C93.4024 16.9781 93.6966 16.5979 94.0688 16.2599C94.4411 15.922 94.9094 15.6384 95.4618 15.4271C96.0141 15.2099 96.6806 15.1073 97.4671 15.1073H97.6832C98.1095 15.1073 98.5058 15.222 98.86 15.4573C99.2143 15.6927 99.5025 16.0065 99.7186 16.3987V4.30518C99.7546 4.23276 99.7546 4.14224 99.7186 4.03362C99.6466 3.81637 99.5025 3.67757 99.2923 3.60515C99.2203 3.56894 99.0942 3.55084 98.9201 3.55084H98.6499V3.06806C98.83 2.92323 99.0582 2.74822 99.3464 2.53098C99.5925 2.34993 99.9167 2.10251 100.307 1.77664C100.697 1.4568 101.196 1.0404 101.808 0.539524C102.126 0.286066 102.36 0.255893 102.504 0.430899C102.649 0.61194 102.721 0.805051 102.721 1.0223V33.7244H102.715ZM99.7126 33.4588C99.7486 33.3502 99.7666 33.1873 99.7666 32.9761L99.7126 32.9217V17.6479C99.6045 17.0746 99.3944 16.628 99.0702 16.3022C98.782 16.0185 98.4818 15.8375 98.1576 15.7651C97.8393 15.6927 97.5872 15.6565 97.4071 15.6565C97.2269 15.6565 97.0228 15.7047 96.7947 15.7892C96.5605 15.8797 96.3023 16.0668 96.0201 16.3565C95.768 16.6461 95.5999 16.9298 95.5098 17.2194C95.4198 17.5091 95.3597 17.7384 95.3237 17.9195C95.2877 18.0281 95.2696 18.1246 95.2696 18.2152V18.6738C95.2696 18.7462 95.2877 18.8005 95.3237 18.8367V33.308C95.3237 33.4528 95.3417 33.6157 95.3777 33.7907C95.4498 34.0442 95.5218 34.2735 95.5939 34.4908C95.6659 34.708 95.792 34.9011 95.9661 35.0822C96.2483 35.3718 96.5545 35.5468 96.8787 35.6193C97.1969 35.6917 97.4491 35.7279 97.6292 35.7279C98.0195 35.7279 98.4878 35.5106 99.0221 35.0822C99.2683 34.7985 99.4424 34.4968 99.5325 34.1951C99.6225 33.8933 99.6826 33.6459 99.7186 33.4709L99.7126 33.4588Z" fill="#F7F6F2"/>
<path d="M121.417 9.33478C121.291 9.35289 121.141 9.35892 120.961 9.35892C120.961 8.96666 120.943 8.35716 120.907 7.5304C120.871 6.70365 120.763 5.86483 120.588 5.00186C120.408 4.1389 120.15 3.35439 119.814 2.63626C119.472 1.91813 119.021 1.47156 118.451 1.29052C118.061 1.1819 117.677 1.10948 117.298 1.07327C116.926 1.03706 116.524 1.01896 116.091 1.01896V17.2101H118.553C118.871 17.2101 119.099 17.1195 119.22 16.9385C119.346 16.7575 119.436 16.5463 119.49 16.2928C119.544 16.0393 119.562 15.7919 119.544 15.5385C119.526 15.285 119.52 15.0919 119.52 14.9471H120.432C120.432 15.1281 120.42 15.4057 120.408 15.7798C120.39 16.154 120.36 16.504 120.33 16.8299C120.258 17.2583 120.222 17.5842 120.222 17.7954C120.222 18.0066 120.24 18.2601 120.276 18.5498C120.276 18.7308 120.282 18.936 120.3 19.1713C120.318 19.4067 120.342 19.63 120.378 19.8412C120.414 20.0947 120.432 20.3602 120.432 20.6498H119.574C119.574 20.0766 119.55 19.5455 119.496 19.0627C119.442 18.5799 119.184 18.3023 118.721 18.2299H116.097V33.9926C116.097 34.3124 116.17 34.5478 116.314 34.6926C116.458 34.8374 116.632 34.934 116.848 34.9883C117.064 35.0426 117.286 35.0668 117.514 35.0668H118.079V35.984C117.863 35.984 117.49 35.9901 116.956 36.0082C116.422 36.0263 116.013 35.9599 115.725 35.8211C115.407 35.6763 115.041 35.6038 114.627 35.6038C114.212 35.6038 113.87 35.6582 113.582 35.7668C113.438 35.8392 113.24 35.8814 112.993 35.8995C112.741 35.9176 112.495 35.9237 112.243 35.9237H111.282V35.115C111.889 35.115 112.333 34.9823 112.621 34.7107C112.903 34.4391 113.047 34.1133 113.047 33.715V1.77933C113.047 1.70692 113.029 1.6164 112.993 1.50777C112.921 1.25431 112.795 1.09741 112.621 1.02499C112.549 0.988786 112.387 0.970682 112.141 0.970682H111.282V0.433594H121.879V9.31064C121.699 9.31064 121.549 9.32271 121.423 9.33478H121.417Z" fill="#F7F6F2"/>
<path d="M128.934 32.6509V33.725C128.934 34.3345 129.078 34.7027 129.36 34.8294C129.643 34.9561 129.931 35.0165 130.219 35.0165V35.9337C130.039 35.9337 129.793 35.9398 129.468 35.9579C129.15 35.976 128.844 35.9156 128.556 35.7708C128.238 35.626 127.889 35.5536 127.511 35.5536C127.133 35.5536 126.809 35.626 126.52 35.7708C126.376 35.8432 126.214 35.8855 126.04 35.9036C125.86 35.9217 125.686 35.9277 125.506 35.9277H124.863V35.0648C125.47 35.0648 125.806 34.938 125.878 34.6906C125.95 34.4371 125.986 34.1173 125.986 33.725V4.03431C126.022 3.96189 126.022 3.87137 125.986 3.76274C125.914 3.54549 125.77 3.4067 125.56 3.33428C125.488 3.29807 125.362 3.27997 125.188 3.27997H124.917V2.79719C125.061 2.65236 125.272 2.47735 125.56 2.2601C125.806 2.07906 126.142 1.83164 126.55 1.50576C126.959 1.18593 127.469 0.769531 128.075 0.26865C128.358 0.0151928 128.574 -0.0210154 128.718 0.160026C128.862 0.341067 128.934 0.534177 128.934 0.751427V32.6509Z" fill="#F7F6F2"/>
<path d="M143.224 18.5591C143.404 18.9514 143.494 19.3315 143.494 19.6876V31.3587C143.422 31.8958 143.314 32.3967 143.176 32.8674C143.032 33.2958 142.821 33.7364 142.533 34.1829C142.245 34.6295 141.855 35.0338 141.356 35.3959C140.606 35.9692 139.681 36.2589 138.571 36.2589H138.354C137.568 36.2589 136.901 36.1442 136.349 35.9089C135.797 35.6735 135.334 35.3899 134.956 35.0459C134.584 34.708 134.29 34.3398 134.074 33.9416C133.857 33.5493 133.701 33.1691 133.593 32.8131C133.413 32.276 133.323 31.8958 133.323 31.6846V20.0135C133.395 19.5126 133.503 19.0117 133.641 18.5048C133.785 18.1125 133.996 17.678 134.284 17.2134C134.566 16.7487 134.962 16.3323 135.46 15.9762C136.211 15.4029 137.154 15.1133 138.294 15.1133H138.456C139.243 15.1133 139.909 15.2219 140.462 15.4331C141.014 15.6504 141.476 15.928 141.855 16.2659C142.227 16.6099 142.521 16.984 142.737 17.3944C142.953 17.8048 143.11 18.191 143.218 18.5531L143.224 18.5591ZM140.654 18.4505V18.2091C140.654 18.1186 140.636 18.022 140.6 17.9134C140.564 17.7323 140.504 17.503 140.414 17.2134C140.324 16.9297 140.156 16.6401 139.903 16.3504C139.615 16.0668 139.357 15.8737 139.129 15.7831C138.895 15.6926 138.691 15.6504 138.511 15.6504C138.33 15.6504 138.084 15.6866 137.76 15.759C137.442 15.8314 137.136 16.0125 136.853 16.2961C136.565 16.6159 136.373 17.0685 136.265 17.6418C136.229 17.7867 136.211 17.9315 136.211 18.0703V33.4527C136.247 33.6338 136.319 33.8752 136.427 34.1769C136.535 34.4847 136.697 34.7804 136.907 35.064C137.442 35.4925 137.904 35.7097 138.3 35.7097C138.48 35.7097 138.727 35.6735 139.051 35.6011C139.369 35.5287 139.693 35.3476 140.011 35.064C140.294 34.7442 140.492 34.3097 140.6 33.7726C140.636 33.5915 140.642 33.4346 140.624 33.2898C140.606 33.145 140.612 33.0062 140.648 32.8613V18.4444L140.654 18.4505Z" fill="#F7F6F2"/>
<path d="M165.696 15.5494C165.949 15.4408 166.285 15.3864 166.711 15.3864H167.354V16.2494C166.747 16.2494 166.267 16.2675 165.907 16.3037C165.552 16.3399 165.246 16.696 164.994 17.3779C164.922 17.6313 164.814 18.084 164.676 18.7478C164.532 19.4116 164.37 20.2021 164.195 21.1134C164.015 22.0306 163.829 23.0324 163.631 24.1247C163.433 25.217 163.229 26.3213 163.013 27.4317C162.514 30.0146 161.98 32.8629 161.41 35.9829H157.609C157.501 35.2647 157.375 34.4923 157.237 33.6716C157.129 32.9535 157.003 32.1508 156.865 31.2517C156.72 30.3585 156.558 29.4051 156.384 28.4033C156.204 29.4051 156.03 30.3585 155.85 31.2517C155.67 32.1508 155.508 32.9535 155.37 33.6716C155.225 34.4983 155.063 35.2647 154.889 35.9829H151.305C150.662 33.0802 150.074 30.3706 149.54 27.8602C149.324 26.786 149.101 25.7178 148.873 24.6618C148.639 23.6057 148.429 22.5979 148.231 21.6505C148.033 20.703 147.859 19.8642 147.696 19.1521C147.534 18.434 147.438 17.8969 147.402 17.5408C147.402 17.4684 147.39 17.4141 147.378 17.3779C147.36 17.3417 147.354 17.3055 147.354 17.2693C147.138 16.6598 146.946 16.346 146.766 16.3279C146.586 16.3097 146.358 16.3037 146.069 16.3037V15.3864C146.25 15.3864 146.478 15.3804 146.766 15.3623C147.048 15.3442 147.336 15.4106 147.624 15.5494C148.339 15.839 148.999 15.839 149.606 15.5494C149.75 15.477 149.924 15.4347 150.14 15.4166C150.356 15.3985 150.548 15.3925 150.728 15.3925H151.425V16.2554C150.819 16.2554 150.434 16.3641 150.272 16.5753C150.11 16.7925 150.068 17.0943 150.14 17.4926L153.941 35.2949L155.922 25.2894C155.634 23.5695 155.376 21.9884 155.147 20.5582C154.913 19.1219 154.763 18.1202 154.691 17.5469C154.655 17.4744 154.637 17.4201 154.637 17.3839C154.637 17.3477 154.619 17.3115 154.583 17.2753C154.403 16.6658 154.217 16.352 154.019 16.3339C153.821 16.3158 153.598 16.3097 153.352 16.3097V15.3925C153.532 15.3925 153.754 15.3864 154.019 15.3683C154.289 15.3502 154.565 15.4166 154.847 15.5554C155.165 15.7002 155.514 15.7727 155.892 15.7727C156.27 15.7727 156.594 15.7002 156.883 15.5554C156.991 15.483 157.153 15.4408 157.363 15.4226C157.579 15.4045 157.771 15.3985 157.951 15.3985H158.648V16.2615C158.041 16.2615 157.657 16.3701 157.495 16.5813C157.333 16.7986 157.291 17.1003 157.363 17.4986L160.251 35.301L163.835 17.227C163.943 16.9072 163.931 16.6718 163.811 16.527C163.685 16.3822 163.517 16.2916 163.301 16.2554C163.085 16.2192 162.857 16.2192 162.604 16.2554C162.352 16.2916 162.16 16.3097 162.016 16.3097L161.962 15.3925C162.178 15.3925 162.442 15.3864 162.766 15.3683C163.085 15.3502 163.391 15.4166 163.679 15.5554C163.961 15.7002 164.303 15.7727 164.694 15.7727C165.084 15.7727 165.426 15.7002 165.708 15.5554L165.696 15.5494Z" fill="#F7F6F2"/>
<path d="M178.059 24.4735C177.668 24.6907 177.308 24.8476 176.99 24.9562C176.672 25.0649 176.474 25.1373 176.401 25.1735L175.597 25.3364C175.309 25.4088 175.015 25.4873 174.714 25.5778C174.408 25.6683 174.132 25.7649 173.886 25.8735L173.568 26.0364C173.351 26.1813 173.165 26.314 173.003 26.4408C172.841 26.5675 172.727 26.7184 172.655 26.8994C172.619 26.9356 172.601 26.9899 172.601 27.0623V32.2824C172.601 33.1091 172.805 33.7609 173.219 34.2436C173.628 34.7264 174.12 35.004 174.69 35.0764C175.795 35.1488 176.672 34.8713 177.314 34.2436C177.957 33.616 178.401 32.91 178.653 32.1194C178.689 31.9384 178.731 31.7513 178.785 31.5522C178.839 31.353 178.881 31.1659 178.917 30.9849C178.953 30.7677 178.989 30.5564 179.025 30.3392C179.097 30.303 179.247 30.2969 179.482 30.3151C179.716 30.3332 179.866 30.3392 179.938 30.3392C179.902 30.5926 179.866 30.8582 179.83 31.1478C179.758 31.4013 179.698 31.6789 179.644 31.9806C179.59 32.2884 179.512 32.5841 179.403 32.8677C179.013 33.9419 178.419 34.7747 177.638 35.3661C176.852 35.9575 175.963 36.2532 174.961 36.2532H174.744C173.958 36.2532 173.297 36.1385 172.763 35.9032C172.229 35.6678 171.772 35.3842 171.4 35.0402C171.028 34.7023 170.722 34.3342 170.494 33.9359C170.259 33.5436 170.091 33.1634 169.983 32.8074C169.911 32.6988 169.869 32.5177 169.851 32.2703C169.833 32.0168 169.803 31.7694 169.773 31.516C169.737 31.2323 169.719 30.9246 169.719 30.5987V20.0017C169.791 19.5009 169.899 19 170.037 18.4931C170.181 18.1008 170.392 17.6663 170.68 17.2016C170.962 16.737 171.358 16.3206 171.856 15.9645C172.607 15.3912 173.55 15.1016 174.69 15.1016H174.907C175.693 15.1016 176.377 15.2283 176.966 15.4757C177.554 15.7292 178.053 16.0309 178.467 16.393C178.875 16.749 179.205 17.1534 179.458 17.606C179.704 18.0525 179.866 18.4569 179.938 18.8189C180.256 20.0742 180.268 21.1242 179.962 21.963C179.656 22.8079 179.361 23.3691 179.079 23.6588C178.797 23.9484 178.599 24.1234 178.491 24.1959C178.383 24.2683 178.239 24.3588 178.065 24.4674L178.059 24.4735ZM172.601 26.0908C172.781 25.8433 173.039 25.6261 173.375 25.445C173.712 25.264 174.072 25.089 174.444 24.908C174.816 24.7269 175.201 24.5217 175.597 24.2924C175.987 24.0571 176.347 23.7614 176.666 23.4053C176.912 23.0855 177.104 22.6993 177.23 22.2467C177.356 21.8001 177.434 21.3294 177.47 20.8466C177.506 20.3638 177.494 19.8871 177.446 19.4224C177.392 18.9577 177.35 18.5293 177.314 18.131C177.278 17.9499 177.182 17.6904 177.02 17.3525C176.858 17.0146 176.636 16.6827 176.353 16.3568C176.173 16.1395 175.945 15.9706 175.657 15.8438C175.369 15.7171 175.141 15.6568 174.961 15.6568C174.78 15.6568 174.522 15.693 174.186 15.7654C173.844 15.8378 173.532 16.0188 173.249 16.3025C172.961 16.6223 172.769 17.0749 172.661 17.6482C172.625 17.793 172.607 17.9379 172.607 18.0767V26.0908H172.601Z" fill="#F7F6F2"/>
<path d="M193.261 17.541C193.405 18.0781 193.393 18.6092 193.237 19.1281C193.075 19.6471 192.654 20.0333 191.982 20.2868C191.303 20.5403 190.727 20.4859 190.241 20.1239C189.76 19.7678 189.52 19.4238 189.52 19.104C189.52 18.5307 189.628 18.1445 189.838 17.9453C190.055 17.7462 190.319 17.5772 190.643 17.4324C190.823 17.36 190.925 17.2634 190.961 17.1367C190.997 17.01 191.015 16.8953 191.015 16.7867C191.015 16.6418 190.979 16.5151 190.907 16.4125C190.871 16.3763 190.835 16.3341 190.799 16.2798C190.763 16.2254 190.691 16.1651 190.583 16.0927C190.331 15.9116 190.049 15.797 189.724 15.7427C189.406 15.6884 189.154 15.6642 188.974 15.6642C188.794 15.6642 188.536 15.7004 188.199 15.7728C187.857 15.8453 187.551 16.0263 187.263 16.3099C186.974 16.6298 186.782 17.0824 186.674 17.6557C186.674 17.6919 186.662 17.7281 186.65 17.7643C186.632 17.8005 186.62 17.8548 186.62 17.9272V33.7985C186.62 34.408 186.764 34.7641 187.047 34.8727C187.329 34.9813 187.617 35.0356 187.905 35.0356V35.8443C187.725 35.8443 187.479 35.8684 187.155 35.9227C186.836 35.977 186.53 35.9348 186.242 35.79C185.924 35.6451 185.564 35.5727 185.173 35.5727C184.783 35.5727 184.441 35.6451 184.159 35.79C184.015 35.8624 183.852 35.9046 183.678 35.9227C183.498 35.9408 183.324 35.9469 183.144 35.9469H182.502V35.0839C183.108 35.0839 183.456 34.9692 183.546 34.7339C183.636 34.4985 183.678 34.1847 183.678 33.7925V19.2126C183.678 19.1402 183.66 19.0497 183.624 18.9411C183.552 18.76 183.426 18.6212 183.252 18.5126H182.556V17.9755C182.736 17.8307 182.964 17.6557 183.252 17.4384C183.498 17.2574 183.834 17.01 184.243 16.6841C184.651 16.3642 185.161 15.9478 185.768 15.447C186.05 15.1935 186.266 15.1633 186.41 15.3383C186.554 15.5194 186.626 15.7306 186.626 15.9841V16.4125C186.842 16.0203 187.125 15.7065 187.485 15.4711C187.839 15.2358 188.253 15.1211 188.716 15.1211C188.932 15.1211 189.196 15.1332 189.52 15.1452C189.838 15.1633 190.091 15.1935 190.271 15.2237C190.625 15.2961 190.877 15.3685 191.021 15.4409C191.303 15.5133 191.706 15.7487 192.228 16.141C192.744 16.5332 193.093 17.0039 193.273 17.541H193.261Z" fill="#F7F6F2"/>
<path d="M212.149 34.8853C212.576 35.0121 212.936 35.0724 213.218 35.0724V35.9897C213.038 35.9897 212.726 35.9957 212.281 36.0138C211.837 36.0319 211.471 35.9655 211.183 35.8267C210.864 35.6457 210.492 35.5673 210.084 35.5854C209.676 35.6035 209.327 35.6638 209.039 35.7724C208.895 35.8449 208.733 35.8871 208.559 35.9052C208.379 35.9233 208.205 35.9293 208.025 35.9293H207.382V35.1207C208.025 35.1207 208.391 34.994 208.481 34.7465C208.571 34.4931 208.613 34.1732 208.613 33.781V8.61024L204.704 35.7724C204.704 35.8086 204.686 35.8267 204.65 35.8267H204.596C204.56 35.8267 204.542 35.8086 204.542 35.7724L200.153 8.66455V33.4611C200.153 34.2517 200.424 34.7164 200.958 34.8612C201.492 35.006 202.081 35.0784 202.723 35.0784V35.9414H202.027C201.846 35.9414 201.654 35.9354 201.438 35.9173C201.222 35.8992 201.048 35.8569 200.904 35.7845C200.616 35.6397 200.261 35.5673 199.835 35.5673C199.409 35.5673 199.031 35.6578 198.712 35.8388C198.424 35.9837 198.034 36.038 197.536 36.0018C197.037 35.9655 196.695 35.9474 196.521 35.9474V35.0302C196.803 35.0302 197.103 35.0422 197.404 35.0543C197.704 35.0724 197.974 35.0362 198.208 34.9457C198.442 34.8552 198.634 34.7043 198.796 34.487C198.959 34.2698 199.037 33.9137 199.037 33.4129V4.03594C199.037 2.96176 198.941 2.24363 198.742 1.88155C198.544 1.5255 198.076 1.34446 197.325 1.34446C197.325 1.27204 197.343 1.12721 197.38 0.915995C197.416 0.698745 197.416 0.541843 197.38 0.433219L201.822 0.378906L205.245 24.1013L208.721 0.433219H213.056C213.092 0.505635 213.11 0.578051 213.11 0.650468V1.35049C212.395 1.35049 211.951 1.50136 211.771 1.80913C211.591 2.1169 211.501 2.82296 211.501 3.93335V33.787C211.501 34.3965 211.717 34.7646 212.143 34.8914L212.149 34.8853Z" fill="#F7F6F2"/>
<path d="M227.94 34.8592C227.796 35.1127 227.634 35.3058 227.46 35.4506C227.279 35.5955 227.051 35.7282 226.763 35.855C226.475 35.9817 226.121 36.042 225.694 36.042C224.836 36.1144 224.157 35.8731 223.659 35.3179C223.161 34.7627 222.909 34.0747 222.909 33.248C222.8 33.5376 222.638 33.8876 222.428 34.298C222.212 34.7084 221.75 35.167 221.035 35.6679C220.573 36.0239 220.057 36.1989 219.486 36.1808C218.916 36.1627 218.49 36.0843 218.201 35.9394C217.307 35.5472 216.604 34.8834 216.088 33.948C215.572 33.0186 215.295 31.866 215.259 30.5082C215.223 29.9711 215.253 29.3314 215.337 28.6012C215.428 27.865 215.668 27.1952 216.058 26.5857C216.202 26.3684 216.352 26.1632 216.514 25.9641C216.676 25.7649 216.887 25.5598 217.157 25.3485C217.427 25.1313 217.775 24.8899 218.201 24.6244C218.628 24.3528 219.162 24.0269 219.804 23.6286C220.519 23.164 221.077 22.814 221.492 22.5786C221.9 22.3433 222.302 21.9812 222.698 21.4743V18.0345C222.698 17.6784 222.62 17.3707 222.458 17.1172C222.296 16.8637 222.104 16.6525 221.87 16.4715C221.636 16.2904 221.396 16.1577 221.149 16.0672C220.897 15.9766 220.687 15.9344 220.507 15.9344C219.792 15.9344 219.222 16.0611 218.796 16.3086C218.369 16.562 218.063 16.8275 217.883 17.1172C217.775 17.2982 217.685 17.5276 217.613 17.8172C217.541 18.1069 217.541 18.3362 217.613 18.5173C217.685 18.6983 217.781 18.9276 217.907 19.2173C218.033 19.5069 218.093 19.7725 218.093 20.0259C218.021 20.7441 217.667 21.2268 217.025 21.4803C216.634 21.6251 216.268 21.5346 215.926 21.2087C215.584 20.8889 215.38 20.5811 215.307 20.2915C215.235 19.7544 215.349 19.1268 215.656 18.4086C215.956 17.6905 216.592 16.9543 217.553 16.206C217.979 15.8499 218.454 15.5965 218.97 15.4516C219.486 15.3068 220.015 15.2344 220.549 15.2344C221.335 15.2344 222.002 15.343 222.554 15.5542C223.107 15.7715 223.569 16.0491 223.947 16.387C224.319 16.731 224.614 17.1051 224.83 17.5155C225.046 17.9259 225.202 18.3121 225.31 18.6742C225.346 18.7828 225.382 18.9638 225.418 19.2112C225.454 19.4647 225.478 19.7302 225.496 20.0199C225.514 20.3096 225.532 20.5691 225.55 20.7984C225.568 21.0337 225.574 21.1846 225.574 21.257V34.0083C225.538 34.2256 225.556 34.4006 225.628 34.5454C225.772 34.9015 226.019 35.1006 226.379 35.1368C226.769 35.173 227.057 35.0644 227.237 34.817C227.345 34.7084 227.436 34.5816 227.508 34.4428L227.934 34.8713L227.94 34.8592ZM222.692 24.9623V22.2165C222.476 22.5726 222.128 22.9166 221.648 23.2364C221.167 23.5562 220.567 24.0088 219.852 24.5821C219.282 25.0468 218.868 25.7589 218.622 26.7063C218.37 27.6598 218.249 28.5469 218.249 29.3676V32.379C218.249 32.9523 218.291 33.5014 218.382 34.0204C218.472 34.5394 218.73 34.9256 219.156 35.1791C219.438 35.3601 219.762 35.4144 220.117 35.342C220.471 35.2696 220.795 35.1067 221.077 34.8592C221.468 34.5756 221.834 34.1773 222.176 33.6764C222.512 33.1755 222.686 32.566 222.686 31.8479V24.9623H222.692Z" fill="#F7F6F2"/>
<path d="M239.978 17.541C240.122 18.0781 240.11 18.6092 239.954 19.1281C239.791 19.6471 239.371 20.0333 238.699 20.2868C238.02 20.5403 237.444 20.4859 236.958 20.1239C236.477 19.7678 236.237 19.4238 236.237 19.104C236.237 18.5307 236.345 18.1445 236.555 17.9453C236.771 17.7462 237.036 17.5772 237.36 17.4324C237.54 17.36 237.642 17.2634 237.678 17.1367C237.714 17.01 237.732 16.8953 237.732 16.7867C237.732 16.6418 237.696 16.5151 237.624 16.4125C237.588 16.3763 237.552 16.3341 237.516 16.2798C237.48 16.2254 237.408 16.1651 237.3 16.0927C237.048 15.9116 236.765 15.797 236.441 15.7427C236.123 15.6884 235.871 15.6642 235.691 15.6642C235.511 15.6642 235.252 15.7004 234.916 15.7728C234.574 15.8453 234.268 16.0263 233.98 16.3099C233.691 16.6298 233.499 17.0824 233.391 17.6557C233.391 17.6919 233.379 17.7281 233.367 17.7643C233.349 17.8005 233.343 17.8548 233.343 17.9272V33.7985C233.343 34.408 233.487 34.7641 233.769 34.8727C234.052 34.9813 234.34 35.0356 234.628 35.0356V35.8443C234.448 35.8443 234.202 35.8684 233.878 35.9227C233.559 35.977 233.253 35.9348 232.965 35.79C232.647 35.6451 232.286 35.5727 231.896 35.5727C231.506 35.5727 231.164 35.6451 230.882 35.79C230.737 35.8624 230.575 35.9046 230.401 35.9227C230.221 35.9408 230.047 35.9469 229.867 35.9469H229.224V35.0839C229.831 35.0839 230.179 34.9692 230.269 34.7339C230.359 34.4985 230.401 34.1847 230.401 33.7925V19.2126C230.401 19.1402 230.383 19.0497 230.347 18.9411C230.275 18.76 230.149 18.6212 229.975 18.5126H229.278V17.9755C229.459 17.8307 229.687 17.6557 229.975 17.4384C230.227 17.2574 230.557 17.01 230.966 16.6841C231.374 16.3642 231.884 15.9478 232.491 15.447C232.773 15.1935 232.989 15.1633 233.133 15.3383C233.277 15.5194 233.349 15.7306 233.349 15.9841V16.4125C233.565 16.0203 233.847 15.7065 234.208 15.4711C234.562 15.2358 234.976 15.1211 235.439 15.1211C235.655 15.1211 235.919 15.1332 236.243 15.1452C236.561 15.1633 236.813 15.1935 236.994 15.2237C237.348 15.2961 237.6 15.3685 237.744 15.4409C238.026 15.5133 238.429 15.7487 238.951 16.141C239.467 16.5332 239.815 17.0039 239.996 17.541H239.978Z" fill="#F7F6F2"/>
<path d="M254.748 33.567C254.603 34.0317 254.405 34.4661 254.159 34.8584C253.943 35.1782 253.679 35.4679 253.355 35.7214C253.036 35.9748 252.64 36.0955 252.178 36.0955C251.679 36.0955 251.235 36.0714 250.839 36.0171C250.449 35.9628 250.088 35.7395 249.77 35.3472C249.698 35.2748 249.548 35.0093 249.314 34.5386C249.08 34.0739 248.798 33.4885 248.455 32.7885C248.113 32.0885 247.741 31.3281 247.333 30.5013C246.924 29.6746 246.528 28.8901 246.156 28.1357C245.784 27.3814 245.435 26.7116 245.111 26.1202C244.793 25.5288 244.559 25.1063 244.415 24.8589L244.042 25.2331V33.7299C244.042 34.3394 244.187 34.7075 244.469 34.8343C244.751 34.961 245.039 35.0213 245.327 35.0213V35.83C245.147 35.83 244.901 35.8541 244.577 35.9084C244.259 35.9628 243.952 35.9205 243.664 35.7757C243.376 35.6308 243.04 35.5584 242.649 35.5584C242.259 35.5584 241.917 35.6308 241.635 35.7757C241.347 35.8843 241.01 35.9386 240.62 35.9386C240.404 35.9386 240.194 35.9205 239.978 35.8843V35.0757C240.584 35.0757 240.92 34.9489 240.992 34.7015C241.064 34.448 241.1 34.1282 241.1 33.736V4.03314C241.136 3.96073 241.136 3.87021 241.1 3.76158C241.028 3.51416 240.902 3.35122 240.728 3.27881H240.086L240.032 2.79603C240.212 2.6512 240.44 2.47619 240.728 2.25894C240.98 2.0779 241.299 1.81841 241.689 1.48046C242.079 1.14252 242.577 0.720092 243.19 0.219211C243.508 -0.0342463 243.736 -0.0644198 243.856 0.110587C243.982 0.291628 244.042 0.502842 244.042 0.7563V23.9416L250.034 16.9474C250.178 16.694 250.215 16.5069 250.142 16.3801C250.07 16.2534 249.944 16.181 249.77 16.1629C249.59 16.1448 249.398 16.1448 249.182 16.1629C248.966 16.181 248.792 16.187 248.647 16.187V15.3784C248.828 15.3784 249.056 15.3603 249.344 15.3241C249.626 15.2879 249.914 15.3422 250.203 15.487C250.485 15.6318 250.821 15.7043 251.193 15.7043C251.565 15.7043 251.878 15.6318 252.13 15.487C252.238 15.4146 252.37 15.3784 252.532 15.3784H253.631V16.1327C253.343 16.1327 253.102 16.1267 252.91 16.1086C252.712 16.0905 252.526 16.1025 252.346 16.1327C252.166 16.1689 251.992 16.2474 251.812 16.3741C251.631 16.5008 251.421 16.706 251.169 16.9957L246.462 22.4812L249.458 28.2926C249.812 29.0108 250.178 29.7168 250.557 30.4169C250.929 31.1169 251.259 31.7324 251.547 32.2756C251.83 32.8126 252.154 33.4221 252.508 34.1041C252.652 34.2489 252.808 34.3394 252.988 34.3756C253.204 34.4118 253.379 34.3756 253.523 34.267C253.667 34.1584 253.793 34.0317 253.895 33.8929C254.003 33.748 254.093 33.573 254.165 33.3558L254.754 33.573L254.748 33.567Z" fill="#F7F6F2"/>
<path d="M264.222 24.4735C263.832 24.6907 263.471 24.8476 263.153 24.9562C262.835 25.0649 262.637 25.1373 262.565 25.1735L261.76 25.3364C261.472 25.4088 261.178 25.4873 260.878 25.5778C260.572 25.6683 260.295 25.7649 260.049 25.8735L259.731 26.0364C259.515 26.1813 259.329 26.314 259.167 26.4408C259.004 26.5675 258.89 26.7184 258.818 26.8994C258.782 26.9356 258.764 26.9899 258.764 27.0623V32.2824C258.764 33.1091 258.968 33.7609 259.383 34.2436C259.791 34.7264 260.283 35.004 260.854 35.0764C261.958 35.1488 262.835 34.8713 263.477 34.2436C264.12 33.616 264.564 32.91 264.816 32.1194C264.852 31.9384 264.894 31.7513 264.948 31.5522C265.002 31.353 265.044 31.1659 265.08 30.9849C265.117 30.7677 265.153 30.5564 265.189 30.3392C265.261 30.303 265.411 30.2969 265.645 30.3151C265.879 30.3332 266.029 30.3392 266.101 30.3392C266.065 30.5926 266.029 30.8582 265.993 31.1478C265.921 31.4013 265.861 31.6789 265.807 31.9806C265.753 32.2884 265.675 32.5841 265.567 32.8677C265.177 33.9419 264.582 34.7747 263.802 35.3661C263.015 35.9575 262.127 36.2532 261.124 36.2532H260.908C260.121 36.2532 259.461 36.1385 258.926 35.9032C258.392 35.6678 257.936 35.3842 257.563 35.0402C257.191 34.7023 256.885 34.3342 256.657 33.9359C256.423 33.5436 256.255 33.1634 256.147 32.8074C256.075 32.6988 256.032 32.5177 256.014 32.2703C255.996 32.0168 255.966 31.7694 255.936 31.516C255.9 31.2323 255.882 30.9246 255.882 30.5987V20.0017C255.954 19.5009 256.063 19 256.201 18.4931C256.345 18.1008 256.555 17.6663 256.843 17.2016C257.125 16.737 257.521 16.3206 258.02 15.9645C258.77 15.3912 259.713 15.1016 260.854 15.1016H261.07C261.856 15.1016 262.541 15.2283 263.129 15.4757C263.718 15.7292 264.216 16.0309 264.63 16.393C265.038 16.749 265.369 17.1534 265.621 17.606C265.867 18.0525 266.029 18.4569 266.101 18.8189C266.419 20.0742 266.431 21.1242 266.125 21.963C265.819 22.8079 265.525 23.3691 265.243 23.6588C264.96 23.9484 264.762 24.1234 264.654 24.1959C264.546 24.2683 264.402 24.3588 264.228 24.4674L264.222 24.4735ZM258.764 26.0908C258.944 25.8433 259.203 25.6261 259.539 25.445C259.875 25.264 260.235 25.089 260.608 24.908C260.98 24.7269 261.364 24.5217 261.76 24.2924C262.151 24.0571 262.511 23.7614 262.829 23.4053C263.075 23.0855 263.267 22.6993 263.393 22.2467C263.519 21.8001 263.598 21.3294 263.634 20.8466C263.67 20.3638 263.658 19.8871 263.61 19.4224C263.555 18.9577 263.513 18.5293 263.477 18.131C263.441 17.9499 263.345 17.6904 263.183 17.3525C263.021 17.0146 262.799 16.6827 262.517 16.3568C262.337 16.1395 262.109 15.9706 261.82 15.8438C261.532 15.7171 261.304 15.6568 261.124 15.6568C260.944 15.6568 260.686 15.693 260.349 15.7654C260.007 15.8378 259.701 16.0188 259.413 16.3025C259.125 16.6223 258.932 17.0749 258.824 17.6482C258.788 17.793 258.77 17.9379 258.77 18.0767V26.0908H258.764Z" fill="#F7F6F2"/>
<path d="M278.295 33.0836C278.367 33.156 278.457 33.2103 278.565 33.2465C278.709 33.3551 278.835 33.4094 278.938 33.4094C278.721 33.8741 278.499 34.2965 278.271 34.6707C278.037 35.0448 277.779 35.3768 277.497 35.6664C277.142 36.0587 276.728 36.3182 276.266 36.4449C275.803 36.5716 275.407 36.632 275.089 36.632C274.302 36.632 273.654 36.5354 273.138 36.3363C272.621 36.1371 272.189 35.8776 271.853 35.5578C271.511 35.238 271.246 34.8759 271.048 34.4836C270.85 34.0914 270.7 33.7112 270.592 33.3551C270.52 33.1379 270.478 32.9086 270.46 32.6551C270.442 32.4016 270.436 32.2266 270.436 32.118V15.3898H268.346V14.7441C268.629 14.7441 268.917 14.726 269.205 14.6898C269.451 14.6536 269.703 14.5932 269.956 14.5027C270.202 14.4122 270.418 14.2613 270.598 14.0441C270.952 13.6518 271.24 13.1811 271.457 12.644C271.673 12.1069 271.847 11.588 271.991 11.0871C272.135 10.5138 272.261 9.94048 272.363 9.36719H273.432V14.7441H277.124V15.3898H273.432V33.4094C273.468 33.9103 273.678 34.3871 274.074 34.8336C274.465 35.2802 274.915 35.5397 275.413 35.6121C275.803 35.6483 276.272 35.4975 276.806 35.1535C277.34 34.8155 277.839 34.1215 278.307 33.0836H278.295Z" fill="#F7F6F2"/>
<path d="M33.9388 0.872949C32.0835 4.3429 30.4925 8.03011 28.1449 11.2104C26.9381 12.8398 25.5032 14.2941 23.8461 15.4528C22.201 16.5994 20.3337 17.2994 18.6406 18.3555C15.6506 20.2262 12.0843 21.1254 8.77606 22.266C6.00822 23.2195 3.54059 24.2333 1.6013 26.5506C-0.680214 29.2783 -0.620175 33.6655 2.40583 35.7656C2.61597 35.9104 2.8141 35.5665 2.60396 35.4216C0.382491 33.8948 0.00423977 31.3904 0.748734 28.9283C1.22905 27.3351 2.3578 26.2247 3.60063 25.1868C5.89415 23.2677 9.10028 22.5798 11.8741 21.6384C13.3751 21.1254 14.8821 20.6004 16.3411 19.9728C17.704 19.3874 18.8868 18.5727 20.1836 17.8667C21.8287 16.9675 23.4558 16.2976 24.9448 15.1209C26.1576 14.1614 27.2263 13.0449 28.1689 11.8259C30.6906 8.56116 32.3417 4.69895 34.275 1.07813C34.3951 0.854845 34.0528 0.6557 33.9328 0.878984L33.9388 0.872949Z" fill="#F7F6F2"/>
<path d="M1.31318 34.1813C1.99763 35.177 3.23445 35.9555 4.45926 36.1064C4.76547 36.1607 5.07167 36.1667 5.37787 36.1184C5.68408 36.0702 5.91223 35.8771 6.06833 35.527C6.19441 35.2495 6.23044 34.9417 6.18241 34.6037C6.13437 34.2658 6.08634 33.9399 6.04431 33.6382C5.96626 33.3666 5.93024 33.1373 5.94225 32.9502C5.95425 32.7632 6.03831 32.564 6.20042 32.3528C6.55465 31.9304 6.97493 31.7252 7.44925 31.7433C7.92356 31.7916 8.30782 32.0269 8.59601 32.4373C8.8842 32.8537 8.98627 33.3002 8.90221 33.783C8.78813 34.302 8.54197 34.7727 8.16972 35.1951C7.79748 35.6176 7.3772 35.9434 6.90889 36.1667C6.14638 36.5711 5.31783 36.7098 4.42924 36.5711C3.09636 36.3478 2.03365 35.7081 1.24713 34.652" fill="#F7F6F2"/>
</svg>
