<svg width="193" height="26" viewBox="0 0 193 26" fill="none" xmlns="http://www.w3.org/2000/svg">
<path d="M18.5082 13.7419C18.5832 13.8927 18.6332 14.098 18.6582 14.3577C18.6832 14.6175 18.6957 14.8018 18.6957 14.8982V21.9576C18.6457 22.3053 18.5707 22.653 18.4749 23.005C18.3749 23.3024 18.2291 23.6166 18.0291 23.9392C17.8291 24.2618 17.5583 24.5509 17.2126 24.7981C16.9668 24.9741 16.6793 25.1165 16.3585 25.2296C16.0377 25.3427 15.6669 25.3972 15.2462 25.3972H15.1337C14.9337 25.3972 14.7171 25.3721 14.4838 25.3218C14.2463 25.2715 14.0338 25.1835 13.8339 25.062C13.6339 24.9364 13.4631 24.7771 13.3131 24.576C13.1631 24.3791 13.0173 24.1026 12.8674 23.7549C12.7924 23.9309 12.7257 24.0649 12.6632 24.1655C12.6007 24.266 12.5716 24.3289 12.5716 24.354C12.4716 24.4797 12.3299 24.597 12.1466 24.7101C11.9592 24.8232 11.7675 24.9028 11.5717 24.9531C11.4467 24.9782 11.3259 24.9908 11.2009 24.9908H10.8301C10.7052 24.9908 10.5719 24.9782 10.4219 24.9531V24.354C10.8426 24.354 11.0759 24.2744 11.1259 24.111C11.1759 23.9476 11.2009 23.7298 11.2009 23.4574V3.54448C11.2509 3.19675 11.3259 2.84902 11.4217 2.49709C11.5217 2.19963 11.6675 1.8938 11.8675 1.58377C12.0633 1.27374 12.3383 0.980474 12.684 0.708153C13.1798 0.385557 13.7006 0.192838 14.2422 0.129995C14.7879 0.0671512 15.3128 0.125805 15.8211 0.297577C16.3293 0.473538 16.7918 0.745859 17.2126 1.11873C17.6333 1.4916 17.9541 1.96502 18.1791 2.53899C18.2291 2.71495 18.2707 2.94538 18.3082 3.23027C18.3457 3.51516 18.3624 3.70788 18.3624 3.80842V8.21584C18.3624 8.9113 18.1582 9.58582 17.75 10.231C17.3417 10.8804 16.7793 11.3119 16.0586 11.5382C16.0086 11.5633 15.9711 11.5759 15.9461 11.5759C15.9211 11.5759 15.8836 11.5884 15.8336 11.6136C16.7001 11.7141 17.3292 11.9739 17.7291 12.397C18.1249 12.8202 18.3832 13.2684 18.5082 13.7419ZM13.2381 12.5478C13.4339 12.3719 13.6464 12.2252 13.8714 12.0996C14.0922 11.9739 14.3421 11.8524 14.6129 11.7267C14.7129 11.6764 14.8587 11.6219 15.0587 11.5591C15.2545 11.4963 15.442 11.3706 15.617 11.1862C15.7878 10.9977 15.9461 10.7254 16.0794 10.3651C16.2169 10.0048 16.2835 9.5146 16.2835 8.89036V2.72333C16.2835 2.50128 16.2669 2.26248 16.2294 2.01529C16.1919 1.76811 16.1252 1.52931 16.0252 1.30726C15.9252 1.08521 15.7836 0.896683 15.6003 0.745859C15.4128 0.595035 15.1712 0.523813 14.8754 0.523813C14.7504 0.523813 14.5713 0.540571 14.338 0.578277C14.1005 0.615983 13.888 0.73329 13.6881 0.934389C13.3923 1.30726 13.2423 1.84352 13.2423 2.53899V12.5478H13.2381ZM16.2794 24.5719C16.5751 24.2744 16.7251 23.7381 16.7251 22.9673V13.8927C16.6751 13.767 16.6376 13.5491 16.6126 13.2391C16.5876 12.9291 16.4502 12.6484 16.2044 12.397C16.0044 12.2001 15.8253 12.0744 15.6669 12.0241C15.5045 11.9739 15.3628 11.9487 15.2378 11.9487C15.0879 11.9487 14.9545 11.9655 14.8296 12.0032C14.7046 12.0409 14.5463 12.1205 14.3463 12.2462C14.0005 12.4221 13.6797 12.6191 13.3798 12.8453C13.3548 12.8704 13.3298 12.8872 13.3048 12.8998C13.2798 12.9123 13.2548 12.9291 13.2298 12.9542V22.85C13.2548 23.1474 13.2798 23.4114 13.3048 23.6334C13.3298 23.8554 13.4048 24.0691 13.5256 24.2702C13.6756 24.4923 13.8339 24.6557 14.0089 24.7562C14.3796 24.9782 14.7629 25.0746 15.1587 25.0369C15.5545 24.9992 15.9252 24.8442 16.271 24.5719H16.2794Z" fill="#F7F6F2"/>
<path d="M22.4322 2.7199C22.6447 2.38892 22.9863 1.50493 23.1655 1.16976C23.3363 0.851355 23.4321 0.532949 23.8529 0.185216C24.0487 0.00925483 24.1986 -0.0158825 24.2986 0.109804C24.3986 0.235491 24.4486 0.369557 24.4486 0.520381V23.4121C24.4486 23.8353 24.5486 24.0908 24.7444 24.1788C24.9402 24.2668 25.1402 24.3087 25.3401 24.3087V24.9455C25.2152 24.9455 25.0444 24.9497 24.8194 24.9622C24.5986 24.9748 24.3861 24.9329 24.1862 24.8324C23.9653 24.7318 23.7237 24.6815 23.4613 24.6815C23.1988 24.6815 22.9738 24.7318 22.7739 24.8324C22.6739 24.8826 22.5614 24.912 22.4406 24.9245C22.3156 24.9371 22.1948 24.9413 22.0698 24.9413H21.624V24.3422C22.0448 24.3422 22.2781 24.2542 22.3281 24.0824C22.3781 23.9065 22.4031 23.6844 22.4031 23.4121V22.6664L22.5864 3.35252C22.5864 3.26035 22.5447 3.04249 22.4572 3.16399" fill="#F7F6F2"/>
<path d="M33.2896 16.9908C33.0188 17.1416 32.7688 17.2505 32.548 17.3259C32.3272 17.4013 32.1897 17.4516 32.1398 17.4767L31.5815 17.5899C31.3815 17.6401 31.1774 17.6946 30.9691 17.7574C30.7566 17.8203 30.565 17.8873 30.3942 17.9627L30.1734 18.0758C30.0234 18.1764 29.8942 18.2686 29.7818 18.3565C29.6693 18.4445 29.5901 18.5493 29.5401 18.675C29.5151 18.7001 29.5026 18.7378 29.5026 18.7881V22.412C29.5026 22.986 29.6443 23.4385 29.9317 23.7736C30.215 24.1088 30.5567 24.3015 30.9524 24.3518C31.719 24.4021 32.3272 24.2094 32.773 23.7736C33.2188 23.3379 33.5271 22.8478 33.702 22.2989C33.727 22.1732 33.7562 22.0434 33.7937 21.9051C33.8312 21.7668 33.8603 21.637 33.8853 21.5113C33.9103 21.3605 33.9353 21.2138 33.9603 21.063C34.0103 21.0379 34.1145 21.0337 34.2769 21.0462C34.4394 21.0588 34.5436 21.063 34.5936 21.063C34.5686 21.239 34.5436 21.4233 34.5186 21.6244C34.4686 21.8004 34.4269 21.9931 34.3894 22.2026C34.3519 22.4162 34.2978 22.6215 34.2228 22.8184C33.952 23.5642 33.5395 24.1423 32.998 24.5529C32.4522 24.9635 31.8356 25.1688 31.1399 25.1688H30.9899C30.4442 25.1688 29.9859 25.0892 29.6151 24.9258C29.2443 24.7624 28.9277 24.5655 28.6694 24.3267C28.4111 24.0921 28.1987 23.8365 28.0404 23.56C27.8779 23.2877 27.7612 23.0237 27.6862 22.7765C27.6362 22.7011 27.6071 22.5754 27.5946 22.4037C27.5821 22.2277 27.5613 22.0559 27.5404 21.88C27.5154 21.6831 27.5029 21.4694 27.5029 21.2432V13.8863C27.5529 13.5386 27.6279 13.1908 27.7237 12.8389C27.8237 12.5666 27.9695 12.2649 28.1695 11.9423C28.3653 11.6197 28.6403 11.3307 28.986 11.0835C29.5068 10.6855 30.1609 10.4844 30.9524 10.4844H31.1024C31.6482 10.4844 32.1231 10.5724 32.5314 10.7441C32.9396 10.9201 33.2854 11.1296 33.5729 11.3809C33.8562 11.6281 34.0853 11.9088 34.2603 12.223C34.4311 12.5331 34.5436 12.8138 34.5936 13.0651C34.8144 13.9366 34.8227 14.6656 34.6102 15.2479C34.3978 15.8344 34.1936 16.2241 33.9978 16.4252C33.7978 16.6263 33.6645 16.7478 33.5895 16.798C33.5146 16.8483 33.4146 16.9112 33.2938 16.9866L33.2896 16.9908ZM29.5026 18.1136C29.6276 17.9418 29.8068 17.791 30.0401 17.6653C30.2734 17.5396 30.5233 17.4181 30.7816 17.2924C31.0399 17.1667 31.3065 17.0243 31.5815 16.8651C31.8523 16.7017 32.1023 16.4964 32.3231 16.2492C32.4939 16.0272 32.6272 15.759 32.7147 15.4448C32.8022 15.1348 32.8563 14.808 32.8813 14.4728C32.9063 14.1377 32.898 13.8067 32.8646 13.4841C32.8272 13.1615 32.798 12.864 32.773 12.5875C32.748 12.4618 32.6813 12.2817 32.5689 12.0471C32.4564 11.8125 32.3022 11.582 32.1064 11.3558C31.9814 11.205 31.8231 11.0877 31.6232 10.9997C31.4232 10.9117 31.2649 10.8698 31.1399 10.8698C31.0149 10.8698 30.8358 10.895 30.6025 10.9452C30.365 10.9955 30.1525 11.1212 29.9526 11.3181C29.7526 11.5401 29.6193 11.8544 29.5443 12.2524C29.5193 12.3529 29.5068 12.4535 29.5068 12.5498V18.1136H29.5026Z" fill="#F7F6F2"/>
<path d="M43.4633 20.1268C43.5133 20.4243 43.5299 20.7762 43.5174 21.1742C43.5049 21.5722 43.4508 21.966 43.3508 22.3515C43.2508 22.7369 43.105 23.1181 42.905 23.491C42.705 23.8639 42.4343 24.1781 42.0885 24.4253C41.7177 24.6976 41.3386 24.8987 40.9553 25.0244C40.572 25.1501 40.2054 25.2129 39.8596 25.2129C39.4389 25.2129 39.0722 25.1501 38.764 25.0244C38.4557 24.8987 38.164 24.7772 37.8932 24.6515C37.7933 24.6012 37.6724 24.5384 37.5225 24.463C37.3725 24.3876 37.2267 24.3876 37.0767 24.463C36.9767 24.5133 36.9017 24.6264 36.8559 24.7982C36.8309 24.8736 36.8309 24.9364 36.8559 24.9867H36.3351L36.2976 21.0276H37.0017C37.0267 21.3501 37.0892 21.7188 37.1892 22.1294C37.2892 22.54 37.435 22.8835 37.6349 23.1558C37.8058 23.403 38.0807 23.7047 38.4515 24.0524C38.8223 24.4001 39.2805 24.5887 39.8263 24.6138C40.5179 24.6138 41.0345 24.3708 41.3677 23.8848C41.701 23.3988 41.8927 22.9212 41.9427 22.4478C41.9926 21.8738 41.926 21.3837 41.7385 20.9731C41.551 20.5625 41.3219 20.1813 41.0511 19.8335C40.9261 19.6827 40.7428 19.5026 40.4929 19.2931C40.2471 19.0836 39.9846 18.8783 39.7138 18.6772C39.443 18.4803 39.1889 18.296 38.9514 18.1368C38.714 17.9734 38.5598 17.8686 38.489 17.8184C38.2182 17.6173 37.9432 17.4078 37.6724 17.1815C37.4516 16.9846 37.2308 16.7668 37.0225 16.528C36.8101 16.2934 36.6434 16.0378 36.5226 15.7613C36.4726 15.6356 36.4101 15.4052 36.3351 15.07C36.2602 14.7348 36.2227 14.362 36.2227 13.9514C36.2227 13.5408 36.2851 13.1177 36.4101 12.682C36.5351 12.2462 36.7809 11.8399 37.1517 11.467C37.8683 10.7464 38.6973 10.4112 39.6388 10.4573C40.0846 10.4824 40.4512 10.5369 40.7345 10.6249C41.0178 10.7129 41.2719 10.8176 41.4969 10.9433C41.5719 10.9936 41.676 11.048 41.8135 11.1109C41.951 11.1737 42.0801 11.1402 42.2051 11.0187C42.3051 10.9182 42.3551 10.8092 42.3551 10.6835V10.495C42.4051 10.5201 42.4676 10.5327 42.5426 10.5327C42.5926 10.5327 42.6426 10.5411 42.6925 10.5495C42.7425 10.562 42.78 10.5662 42.805 10.5662V14.8982H42.101C42.101 14.4499 42.0676 14.01 42.0093 13.5743C41.9468 13.1386 41.7427 12.661 41.3969 12.1373C41.1969 11.865 40.9345 11.6011 40.597 11.3539C40.2637 11.1067 39.8846 10.9936 39.4638 11.0187C38.9931 11.0187 38.614 11.0857 38.3307 11.224C38.0474 11.3622 37.8224 11.5298 37.6641 11.7267C37.5016 11.9278 37.3975 12.1331 37.3475 12.3426C37.2975 12.5563 37.285 12.7364 37.31 12.8831C37.385 13.3313 37.5891 13.7671 37.9224 14.1902C38.2557 14.6133 38.8056 15.0868 39.5763 15.6105C39.7013 15.6859 39.8971 15.8157 40.1721 16.0043C40.4429 16.1928 40.7303 16.3897 41.0261 16.6034C41.3219 16.817 41.6094 17.0349 41.8802 17.257C42.151 17.479 42.3509 17.6801 42.4759 17.8561C42.8217 18.3546 43.0633 18.7568 43.2008 19.071C43.3383 19.3811 43.4299 19.7372 43.4799 20.1352L43.4633 20.1268Z" fill="#F7F6F2"/>
<path d="M52.6371 20.1268C52.6871 20.4243 52.7037 20.7762 52.6913 21.1742C52.6788 21.5722 52.6246 21.966 52.5246 22.3515C52.4246 22.7369 52.2788 23.1181 52.0788 23.491C51.8789 23.8639 51.6081 24.1781 51.2623 24.4253C50.8915 24.6976 50.5124 24.8987 50.1291 25.0244C49.7458 25.1501 49.3792 25.2129 49.0335 25.2129C48.6127 25.2129 48.2461 25.1501 47.9378 25.0244C47.6295 24.8987 47.3379 24.7772 47.0671 24.6515C46.9671 24.6012 46.8463 24.5384 46.6963 24.463C46.5463 24.3876 46.4005 24.3876 46.2505 24.463C46.1505 24.5133 46.0756 24.6264 46.0297 24.7982C46.0047 24.8736 46.0047 24.9364 46.0297 24.9867H45.509L45.4715 21.0276H46.1755C46.2005 21.3501 46.263 21.7188 46.363 22.1294C46.463 22.54 46.6088 22.8835 46.8088 23.1558C46.9796 23.403 47.2545 23.7047 47.6253 24.0524C47.9961 24.4001 48.4544 24.5887 49.0001 24.6138C49.6917 24.6138 50.2083 24.3708 50.5416 23.8848C50.8749 23.3988 51.0665 22.9212 51.1165 22.4478C51.1665 21.8738 51.0998 21.3837 50.9123 20.9731C50.7249 20.5625 50.4957 20.1813 50.2249 19.8335C50.1 19.6827 49.9167 19.5026 49.6667 19.2931C49.4209 19.0836 49.1584 18.8783 48.8876 18.6772C48.6168 18.4803 48.3627 18.296 48.1253 18.1368C47.8878 17.9734 47.7336 17.8686 47.6628 17.8184C47.392 17.6173 47.1171 17.4078 46.8463 17.1815C46.6255 16.9846 46.4047 16.7668 46.1964 16.528C45.9839 16.2934 45.8173 16.0378 45.6964 15.7613C45.6464 15.6356 45.584 15.4052 45.509 15.07C45.434 14.7348 45.3965 14.362 45.3965 13.9514C45.3965 13.5408 45.459 13.1177 45.584 12.682C45.7089 12.2462 45.9547 11.8399 46.3255 11.467C47.0421 10.7464 47.8711 10.4112 48.8127 10.4573C49.2584 10.4824 49.625 10.5369 49.9083 10.6249C50.1916 10.7129 50.4457 10.8176 50.6707 10.9433C50.7457 10.9936 50.8499 11.048 50.9873 11.1109C51.1248 11.1737 51.254 11.1402 51.3789 11.0187C51.4789 10.9182 51.5289 10.8092 51.5289 10.6835V10.495C51.5789 10.5201 51.6414 10.5327 51.7164 10.5327C51.7664 10.5327 51.8164 10.5411 51.8664 10.5495C51.9164 10.562 51.9539 10.5662 51.9789 10.5662V14.8982H51.2748C51.2748 14.4499 51.2415 14.01 51.1831 13.5743C51.1206 13.1386 50.9165 12.661 50.5707 12.1373C50.3708 11.865 50.1083 11.6011 49.7708 11.3539C49.4376 11.1067 49.0584 10.9936 48.6377 11.0187C48.1669 11.0187 47.7878 11.0857 47.5045 11.224C47.2212 11.3622 46.9963 11.5298 46.8379 11.7267C46.6755 11.9278 46.5713 12.1331 46.5213 12.3426C46.4713 12.5563 46.4588 12.7364 46.4838 12.8831C46.5588 13.3313 46.7629 13.7671 47.0962 14.1902C47.4295 14.6133 47.9794 15.0868 48.7502 15.6105C48.8751 15.6859 49.0709 15.8157 49.3459 16.0043C49.6167 16.1928 49.9042 16.3897 50.1999 16.6034C50.4957 16.817 50.7832 17.0349 51.054 17.257C51.3248 17.479 51.5248 17.6801 51.6497 17.8561C51.9955 18.3546 52.2372 18.7568 52.3746 19.071C52.5121 19.3811 52.6038 19.7372 52.6538 20.1352L52.6371 20.1268Z" fill="#F7F6F2"/>
<path d="M60.2476 16.9908C59.9768 17.1416 59.7268 17.2505 59.506 17.3259C59.2852 17.4013 59.1477 17.4516 59.0978 17.4767L58.5395 17.5899C58.3395 17.6401 58.1354 17.6946 57.9271 17.7574C57.7146 17.8203 57.523 17.8873 57.3522 17.9627L57.1314 18.0758C56.9814 18.1764 56.8523 18.2686 56.7398 18.3565C56.6273 18.4445 56.5481 18.5493 56.4981 18.675C56.4731 18.7001 56.4606 18.7378 56.4606 18.7881V22.412C56.4606 22.986 56.6023 23.4385 56.8898 23.7736C57.173 24.1088 57.5147 24.3015 57.9104 24.3518C58.677 24.4021 59.2852 24.2094 59.731 23.7736C60.1768 23.3379 60.4851 22.8478 60.66 22.2989C60.685 22.1732 60.7142 22.0434 60.7517 21.9051C60.7892 21.7668 60.8183 21.637 60.8433 21.5113C60.8683 21.3605 60.8933 21.2138 60.9183 21.063C60.9683 21.0379 61.0725 21.0337 61.2349 21.0462C61.3974 21.0588 61.5016 21.063 61.5516 21.063C61.5266 21.239 61.5016 21.4233 61.4766 21.6244C61.4266 21.8004 61.3849 21.9931 61.3474 22.2026C61.3099 22.4162 61.2558 22.6215 61.1808 22.8184C60.91 23.5642 60.4976 24.1423 59.956 24.5529C59.4102 24.9635 58.7936 25.1688 58.0979 25.1688H57.9479C57.4022 25.1688 56.9439 25.0892 56.5731 24.9258C56.2023 24.7624 55.8857 24.5655 55.6274 24.3267C55.3691 24.0921 55.1567 23.8365 54.9984 23.56C54.8359 23.2877 54.7192 23.0237 54.6442 22.7765C54.5942 22.7011 54.5651 22.5754 54.5526 22.4037C54.5401 22.2277 54.5193 22.0559 54.4984 21.88C54.4734 21.6831 54.4609 21.4694 54.4609 21.2432V13.8863C54.5109 13.5386 54.5859 13.1908 54.6817 12.8389C54.7817 12.5666 54.9275 12.2649 55.1275 11.9423C55.3233 11.6197 55.5983 11.3307 55.9441 11.0835C56.4648 10.6855 57.1189 10.4844 57.9104 10.4844H58.0604C58.6062 10.4844 59.0811 10.5724 59.4894 10.7441C59.8976 10.9201 60.2434 11.1296 60.5309 11.3809C60.8142 11.6281 61.0433 11.9088 61.2183 12.223C61.3933 12.5331 61.5016 12.8138 61.5516 13.0651C61.7724 13.9366 61.7807 14.6656 61.5682 15.2479C61.3558 15.8344 61.1516 16.2241 60.9558 16.4252C60.7559 16.6263 60.6225 16.7478 60.5475 16.798C60.4726 16.8483 60.3726 16.9112 60.2518 16.9866L60.2476 16.9908ZM56.4606 18.1136C56.5856 17.9418 56.7648 17.791 56.9981 17.6653C57.2314 17.5396 57.4813 17.4181 57.7396 17.2924C57.9979 17.1667 58.2645 17.0243 58.5395 16.8651C58.8103 16.7017 59.0603 16.4964 59.2811 16.2492C59.4519 16.0272 59.5852 15.759 59.6727 15.4448C59.7602 15.1348 59.8143 14.808 59.8393 14.4728C59.8643 14.1377 59.856 13.8067 59.8227 13.4841C59.7852 13.1615 59.756 12.864 59.731 12.5875C59.706 12.4618 59.6393 12.2817 59.5269 12.0471C59.4144 11.8125 59.2602 11.582 59.0644 11.3558C58.9394 11.205 58.7811 11.0877 58.5812 10.9997C58.3812 10.9117 58.2229 10.8698 58.0979 10.8698C57.9729 10.8698 57.7938 10.895 57.5605 10.9452C57.323 10.9955 57.1105 11.1212 56.9106 11.3181C56.7106 11.5401 56.5773 11.8544 56.5023 12.2524C56.4773 12.3529 56.4648 12.4535 56.4648 12.5498V18.1136H56.4606Z" fill="#F7F6F2"/>
<path d="M70.7218 23.4132C70.7218 23.6855 70.7467 23.9118 70.7967 24.0835C70.8467 24.2595 71.08 24.3433 71.5008 24.3433V24.9047C71.3508 24.9298 71.2175 24.9424 71.0925 24.9424H70.7009C70.5634 24.9424 70.4468 24.9298 70.3468 24.9047C70.1468 24.8544 69.9552 24.7748 69.7719 24.6617C69.5844 24.5486 69.4428 24.4313 69.3428 24.3056C69.3428 24.2804 69.3095 24.2176 69.2511 24.1171C69.1886 24.0165 69.122 23.895 69.047 23.7442C68.872 24.1422 68.6387 24.4774 68.3429 24.7539C68.0471 25.0262 67.6514 25.1644 67.1556 25.1644H67.0431C66.2516 25.1644 65.5933 24.9633 65.0767 24.5653C64.731 24.3181 64.456 24.0375 64.2602 23.7232C64.0602 23.4132 63.9144 23.1074 63.8144 22.8099C63.7144 22.4873 63.6519 22.1396 63.627 21.7625V13.6599C63.627 13.4379 63.6769 13.1739 63.7769 12.8765C63.8519 12.6293 63.9644 12.3612 64.1102 12.0721C64.2602 11.7872 64.4643 11.5232 64.7226 11.2886C64.9809 11.054 65.3059 10.8571 65.6892 10.7105C66.0724 10.5597 66.5349 10.4884 67.0806 10.4884H67.2306C67.5264 10.4884 67.8013 10.568 68.0471 10.7314C68.2929 10.8948 68.4929 11.1127 68.6429 11.385V2.98912C68.6679 2.93885 68.6679 2.87601 68.6429 2.80059C68.5929 2.64977 68.4929 2.55341 68.3471 2.50314C68.2971 2.478 68.2096 2.46543 68.0888 2.46543H67.9013V2.13027C68.0263 2.02972 68.1846 1.90822 68.3846 1.7574C68.5554 1.63171 68.7804 1.45994 69.0512 1.2337C69.322 1.01165 69.6677 0.722575 70.0927 0.374842C70.3135 0.198881 70.476 0.177933 70.5759 0.29943C70.6759 0.425117 70.7259 0.559183 70.7259 0.710007V23.4132H70.7218ZM68.6387 23.2289C68.6637 23.1535 68.6762 23.0403 68.6762 22.8937L68.6387 22.856V12.2522C68.5637 11.8542 68.4179 11.5442 68.193 11.318C67.993 11.1211 67.7847 10.9954 67.5597 10.9451C67.3389 10.8948 67.1639 10.8697 67.0389 10.8697C66.914 10.8697 66.7723 10.9032 66.614 10.9618C66.4515 11.0247 66.2724 11.1546 66.0766 11.3557C65.9016 11.5568 65.785 11.7537 65.7225 11.9548C65.66 12.1559 65.6183 12.3151 65.5933 12.4408C65.5683 12.5162 65.5558 12.5832 65.5558 12.6461V12.9645C65.5558 13.0147 65.5683 13.0524 65.5933 13.0776V23.1241C65.5933 23.2247 65.6058 23.3378 65.6308 23.4593C65.6808 23.6353 65.7308 23.7945 65.7808 23.9453C65.8308 24.0961 65.9183 24.2302 66.0391 24.3559C66.2349 24.557 66.4474 24.6785 66.6723 24.7287C66.8931 24.779 67.0681 24.8041 67.1931 24.8041C67.4639 24.8041 67.7888 24.6533 68.1596 24.3559C68.3304 24.1589 68.4512 23.9495 68.5137 23.74C68.5762 23.5305 68.6179 23.3587 68.6429 23.2372L68.6387 23.2289Z" fill="#F7F6F2"/>
<path d="M83.6983 6.47647C83.6108 6.48904 83.5067 6.49323 83.3817 6.49323C83.3817 6.22091 83.3692 5.79776 83.3442 5.22379C83.3192 4.64982 83.2442 4.06747 83.1234 3.46837C82.9984 2.86926 82.8193 2.32462 82.586 1.82606C82.3485 1.32751 82.0361 1.01748 81.6403 0.891792C81.3695 0.81638 81.1029 0.766105 80.8404 0.740968C80.5821 0.715831 80.303 0.703262 80.003 0.703262V11.9438H81.7111C81.9319 11.9438 82.0902 11.881 82.1735 11.7553C82.261 11.6296 82.3235 11.483 82.361 11.307C82.3985 11.1311 82.411 10.9593 82.3985 10.7833C82.386 10.6074 82.3818 10.4733 82.3818 10.3728H83.0151C83.0151 10.4984 83.0068 10.6912 82.9984 10.9509C82.9859 11.2107 82.9651 11.4537 82.9443 11.6799C82.8943 11.9774 82.8693 12.2036 82.8693 12.3502C82.8693 12.4969 82.8818 12.6728 82.9068 12.8739C82.9068 12.9996 82.9109 13.1421 82.9234 13.3054C82.9359 13.4688 82.9526 13.6239 82.9776 13.7705C83.0026 13.9464 83.0151 14.1308 83.0151 14.3319H82.4193C82.4193 13.9339 82.4027 13.5652 82.3652 13.23C82.3277 12.8949 82.1485 12.7021 81.8278 12.6519H80.0072V23.595C80.0072 23.817 80.0572 23.9804 80.1572 24.081C80.2572 24.1815 80.378 24.2486 80.528 24.2863C80.6779 24.324 80.8321 24.3407 80.9904 24.3407H81.382V24.9775C81.232 24.9775 80.9737 24.9817 80.6029 24.9943C80.2322 25.0069 79.9489 24.9608 79.7489 24.8644C79.5281 24.7639 79.274 24.7136 78.9865 24.7136C78.6991 24.7136 78.4616 24.7513 78.2616 24.8267C78.1616 24.877 78.0242 24.9063 77.8533 24.9189C77.6784 24.9315 77.5076 24.9356 77.3326 24.9356H76.666V24.3742C77.0868 24.3742 77.3951 24.2821 77.5951 24.0935C77.7909 23.905 77.8908 23.6788 77.8908 23.4023V1.23115C77.8908 1.18087 77.8783 1.11803 77.8533 1.04262C77.8034 0.866655 77.7159 0.757726 77.5951 0.707451C77.5451 0.682314 77.4326 0.669745 77.2618 0.669745H76.666V0.296875H84.0191V6.45971C83.8941 6.45971 83.79 6.46809 83.7025 6.47647H83.6983Z" fill="#F7F6F2"/>
<path d="M88.9144 22.6664V23.4121C88.9144 23.8353 89.0144 24.0908 89.2102 24.1788C89.406 24.2668 89.606 24.3087 89.806 24.3087V24.9455C89.681 24.9455 89.5102 24.9497 89.2852 24.9622C89.0644 24.9748 88.8519 24.9329 88.652 24.8324C88.4312 24.7318 88.1895 24.6815 87.9271 24.6815C87.6646 24.6815 87.4396 24.7318 87.2397 24.8324C87.1397 24.8826 87.0272 24.912 86.9064 24.9245C86.7814 24.9371 86.6606 24.9413 86.5356 24.9413H86.0898V24.3422C86.5106 24.3422 86.7439 24.2542 86.7939 24.0824C86.8439 23.9065 86.8689 23.6844 86.8689 23.4121V2.7995C86.8939 2.74922 86.8939 2.68638 86.8689 2.61097C86.8189 2.46014 86.7189 2.36379 86.5731 2.31351C86.5231 2.28837 86.4356 2.2758 86.3148 2.2758H86.1273V1.94064C86.2273 1.84009 86.3731 1.71859 86.5731 1.56777C86.7439 1.44208 86.9772 1.27031 87.2605 1.04408C87.5438 0.822029 87.8979 0.532949 88.3187 0.185216C88.5145 0.00925483 88.6645 -0.0158825 88.7645 0.109804C88.8644 0.235491 88.9144 0.369557 88.9144 0.520381V22.6664Z" fill="#F7F6F2"/>
<path d="M98.8298 12.8844C98.9548 13.1567 99.0173 13.4207 99.0173 13.6679V21.7705C98.9673 22.1433 98.8923 22.4911 98.7965 22.8179C98.6965 23.1153 98.5507 23.4212 98.3507 23.7312C98.1507 24.0412 97.8799 24.3219 97.5341 24.5733C97.0134 24.9713 96.3718 25.1724 95.6011 25.1724H95.4511C94.9054 25.1724 94.4429 25.0928 94.0597 24.9294C93.6764 24.766 93.3556 24.5691 93.0931 24.3303C92.8348 24.0957 92.6307 23.8401 92.4807 23.5636C92.3307 23.2913 92.2224 23.0273 92.1474 22.7802C92.0225 22.4073 91.96 22.1433 91.96 21.9967V13.8941C92.01 13.5464 92.0849 13.1986 92.1808 12.8467C92.2807 12.5744 92.4266 12.2727 92.6265 11.9502C92.8223 11.6276 93.0973 11.3385 93.4431 11.0913C93.9638 10.6933 94.6179 10.4922 95.4095 10.4922H95.5219C96.0677 10.4922 96.5301 10.5676 96.9134 10.7142C97.2967 10.8651 97.6175 11.0578 97.8799 11.2924C98.1382 11.5312 98.3424 11.7909 98.4923 12.0758C98.6423 12.3607 98.7506 12.6289 98.8256 12.8802L98.8298 12.8844ZM97.0467 12.809V12.6414C97.0467 12.5786 97.0342 12.5116 97.0092 12.4361C96.9842 12.3105 96.9426 12.1513 96.8801 11.9502C96.8176 11.7532 96.7009 11.5521 96.526 11.351C96.326 11.1541 96.1468 11.0201 95.9885 10.9572C95.8261 10.8944 95.6844 10.8651 95.5594 10.8651C95.4345 10.8651 95.2636 10.8902 95.0387 10.9405C94.8179 10.9907 94.6054 11.1164 94.4096 11.3133C94.2096 11.5354 94.0763 11.8496 94.0013 12.2476C93.9763 12.3482 93.9638 12.4487 93.9638 12.5451V23.2242C93.9888 23.3499 94.0388 23.5175 94.1138 23.727C94.1888 23.9407 94.3013 24.1459 94.4471 24.3429C94.8179 24.6403 95.1387 24.7911 95.4136 24.7911C95.5386 24.7911 95.7094 24.766 95.9344 24.7157C96.1552 24.6655 96.3801 24.5398 96.6009 24.3429C96.7968 24.1208 96.9342 23.8192 97.0092 23.4463C97.0342 23.3206 97.0384 23.2117 97.0259 23.1111C97.0134 23.0106 97.0176 22.9142 97.0426 22.8137V12.8048L97.0467 12.809Z" fill="#F7F6F2"/>
<path d="M114.424 10.7921C114.599 10.7167 114.832 10.6789 115.128 10.6789H115.573V11.2781C115.153 11.2781 114.819 11.2906 114.569 11.3158C114.324 11.3409 114.111 11.5881 113.936 12.0615C113.886 12.2375 113.811 12.5517 113.715 13.0125C113.615 13.4734 113.503 14.0222 113.382 14.6548C113.257 15.2916 113.128 15.9871 112.99 16.7454C112.853 17.5037 112.711 18.2704 112.561 19.0413C112.216 20.8344 111.845 22.8119 111.449 24.9779H108.812C108.737 24.4793 108.649 23.9431 108.554 23.3733C108.479 22.8747 108.391 22.3175 108.295 21.6933C108.195 21.0732 108.083 20.4113 107.962 19.7158C107.837 20.4113 107.716 21.0732 107.591 21.6933C107.466 22.3175 107.354 22.8747 107.258 23.3733C107.158 23.9473 107.045 24.4793 106.925 24.9779H104.437C103.992 22.9627 103.583 21.0816 103.213 19.3388C103.063 18.593 102.909 17.8515 102.75 17.1183C102.588 16.3851 102.442 15.6855 102.304 15.0277C102.167 14.3699 102.046 13.7876 101.934 13.2932C101.821 12.7947 101.755 12.4218 101.73 12.1746C101.73 12.1243 101.721 12.0866 101.713 12.0615C101.7 12.0364 101.696 12.0112 101.696 11.9861C101.546 11.5629 101.413 11.3451 101.288 11.3325C101.163 11.3199 101.005 11.3158 100.805 11.3158V10.6789C100.93 10.6789 101.088 10.6748 101.288 10.6622C101.484 10.6496 101.684 10.6957 101.884 10.7921C102.379 10.9932 102.838 10.9932 103.258 10.7921C103.358 10.7418 103.479 10.7125 103.629 10.6999C103.779 10.6873 103.913 10.6831 104.038 10.6831H104.521V11.2822C104.1 11.2822 103.833 11.3577 103.721 11.5043C103.608 11.6551 103.579 11.8646 103.629 12.1411L106.266 24.5003L107.641 17.554C107.441 16.36 107.262 15.2623 107.104 14.2694C106.941 13.2723 106.837 12.5768 106.787 12.1788C106.762 12.1285 106.75 12.0908 106.75 12.0657C106.75 12.0406 106.737 12.0154 106.712 11.9903C106.587 11.5671 106.458 11.3493 106.321 11.3367C106.183 11.3241 106.029 11.3199 105.858 11.3199V10.6831C105.983 10.6831 106.137 10.6789 106.321 10.6664C106.508 10.6538 106.7 10.6999 106.895 10.7963C107.116 10.8968 107.358 10.9471 107.62 10.9471C107.883 10.9471 108.108 10.8968 108.308 10.7963C108.383 10.746 108.495 10.7167 108.641 10.7041C108.791 10.6915 108.924 10.6873 109.049 10.6873H109.533V11.2864C109.112 11.2864 108.845 11.3618 108.733 11.5085C108.62 11.6593 108.591 11.8688 108.641 12.1453L110.645 24.5045L113.132 11.9568C113.207 11.7347 113.199 11.5713 113.115 11.4708C113.028 11.3702 112.911 11.3074 112.761 11.2822C112.611 11.2571 112.453 11.2571 112.278 11.2822C112.103 11.3074 111.97 11.3199 111.87 11.3199L111.832 10.6831C111.982 10.6831 112.166 10.6789 112.391 10.6664C112.611 10.6538 112.824 10.6999 113.024 10.7963C113.22 10.8968 113.457 10.9471 113.728 10.9471C113.999 10.9471 114.236 10.8968 114.432 10.7963L114.424 10.7921Z" fill="#F7F6F2"/>
<path d="M123.002 16.9908C122.731 17.1416 122.481 17.2505 122.26 17.3259C122.039 17.4013 121.902 17.4516 121.852 17.4767L121.293 17.5899C121.093 17.6401 120.889 17.6946 120.681 17.7574C120.469 17.8203 120.277 17.8873 120.106 17.9627L119.885 18.0758C119.735 18.1764 119.606 18.2686 119.494 18.3565C119.381 18.4445 119.302 18.5493 119.252 18.675C119.227 18.7001 119.215 18.7378 119.215 18.7881V22.412C119.215 22.986 119.356 23.4385 119.644 23.7736C119.927 24.1088 120.269 24.3015 120.664 24.3518C121.431 24.4021 122.039 24.2094 122.485 23.7736C122.931 23.3379 123.239 22.8478 123.414 22.2989C123.439 22.1732 123.468 22.0434 123.506 21.9051C123.543 21.7668 123.572 21.637 123.597 21.5113C123.622 21.3605 123.647 21.2138 123.672 21.063C123.722 21.0379 123.826 21.0337 123.989 21.0462C124.151 21.0588 124.255 21.063 124.305 21.063C124.28 21.239 124.255 21.4233 124.23 21.6244C124.18 21.8004 124.139 21.9931 124.101 22.2026C124.064 22.4162 124.01 22.6215 123.935 22.8184C123.664 23.5642 123.251 24.1423 122.71 24.5529C122.164 24.9635 121.548 25.1688 120.852 25.1688H120.702C120.156 25.1688 119.698 25.0892 119.327 24.9258C118.956 24.7624 118.64 24.5655 118.381 24.3267C118.123 24.0921 117.911 23.8365 117.752 23.56C117.59 23.2877 117.473 23.0237 117.398 22.7765C117.348 22.7011 117.319 22.5754 117.306 22.4037C117.294 22.2277 117.273 22.0559 117.252 21.88C117.227 21.6831 117.215 21.4694 117.215 21.2432V13.8863C117.265 13.5386 117.34 13.1908 117.436 12.8389C117.536 12.5666 117.681 12.2649 117.881 11.9423C118.077 11.6197 118.352 11.3307 118.698 11.0835C119.219 10.6855 119.873 10.4844 120.664 10.4844H120.814C121.36 10.4844 121.835 10.5724 122.243 10.7441C122.652 10.9201 122.997 11.1296 123.285 11.3809C123.568 11.6281 123.797 11.9088 123.972 12.223C124.143 12.5331 124.255 12.8138 124.305 13.0651C124.526 13.9366 124.535 14.6656 124.322 15.2479C124.11 15.8344 123.906 16.2241 123.71 16.4252C123.514 16.6263 123.376 16.7478 123.301 16.798C123.226 16.8483 123.126 16.9112 123.006 16.9866L123.002 16.9908ZM119.215 18.1136C119.34 17.9418 119.519 17.791 119.752 17.6653C119.985 17.5396 120.235 17.4181 120.494 17.2924C120.752 17.1667 121.018 17.0243 121.293 16.8651C121.564 16.7017 121.814 16.4964 122.035 16.2492C122.206 16.0272 122.339 15.759 122.427 15.4448C122.514 15.1348 122.568 14.808 122.593 14.4728C122.618 14.1377 122.61 13.8067 122.577 13.4841C122.539 13.1615 122.51 12.864 122.485 12.5875C122.46 12.4618 122.393 12.2817 122.281 12.0471C122.168 11.8125 122.014 11.582 121.818 11.3558C121.693 11.205 121.535 11.0877 121.335 10.9997C121.135 10.9117 120.977 10.8698 120.852 10.8698C120.727 10.8698 120.548 10.895 120.314 10.9452C120.077 10.9955 119.86 11.1212 119.664 11.3181C119.465 11.5401 119.331 11.8544 119.256 12.2524C119.231 12.3529 119.219 12.4535 119.219 12.5498V18.1136H119.215Z" fill="#F7F6F2"/>
<path d="M133.55 12.1761C133.65 12.549 133.641 12.9177 133.533 13.278C133.42 13.6383 133.129 13.9064 132.662 14.0824C132.191 14.2583 131.791 14.2206 131.454 13.9692C131.121 13.7221 130.954 13.4832 130.954 13.2612C130.954 12.8632 131.029 12.5951 131.175 12.4568C131.325 12.3186 131.508 12.2012 131.733 12.1007C131.858 12.0504 131.929 11.9834 131.954 11.8954C131.979 11.8074 131.991 11.7278 131.991 11.6524C131.991 11.5519 131.966 11.4639 131.916 11.3927C131.891 11.3675 131.866 11.3382 131.841 11.3005C131.816 11.2628 131.766 11.2209 131.691 11.1706C131.517 11.0449 131.321 10.9653 131.096 10.9276C130.875 10.8899 130.7 10.8732 130.575 10.8732C130.45 10.8732 130.271 10.8983 130.038 10.9486C129.8 10.9988 129.588 11.1245 129.388 11.3214C129.188 11.5435 129.054 11.8577 128.979 12.2557C128.979 12.2808 128.971 12.306 128.963 12.3311C128.95 12.3563 128.942 12.394 128.942 12.4442V23.4628C128.942 23.8859 129.042 24.1331 129.238 24.2085C129.433 24.2839 129.633 24.3216 129.833 24.3216V24.883C129.708 24.883 129.538 24.8998 129.313 24.9375C129.092 24.9752 128.879 24.9459 128.679 24.8453C128.459 24.7448 128.209 24.6945 127.938 24.6945C127.667 24.6945 127.43 24.7448 127.234 24.8453C127.134 24.8956 127.021 24.9249 126.901 24.9375C126.776 24.9501 126.655 24.9543 126.53 24.9543H126.084V24.3551C126.505 24.3551 126.746 24.2755 126.809 24.1121C126.871 23.9488 126.901 23.7309 126.901 23.4586V13.3366C126.901 13.2863 126.888 13.2235 126.863 13.1481C126.813 13.0224 126.726 12.926 126.605 12.8506H126.121V12.4778C126.246 12.3772 126.405 12.2557 126.605 12.1049C126.776 11.9792 127.009 11.8074 127.292 11.5812C127.575 11.3591 127.93 11.0701 128.35 10.7223C128.546 10.5464 128.696 10.5254 128.796 10.6469C128.896 10.7726 128.946 10.9192 128.946 11.0952V11.3927C129.096 11.1203 129.292 10.9025 129.542 10.7391C129.788 10.5757 130.075 10.4961 130.396 10.4961C130.546 10.4961 130.729 10.5045 130.954 10.5129C131.175 10.5254 131.35 10.5464 131.475 10.5673C131.721 10.6176 131.896 10.6679 131.996 10.7181C132.191 10.7684 132.471 10.9318 132.833 11.2041C133.191 11.4764 133.433 11.8032 133.558 12.1761H133.55Z" fill="#F7F6F2"/>
<path d="M146.656 24.2176C146.952 24.3056 147.202 24.3475 147.397 24.3475V24.9843C147.272 24.9843 147.056 24.9885 146.747 25.001C146.439 25.0136 146.185 24.9675 145.985 24.8712C145.764 24.7455 145.506 24.691 145.223 24.7036C144.939 24.7162 144.698 24.758 144.498 24.8335C144.398 24.8837 144.285 24.9131 144.164 24.9256C144.039 24.9382 143.919 24.9424 143.794 24.9424H143.348V24.381C143.794 24.381 144.048 24.293 144.11 24.1212C144.173 23.9453 144.202 23.7232 144.202 23.4509V5.97627L141.49 24.8335C141.49 24.8586 141.477 24.8712 141.452 24.8712H141.415C141.39 24.8712 141.377 24.8586 141.377 24.8335L138.332 6.01398V23.2289C138.332 23.7777 138.519 24.1003 138.89 24.2008C139.261 24.3014 139.669 24.3517 140.115 24.3517V24.9508H139.632C139.507 24.9508 139.374 24.9466 139.224 24.934C139.074 24.9214 138.953 24.8921 138.853 24.8418C138.653 24.7413 138.407 24.691 138.111 24.691C137.815 24.691 137.553 24.7539 137.332 24.8795C137.132 24.9801 136.861 25.0178 136.516 24.9927C136.17 24.9675 135.932 24.955 135.812 24.955V24.3181C136.007 24.3181 136.216 24.3265 136.424 24.3349C136.632 24.3475 136.82 24.3223 136.982 24.2595C137.145 24.1966 137.278 24.0919 137.39 23.9411C137.503 23.7903 137.557 23.5431 137.557 23.1953V2.80059C137.557 2.05485 137.49 1.55629 137.353 1.30492C137.215 1.05773 136.891 0.932048 136.37 0.932048C136.37 0.881773 136.382 0.781224 136.407 0.634589C136.432 0.483765 136.432 0.374837 136.407 0.299425L139.49 0.261719L141.865 16.7309L144.277 0.299425H147.285C147.31 0.349699 147.322 0.399974 147.322 0.450249V0.936237C146.827 0.936237 146.518 1.04098 146.393 1.25464C146.268 1.46831 146.206 1.95849 146.206 2.72937V23.4551C146.206 23.8782 146.356 24.1338 146.652 24.2218L146.656 24.2176Z" fill="#F7F6F2"/>
<path d="M157.613 24.1987C157.513 24.3746 157.4 24.5087 157.28 24.6092C157.155 24.7098 156.996 24.8019 156.796 24.8899C156.596 24.9779 156.351 25.0198 156.055 25.0198C155.459 25.0701 154.988 24.9025 154.642 24.5171C154.297 24.1316 154.122 23.654 154.122 23.08C154.047 23.2811 153.934 23.5241 153.788 23.809C153.638 24.0939 153.318 24.4123 152.822 24.7601C152.501 25.0072 152.143 25.1287 151.747 25.1162C151.351 25.1036 151.055 25.0491 150.855 24.9486C150.235 24.6763 149.747 24.2154 149.389 23.566C149.031 22.9208 148.839 22.1206 148.814 21.178C148.789 20.8051 148.81 20.361 148.868 19.8541C148.931 19.343 149.097 18.8779 149.368 18.4548C149.468 18.3039 149.572 18.1615 149.685 18.0232C149.797 17.885 149.943 17.7425 150.131 17.5959C150.318 17.4451 150.56 17.2775 150.855 17.0932C151.151 16.9046 151.522 16.6784 151.968 16.4019C152.464 16.0793 152.851 15.8363 153.138 15.6729C153.422 15.5095 153.701 15.2581 153.976 14.9062V12.5182C153.976 12.271 153.922 12.0573 153.809 11.8814C153.697 11.7054 153.563 11.5588 153.401 11.4331C153.238 11.3074 153.072 11.2152 152.901 11.1524C152.726 11.0895 152.58 11.0602 152.455 11.0602C151.959 11.0602 151.564 11.1482 151.268 11.32C150.972 11.4959 150.76 11.6803 150.635 11.8814C150.56 12.007 150.497 12.1663 150.447 12.3673C150.397 12.5684 150.397 12.7277 150.447 12.8533C150.497 12.979 150.564 13.1382 150.651 13.3393C150.739 13.5404 150.78 13.7248 150.78 13.9007C150.73 14.3993 150.485 14.7344 150.039 14.9104C149.768 15.011 149.514 14.9481 149.277 14.7219C149.039 14.4998 148.897 14.2862 148.847 14.0851C148.797 13.7122 148.877 13.2765 149.089 12.7779C149.297 12.2794 149.739 11.7682 150.406 11.2487C150.701 11.0016 151.03 10.8256 151.389 10.725C151.747 10.6245 152.114 10.5742 152.484 10.5742C153.03 10.5742 153.493 10.6496 153.876 10.7963C154.259 10.9471 154.58 11.1398 154.842 11.3744C155.101 11.6132 155.305 11.873 155.455 12.1579C155.605 12.4428 155.713 12.7109 155.788 12.9623C155.813 13.0377 155.838 13.1634 155.863 13.3351C155.888 13.5111 155.905 13.6954 155.917 13.8965C155.93 14.0976 155.942 14.2778 155.955 14.437C155.967 14.6004 155.971 14.7051 155.971 14.7554V23.6079C155.946 23.7587 155.959 23.8802 156.009 23.9808C156.109 24.228 156.28 24.3662 156.53 24.3914C156.8 24.4165 157 24.3411 157.125 24.1693C157.2 24.0939 157.263 24.0059 157.313 23.9096L157.609 24.207L157.613 24.1987ZM153.972 17.3278V15.4215C153.822 15.6687 153.58 15.9075 153.247 16.1296C152.914 16.3516 152.497 16.6658 152.001 17.0638C151.605 17.3864 151.318 17.8808 151.147 18.5386C150.972 19.2005 150.889 19.8164 150.889 20.3862V22.4767C150.889 22.8748 150.918 23.256 150.98 23.6163C151.043 23.9766 151.222 24.2447 151.518 24.4207C151.714 24.5464 151.939 24.5841 152.184 24.5338C152.43 24.4835 152.655 24.3704 152.851 24.1987C153.122 24.0017 153.376 23.7252 153.613 23.3775C153.847 23.0298 153.968 22.6066 153.968 22.1081V17.3278H153.972Z" fill="#F7F6F2"/>
<path d="M165.966 12.1761C166.066 12.549 166.058 12.9177 165.95 13.278C165.837 13.6383 165.546 13.9064 165.079 14.0824C164.608 14.2583 164.208 14.2206 163.871 13.9692C163.537 13.7221 163.371 13.4832 163.371 13.2612C163.371 12.8632 163.446 12.5951 163.592 12.4568C163.742 12.3186 163.925 12.2012 164.15 12.1007C164.275 12.0504 164.346 11.9834 164.371 11.8954C164.396 11.8074 164.408 11.7278 164.408 11.6524C164.408 11.5519 164.383 11.4639 164.333 11.3927C164.308 11.3675 164.283 11.3382 164.258 11.3005C164.233 11.2628 164.183 11.2209 164.108 11.1706C163.933 11.0449 163.737 10.9653 163.512 10.9276C163.292 10.8899 163.117 10.8732 162.992 10.8732C162.867 10.8732 162.688 10.8983 162.454 10.9486C162.217 10.9988 162.004 11.1245 161.804 11.3214C161.604 11.5435 161.471 11.8577 161.396 12.2557C161.396 12.2808 161.388 12.306 161.379 12.3311C161.367 12.3563 161.363 12.394 161.363 12.4442V23.4628C161.363 23.8859 161.463 24.1331 161.659 24.2085C161.854 24.2839 162.054 24.3216 162.254 24.3216V24.883C162.129 24.883 161.959 24.8998 161.734 24.9375C161.513 24.9752 161.3 24.9459 161.1 24.8453C160.88 24.7448 160.63 24.6945 160.359 24.6945C160.088 24.6945 159.851 24.7448 159.655 24.8453C159.555 24.8956 159.442 24.9249 159.321 24.9375C159.196 24.9501 159.076 24.9543 158.951 24.9543H158.505V24.3551C158.926 24.3551 159.167 24.2755 159.23 24.1121C159.292 23.9488 159.321 23.7309 159.321 23.4586V13.3366C159.321 13.2863 159.309 13.2235 159.284 13.1481C159.234 13.0224 159.146 12.926 159.026 12.8506H158.542V12.4778C158.667 12.3772 158.826 12.2557 159.026 12.1049C159.201 11.9792 159.43 11.8074 159.713 11.5812C159.996 11.3591 160.35 11.0701 160.771 10.7223C160.967 10.5464 161.117 10.5254 161.217 10.6469C161.317 10.7726 161.367 10.9192 161.367 11.0952V11.3927C161.517 11.1203 161.713 10.9025 161.963 10.7391C162.209 10.5757 162.496 10.4961 162.817 10.4961C162.967 10.4961 163.15 10.5045 163.375 10.5129C163.596 10.5254 163.771 10.5464 163.896 10.5673C164.142 10.6176 164.317 10.6679 164.417 10.7181C164.612 10.7684 164.891 10.9318 165.254 11.2041C165.612 11.4764 165.854 11.8032 165.979 12.1761H165.966Z" fill="#F7F6F2"/>
<path d="M176.214 23.3037C176.114 23.6263 175.977 23.9279 175.806 24.2002C175.656 24.4223 175.473 24.6234 175.248 24.7993C175.027 24.9753 174.752 25.0591 174.431 25.0591C174.085 25.0591 173.777 25.0423 173.502 25.0046C173.231 24.9669 172.981 24.8119 172.761 24.5396C172.711 24.4893 172.607 24.305 172.444 23.9782C172.282 23.6556 172.086 23.2492 171.848 22.7632C171.611 22.2772 171.353 21.7493 171.069 21.1754C170.786 20.6014 170.511 20.0568 170.253 19.5331C169.994 19.0094 169.753 18.5443 169.528 18.1338C169.307 17.7232 169.145 17.4299 169.045 17.2581L168.786 17.5179V23.4168C168.786 23.8399 168.886 24.0955 169.082 24.1835C169.278 24.2715 169.478 24.3134 169.678 24.3134V24.8748C169.553 24.8748 169.382 24.8915 169.157 24.9292C168.936 24.9669 168.724 24.9376 168.524 24.837C168.324 24.7365 168.091 24.6862 167.82 24.6862C167.549 24.6862 167.311 24.7365 167.116 24.837C166.916 24.9125 166.682 24.9502 166.412 24.9502C166.262 24.9502 166.116 24.9376 165.966 24.9125V24.3511C166.387 24.3511 166.62 24.2631 166.67 24.0913C166.72 23.9153 166.745 23.6933 166.745 23.421V2.79998C166.77 2.74971 166.77 2.68687 166.745 2.61145C166.695 2.43968 166.607 2.32657 166.487 2.27629H166.041L166.003 1.94113C166.128 1.84058 166.287 1.71908 166.487 1.56826C166.662 1.44257 166.882 1.26242 167.153 1.0278C167.424 0.793188 167.77 0.499919 168.195 0.152186C168.415 -0.0237753 168.574 -0.0447231 168.657 0.076774C168.745 0.202461 168.786 0.349095 168.786 0.525056V16.6213L172.944 11.7656C173.044 11.5897 173.069 11.4598 173.019 11.3718C172.969 11.2838 172.881 11.2336 172.761 11.221C172.636 11.2084 172.502 11.2084 172.352 11.221C172.202 11.2336 172.082 11.2377 171.982 11.2377V10.6763C172.107 10.6763 172.265 10.6638 172.465 10.6386C172.661 10.6135 172.861 10.6512 173.061 10.7518C173.256 10.8523 173.49 10.9026 173.748 10.9026C174.006 10.9026 174.223 10.8523 174.398 10.7518C174.473 10.7015 174.565 10.6763 174.677 10.6763H175.439V11.2C175.239 11.2 175.073 11.1959 174.94 11.1833C174.802 11.1707 174.673 11.1791 174.548 11.2C174.423 11.2252 174.302 11.2796 174.177 11.3676C174.052 11.4556 173.906 11.5981 173.731 11.7991L170.465 15.6075L172.544 19.642C172.79 20.1406 173.044 20.6307 173.306 21.1167C173.565 21.6027 173.794 22.03 173.994 22.4071C174.19 22.78 174.415 23.2031 174.66 23.6765C174.76 23.7771 174.869 23.8399 174.994 23.8651C175.144 23.8902 175.264 23.8651 175.364 23.7897C175.464 23.7142 175.552 23.6263 175.623 23.5299C175.698 23.4294 175.76 23.3079 175.81 23.157L176.218 23.3079L176.214 23.3037Z" fill="#F7F6F2"/>
<path d="M182.789 16.9908C182.518 17.1416 182.268 17.2505 182.047 17.3259C181.826 17.4013 181.689 17.4516 181.639 17.4767L181.081 17.5899C180.881 17.6401 180.676 17.6946 180.468 17.7574C180.256 17.8203 180.064 17.8873 179.893 17.9627L179.672 18.0758C179.522 18.1764 179.393 18.2686 179.281 18.3565C179.168 18.4445 179.089 18.5493 179.039 18.675C179.014 18.7001 179.002 18.7378 179.002 18.7881V22.412C179.002 22.986 179.143 23.4385 179.431 23.7736C179.714 24.1088 180.056 24.3015 180.451 24.3518C181.218 24.4021 181.826 24.2094 182.272 23.7736C182.718 23.3379 183.026 22.8478 183.201 22.2989C183.226 22.1732 183.255 22.0434 183.293 21.9051C183.33 21.7668 183.359 21.637 183.384 21.5113C183.409 21.3605 183.434 21.2138 183.459 21.063C183.509 21.0379 183.613 21.0337 183.776 21.0462C183.938 21.0588 184.043 21.063 184.093 21.063C184.068 21.239 184.043 21.4233 184.018 21.6244C183.968 21.8004 183.926 21.9931 183.888 22.2026C183.851 22.4162 183.797 22.6215 183.722 22.8184C183.451 23.5642 183.039 24.1423 182.497 24.5529C181.951 24.9635 181.335 25.1688 180.639 25.1688H180.489C179.943 25.1688 179.485 25.0892 179.114 24.9258C178.743 24.7624 178.427 24.5655 178.168 24.3267C177.91 24.0921 177.698 23.8365 177.539 23.56C177.377 23.2877 177.26 23.0237 177.185 22.7765C177.135 22.7011 177.106 22.5754 177.094 22.4037C177.081 22.2277 177.06 22.0559 177.039 21.88C177.014 21.6831 177.002 21.4694 177.002 21.2432V13.8863C177.052 13.5386 177.127 13.1908 177.223 12.8389C177.323 12.5666 177.469 12.2649 177.669 11.9423C177.864 11.6197 178.139 11.3307 178.485 11.0835C179.006 10.6855 179.66 10.4844 180.451 10.4844H180.601C181.147 10.4844 181.622 10.5724 182.03 10.7441C182.439 10.9201 182.784 11.1296 183.072 11.3809C183.355 11.6281 183.584 11.9088 183.759 12.223C183.93 12.5331 184.043 12.8138 184.093 13.0651C184.313 13.9366 184.322 14.6656 184.109 15.2479C183.897 15.8344 183.693 16.2241 183.497 16.4252C183.301 16.6263 183.164 16.7478 183.089 16.798C183.014 16.8483 182.914 16.9112 182.793 16.9866L182.789 16.9908ZM179.002 18.1136C179.127 17.9418 179.306 17.791 179.539 17.6653C179.772 17.5396 180.022 17.4181 180.281 17.2924C180.539 17.1667 180.806 17.0243 181.081 16.8651C181.351 16.7017 181.601 16.4964 181.822 16.2492C181.993 16.0272 182.126 15.759 182.214 15.4448C182.301 15.1348 182.355 14.808 182.38 14.4728C182.405 14.1377 182.397 13.8067 182.364 13.4841C182.326 13.1615 182.297 12.864 182.272 12.5875C182.247 12.4618 182.18 12.2817 182.068 12.0471C181.955 11.8125 181.801 11.582 181.605 11.3558C181.48 11.205 181.322 11.0877 181.122 10.9997C180.922 10.9117 180.764 10.8698 180.639 10.8698C180.514 10.8698 180.335 10.895 180.102 10.9452C179.864 10.9955 179.652 11.1212 179.452 11.3181C179.252 11.5401 179.118 11.8544 179.043 12.2524C179.018 12.3529 179.006 12.4535 179.006 12.5498V18.1136H179.002Z" fill="#F7F6F2"/>
<path d="M192.554 22.9689C192.604 23.0191 192.666 23.0568 192.741 23.082C192.841 23.1574 192.928 23.1951 192.999 23.1951C192.849 23.5177 192.695 23.811 192.537 24.0707C192.374 24.3305 192.195 24.5609 191.999 24.762C191.754 25.0343 191.466 25.2145 191.145 25.3024C190.825 25.3904 190.55 25.4323 190.329 25.4323C189.783 25.4323 189.333 25.3653 188.975 25.227C188.617 25.0888 188.317 24.9086 188.083 24.6866C187.846 24.4645 187.663 24.2132 187.525 23.9408C187.388 23.6685 187.283 23.4046 187.208 23.1574C187.158 23.0066 187.129 22.8474 187.117 22.6714C187.104 22.4954 187.1 22.3739 187.1 22.2985V10.6851H185.65V10.2368C185.846 10.2368 186.046 10.2242 186.246 10.1991C186.417 10.174 186.592 10.1321 186.767 10.0692C186.938 10.0064 187.088 9.90164 187.213 9.75081C187.458 9.47849 187.658 9.15171 187.808 8.77883C187.958 8.40596 188.079 8.04566 188.179 7.69793C188.279 7.29992 188.367 6.90191 188.437 6.50391H189.179V10.2368H191.741V10.6851H189.179V23.1951C189.204 23.5428 189.35 23.8738 189.625 24.1838C189.896 24.4939 190.208 24.674 190.554 24.7243C190.825 24.7494 191.15 24.6447 191.52 24.4059C191.891 24.1713 192.237 23.6895 192.562 22.9689H192.554Z" fill="#F7F6F2"/>
<path d="M23.5495 0.602724C22.2622 3.01172 21.1582 5.57154 19.5293 7.77943C18.6919 8.91061 17.6962 9.9203 16.5464 10.7247C15.4049 11.5207 14.1092 12.0067 12.9344 12.7399C10.8597 14.0386 8.38505 14.6629 6.08955 15.4547C4.169 16.1166 2.45675 16.8205 1.11111 18.4293C-0.471989 20.323 -0.430328 23.3688 1.66937 24.8267C1.81518 24.9273 1.95266 24.6885 1.80685 24.5879C0.265404 23.528 0.0029419 21.7893 0.519533 20.08C0.852818 18.9739 1.63604 18.203 2.49841 17.4824C4.08985 16.1502 6.31452 15.6726 8.23924 15.019C9.28076 14.6629 10.3264 14.2984 11.3388 13.8627C12.2845 13.4563 13.1052 12.8907 14.0051 12.4005C15.1466 11.7763 16.2756 11.3112 17.3088 10.4943C18.1503 9.82812 18.8919 9.05306 19.5459 8.20677C21.2957 5.94022 22.4413 3.2589 23.7828 0.745169C23.8661 0.590155 23.6287 0.4519 23.5453 0.606913L23.5495 0.602724Z" fill="#F7F6F2"/>
<path d="M0.911061 23.7324C1.38599 24.4237 2.2442 24.9641 3.09408 25.0689C3.30654 25.1066 3.51901 25.1108 3.73148 25.0773C3.94395 25.0437 4.10226 24.9097 4.21058 24.6667C4.29807 24.474 4.32306 24.2603 4.28973 24.0257C4.25641 23.7911 4.22308 23.5648 4.19392 23.3553C4.13976 23.1668 4.11476 23.0076 4.12309 22.8777C4.13142 22.7479 4.18975 22.6096 4.30223 22.463C4.54803 22.1697 4.83965 22.0273 5.16877 22.0398C5.49789 22.0733 5.76452 22.2367 5.96449 22.5216C6.16446 22.8107 6.23528 23.1207 6.17696 23.4559C6.0978 23.8162 5.927 24.143 5.6687 24.4363C5.4104 24.7295 5.11878 24.9558 4.79383 25.1108C4.26474 25.3915 3.68982 25.4878 3.07325 25.3915C2.14838 25.2365 1.41099 24.7924 0.865234 24.0592" fill="#F7F6F2"/>
</svg>
